<svg width="92" height="25" viewBox="0 0 92 25" fill="none" xmlns="http://www.w3.org/2000/svg">
<path d="M1 12.4445C1 6.12386 6.12386 1 12.4445 1H79.3699C85.6905 1 90.8144 6.12386 90.8144 12.4445C90.8144 18.7651 85.6905 23.8889 79.3699 23.8889H12.4445C6.12385 23.8889 1 18.7651 1 12.4445Z" fill="#F4F41F" stroke="#F51A19" stroke-width="2"/>
<ellipse cx="15.5745" cy="12.4445" rx="7.2681" ry="7.8354" fill="black"/>
<path d="M46.4131 13.9834L46.374 14.9795C46.374 15.1585 46.4163 15.4238 46.501 15.7754C46.5889 16.1237 46.6328 16.3809 46.6328 16.5469C46.6328 16.7161 46.6605 16.9521 46.7158 17.2549C46.7712 17.5576 46.7988 17.8001 46.7988 17.9824C46.7988 18.168 46.7191 18.2607 46.5596 18.2607C46.4033 18.2607 46.3252 18.1696 46.3252 17.9873C46.3252 17.8083 46.3529 17.5674 46.4082 17.2646C46.4668 16.9652 46.4961 16.7406 46.4961 16.5908C46.4961 16.4411 46.444 16.3044 46.3398 16.1807C46.2357 16.0602 46.112 16 45.9688 16C45.6432 16 45.4805 16.3955 45.4805 17.1865C45.4805 17.3721 45.5049 17.6504 45.5537 18.0215C45.6025 18.3926 45.627 18.6465 45.627 18.7832C45.627 19.0501 45.5472 19.1836 45.3877 19.1836C45.3063 19.1836 45.2428 19.1478 45.1973 19.0762C45.1549 19.0078 45.1338 18.9085 45.1338 18.7783C45.1338 18.6481 45.1615 18.4105 45.2168 18.0654C45.2754 17.7204 45.3047 17.4697 45.3047 17.3135C45.3047 17.1572 45.2949 17.0091 45.2754 16.8691C45.2591 16.7324 45.2266 16.5843 45.1777 16.4248C45.1322 16.2686 45.0573 16.1416 44.9531 16.0439C44.8522 15.9463 44.7204 15.8975 44.5576 15.8975C44.3981 15.8975 44.2533 15.9674 44.123 16.1074C43.9961 16.2474 43.9326 16.3792 43.9326 16.5029C43.9326 16.6299 43.9554 16.7617 44.001 16.8984C44.0465 17.0352 44.0693 17.141 44.0693 17.2158C44.0693 17.359 44.0156 17.4307 43.9082 17.4307C43.804 17.4307 43.752 17.359 43.752 17.2158L43.8691 16.4346L43.8643 10.2188C43.8643 9.83464 43.7471 9.514 43.5127 9.25684L43.6104 9.15918C43.8708 9.3903 44.1914 9.50586 44.5723 9.50586H50.207C50.5879 9.50586 50.9085 9.3903 51.1689 9.15918L51.2666 9.25684C51.0355 9.51725 50.9199 9.81022 50.9199 10.1357C50.9199 10.4613 50.9411 10.7135 50.9834 10.8926C51.0257 11.0716 51.1201 11.2441 51.2666 11.4102L51.1689 11.5078C50.9964 11.2767 50.7816 11.1611 50.5244 11.1611H46.8184C46.6361 11.1611 46.4798 11.0993 46.3496 10.9756L46.2568 11.0684C46.3805 11.1986 46.4424 11.3564 46.4424 11.542C46.4424 11.7275 46.3805 11.8854 46.2568 12.0156L46.3496 12.1084C46.457 12.0042 46.5856 11.9375 46.7354 11.9082C46.8883 11.8789 47.069 11.8643 47.2773 11.8643L49.1328 11.9668C49.4355 11.9668 49.7025 11.9408 49.9336 11.8887C50.168 11.8366 50.3682 11.7308 50.5342 11.5713L50.6318 11.6689C50.3877 11.9359 50.2656 12.3053 50.2656 12.7773C50.2656 13.2493 50.3779 13.6025 50.6025 13.8369L50.5 13.9346C50.2038 13.6709 49.7253 13.5391 49.0645 13.5391L47.2383 13.6416C46.7923 13.6416 46.488 13.5602 46.3252 13.3975L46.2324 13.4951C46.3529 13.6188 46.4131 13.7816 46.4131 13.9834ZM54.7383 18.6318L54.792 17.333C54.792 16.9131 54.7757 16.6478 54.7432 16.5371C54.7139 16.4264 54.6829 16.3288 54.6504 16.2441C54.6178 16.1595 54.5755 16.0911 54.5234 16.0391C54.4714 15.987 54.4095 15.9382 54.3379 15.8926C54.2012 15.8014 53.9863 15.7559 53.6934 15.7559C53.4004 15.7559 53.153 15.8747 52.9512 16.1123C52.7526 16.3499 52.6533 16.6348 52.6533 16.9668C52.6533 17.0905 52.6777 17.2744 52.7266 17.5186C52.7754 17.766 52.7998 17.9515 52.7998 18.0752C52.7998 18.3096 52.7168 18.4268 52.5508 18.4268C52.3848 18.4268 52.3018 18.3128 52.3018 18.085C52.3018 17.958 52.3262 17.7676 52.375 17.5137C52.4271 17.2598 52.4531 17.0677 52.4531 16.9375L52.4873 15.6289V9.8916C52.4873 9.68978 52.4238 9.52702 52.2969 9.40332L52.3945 9.30078C52.5312 9.43099 52.694 9.49609 52.8828 9.49609H54.6504C54.8457 9.49609 55.0085 9.43099 55.1387 9.30078L55.2363 9.40332C55.1094 9.53027 55.0459 9.69303 55.0459 9.8916V15.6045C55.0459 15.7738 55.028 16.0651 54.9922 16.4785C54.9564 16.8952 54.945 17.2158 54.958 17.4404H54.9531C55.0736 17.9808 55.1338 18.3926 55.1338 18.6758C55.1338 18.959 55.0801 19.1006 54.9727 19.1006C54.8164 19.1006 54.7383 18.9443 54.7383 18.6318ZM64.5625 17.6016L64.6699 16.5908C64.6699 16.1807 64.5023 15.8682 64.167 15.6533C63.835 15.4352 63.485 15.3392 63.1172 15.3652C62.7493 15.388 62.4922 15.5117 62.3457 15.7363C62.2708 15.8438 62.2334 15.9707 62.2334 16.1172L62.209 17.4258C62.209 17.6048 62.2367 17.8701 62.292 18.2217C62.3473 18.5765 62.375 18.8434 62.375 19.0225C62.375 19.3382 62.2855 19.4961 62.1064 19.4961C61.9274 19.4961 61.8379 19.3431 61.8379 19.0371C61.8379 18.8353 61.8672 18.5456 61.9258 18.168C61.9844 17.7904 62.0169 17.5039 62.0234 17.3086C62.0332 17.1133 62.0381 16.6966 62.0381 16.0586C62.0381 15.8893 61.986 15.694 61.8818 15.4727C61.7777 15.2513 61.6133 14.9469 61.3887 14.5596C61.1641 14.1722 60.9801 13.8304 60.8369 13.5342L60.6904 13.4512C60.6123 13.5944 60.474 13.666 60.2754 13.666L59.8652 13.6807C59.5853 13.6807 59.3753 13.6123 59.2354 13.4756L59.1328 13.5732C59.1426 13.6937 59.1475 13.9508 59.1475 14.3447L59.1426 15.541C59.1426 15.8991 59.1491 16.1628 59.1621 16.332L59.2549 17.0498C59.2549 17.1833 59.2093 17.25 59.1182 17.25C59.027 17.25 58.9814 17.1882 58.9814 17.0645L59.0596 16.459C59.0596 16.3125 59.0156 16.1953 58.9277 16.1074C58.8431 16.0228 58.7308 15.9805 58.5908 15.9805C58.4541 15.9805 58.332 16.0407 58.2246 16.1611C58.1204 16.2848 58.0684 16.4443 58.0684 16.6396C58.0684 16.835 58.1042 17.0986 58.1758 17.4307C58.2474 17.766 58.2832 18.0068 58.2832 18.1533C58.2832 18.4593 58.1742 18.6123 57.9561 18.6123C57.738 18.6123 57.6289 18.4626 57.6289 18.1631C57.6289 18.0231 57.6598 17.779 57.7217 17.4307C57.7868 17.0824 57.8193 16.8057 57.8193 16.6006C57.8193 16.3955 57.7721 16.2262 57.6777 16.0928C57.5833 15.9626 57.4759 15.8975 57.3555 15.8975C57.235 15.8975 57.1325 15.9382 57.0479 16.0195C56.9632 16.1042 56.9209 16.2083 56.9209 16.332L57.0527 17.4893C57.0527 17.6878 56.9795 17.7871 56.833 17.7871C56.6865 17.7871 56.6133 17.6862 56.6133 17.4844C56.6133 17.3672 56.6442 17.1621 56.7061 16.8691C56.7679 16.5794 56.7972 16.3532 56.7939 16.1904C56.7907 16.0277 56.7891 13.9215 56.7891 9.87207C56.7891 9.67025 56.7272 9.50911 56.6035 9.38867L56.7012 9.29102C56.8281 9.41471 56.9893 9.47656 57.1846 9.47656H61.5596C62.2432 9.47656 62.7021 9.49772 62.9365 9.54004C63.1742 9.5791 63.3809 9.62142 63.5566 9.66699C63.7357 9.71257 63.8854 9.76953 64.0059 9.83789C64.1296 9.90299 64.2533 9.986 64.377 10.0869C64.5039 10.1846 64.6048 10.2969 64.6797 10.4238C64.8522 10.7135 64.9385 11.0212 64.9385 11.3467C64.9385 11.6722 64.9124 11.9391 64.8604 12.1475C64.8115 12.3525 64.7285 12.5462 64.6113 12.7285C64.3574 13.1224 63.9115 13.3193 63.2734 13.3193L63.2344 13.4316C63.4395 13.513 63.5762 13.6253 63.6445 13.7686C63.931 14.3936 64.1426 14.7907 64.2793 14.96C64.416 15.126 64.543 15.2594 64.6602 15.3604C64.7773 15.4613 64.945 15.5638 65.1631 15.668C65.3812 15.7721 65.513 15.8405 65.5586 15.873C65.6042 15.9023 65.627 15.9268 65.627 15.9463C65.627 16.2718 65.6709 16.6901 65.7588 17.2012C65.8467 17.7122 65.8906 18.041 65.8906 18.1875C65.8906 18.334 65.8841 18.4398 65.8711 18.5049C65.8613 18.57 65.8369 18.6335 65.7979 18.6953C65.7588 18.7604 65.7018 18.793 65.627 18.793C65.5521 18.793 65.4951 18.7393 65.4561 18.6318C65.4202 18.5244 65.4023 18.3926 65.4023 18.2363C65.4023 18.0801 65.4235 17.8001 65.4658 17.3965C65.5081 16.9961 65.5293 16.6934 65.5293 16.4883C65.5293 16.0814 65.3975 15.8779 65.1338 15.8779C65.0036 15.8779 64.9059 15.9007 64.8408 15.9463C64.779 15.9919 64.748 16.0846 64.748 16.2246C64.748 16.3678 64.7773 16.5941 64.8359 16.9033C64.8945 17.2126 64.9238 17.4453 64.9238 17.6016C64.9238 17.7611 64.8636 17.8408 64.7432 17.8408C64.6227 17.8408 64.5625 17.7611 64.5625 17.6016ZM61.3105 11.0977L60.1582 11.1318C59.6862 11.1318 59.3786 11.0618 59.2354 10.9219L59.1328 11.0146C59.263 11.1416 59.3281 11.3044 59.3281 11.5029V11.8301C59.3281 12.0254 59.263 12.1882 59.1328 12.3184L59.2354 12.416C59.3753 12.2728 59.665 12.2012 60.1045 12.2012L61.3398 12.2451C61.6686 12.2451 61.9225 12.2028 62.1016 12.1182C62.2839 12.0303 62.375 11.8708 62.375 11.6396C62.375 11.4932 62.3245 11.3792 62.2236 11.2979C62.1227 11.2132 62.0007 11.1595 61.8574 11.1367C61.7142 11.1107 61.5319 11.0977 61.3105 11.0977ZM69.7383 17.4258L69.7871 16.9326V16.0195C68.9115 15.974 68.2572 15.8551 67.8242 15.6631C67.3913 15.4678 67.0723 15.2236 66.8672 14.9307C66.7435 14.7581 66.6475 14.5661 66.5791 14.3545C66.514 14.1396 66.4049 13.9785 66.252 13.8711L66.3252 13.7686C66.4717 13.8662 66.6296 13.915 66.7988 13.915C66.9714 13.915 67.1911 13.9085 67.458 13.8955C67.7249 13.8825 68.026 13.8678 68.3613 13.8516C68.6966 13.832 68.9359 13.819 69.0791 13.8125C69.2223 13.806 69.3281 13.7865 69.3965 13.7539C69.4648 13.7181 69.5137 13.6546 69.543 13.5635L69.7627 13.6367C69.7529 13.6628 69.748 13.6969 69.748 13.7393C69.748 13.8467 69.8376 13.9688 70.0166 14.1055C70.1956 14.2422 70.5195 14.3105 70.9883 14.3105C71.304 14.3105 71.5286 14.2568 71.6621 14.1494C71.7207 14.1006 71.75 14.042 71.75 13.9736C71.75 13.8141 71.6621 13.7083 71.4863 13.6562C71.3105 13.6042 71.0973 13.5602 70.8467 13.5244C70.5993 13.4854 70.3503 13.4544 70.0996 13.4316C69.8522 13.4089 69.5837 13.3763 69.2939 13.334C69.0042 13.2917 68.7308 13.2461 68.4736 13.1973C68.2165 13.1452 67.9658 13.0703 67.7217 12.9727C67.4808 12.875 67.2741 12.7611 67.1016 12.6309C66.929 12.4974 66.7891 12.3281 66.6816 12.123C66.5775 11.9147 66.5254 11.6787 66.5254 11.415C66.5254 11.1514 66.5661 10.9105 66.6475 10.6924C66.7321 10.4743 66.846 10.2871 66.9893 10.1309C67.1325 9.97461 67.305 9.83626 67.5068 9.71582C67.7119 9.59538 67.9251 9.49772 68.1465 9.42285C68.3711 9.34798 68.6152 9.28776 68.8789 9.24219C69.3379 9.15755 69.7708 9.11523 70.1777 9.11523C70.5846 9.11523 70.8939 9.12174 71.1055 9.13477C71.3203 9.14453 71.571 9.16569 71.8574 9.19824C72.1471 9.22754 72.4076 9.27799 72.6387 9.34961C72.873 9.41797 73.1042 9.50586 73.332 9.61328C73.8073 9.83464 74.141 10.1781 74.333 10.6436C74.4111 10.8096 74.5186 10.9642 74.6553 11.1074L74.5918 11.2197C74.4551 11.1253 74.2972 11.0781 74.1182 11.0781H74.0547C73.7943 11.0879 73.4215 11.1074 72.9365 11.1367C72.4548 11.1628 72.1439 11.179 72.0039 11.1855C71.8672 11.1921 71.7679 11.2116 71.7061 11.2441C71.6475 11.2767 71.6051 11.3385 71.5791 11.4297L71.3643 11.3711C71.374 11.3418 71.3789 11.3109 71.3789 11.2783C71.3789 11.1416 71.2682 11.0244 71.0469 10.9268C70.8255 10.8258 70.5749 10.7754 70.2949 10.7754C69.748 10.7754 69.4746 10.8828 69.4746 11.0977C69.4746 11.2897 69.8848 11.4297 70.7051 11.5176C70.8971 11.5404 71.1152 11.5632 71.3594 11.5859C72.209 11.6738 72.86 11.7894 73.3125 11.9326C74.263 12.2321 74.7383 12.8034 74.7383 13.6465C74.7383 13.9915 74.6667 14.3024 74.5234 14.5791C74.3802 14.8525 74.193 15.0755 73.9619 15.248C73.734 15.4206 73.4639 15.5638 73.1514 15.6777C72.5882 15.8828 71.9453 15.9854 71.2227 15.9854C71.0273 15.9854 70.9118 15.9837 70.876 15.9805C70.7002 15.9805 70.6123 16.1156 70.6123 16.3857V16.5029C70.6123 16.5908 70.6335 16.7194 70.6758 16.8887C70.7214 17.0612 70.7441 17.1898 70.7441 17.2744C70.7441 17.4469 70.6839 17.5332 70.5635 17.5332C70.5016 17.5332 70.4528 17.5072 70.417 17.4551C70.3844 17.403 70.3682 17.3379 70.3682 17.2598C70.3682 17.1816 70.3877 17.0482 70.4268 16.8594C70.4691 16.6738 70.4902 16.5387 70.4902 16.4541C70.4902 16.3695 70.4886 16.3092 70.4854 16.2734C70.4854 16.2409 70.4805 16.1986 70.4707 16.1465C70.4642 16.0977 70.4512 16.0618 70.4316 16.0391C70.3861 15.9805 70.3079 15.9512 70.1973 15.9512C69.9954 15.9512 69.8945 16.127 69.8945 16.4785L69.9238 17.2793C69.9238 17.4941 69.8929 17.6016 69.8311 17.6016C69.7692 17.6016 69.7383 17.543 69.7383 17.4258ZM75.6855 10.7607L75.71 10.1357C75.71 9.77767 75.64 9.53027 75.5 9.39355L75.5977 9.2959C75.7279 9.42285 75.889 9.48633 76.0811 9.48633H82.4922C82.6908 9.48633 82.8535 9.42285 82.9805 9.2959L83.0781 9.39355C82.9544 9.51725 82.8926 9.68001 82.8926 9.88184L82.8682 10.5068C82.8682 10.8584 82.9382 11.1042 83.0781 11.2441L82.9805 11.3467C82.834 11.1969 82.5964 11.1221 82.2676 11.1221L81.1885 11.1904C80.8467 11.1904 80.6009 11.1156 80.4512 10.9658L80.3486 11.0635C80.4756 11.1872 80.5391 11.3499 80.5391 11.5518V15.6045C80.5391 15.943 80.5684 16.4476 80.627 17.1182C80.6888 17.7887 80.7197 18.2298 80.7197 18.4414C80.7197 18.8125 80.653 18.998 80.5195 18.998C80.3861 18.998 80.3193 18.8662 80.3193 18.6025C80.3193 18.3389 80.3405 17.9808 80.3828 17.5283C80.4284 17.0791 80.4512 16.7406 80.4512 16.5127C80.4512 16.1579 80.3812 15.9805 80.2412 15.9805C80.1729 15.9805 80.1191 16.0212 80.0801 16.1025C80.041 16.1839 80.0215 16.2637 80.0215 16.3418L80.1338 17.3623C80.1338 17.5967 80.0671 17.7139 79.9336 17.7139C79.8652 17.7139 79.8148 17.6797 79.7822 17.6113C79.7497 17.543 79.7334 17.4632 79.7334 17.3721C79.7334 17.2809 79.7627 17.1312 79.8213 16.9229C79.8799 16.7178 79.9092 16.5501 79.9092 16.4199C79.9092 16.2897 79.8522 16.1904 79.7383 16.1221C79.6276 16.0537 79.486 16.0195 79.3135 16.0195C79.1442 16.0195 78.9668 16.0537 78.7812 16.1221C78.599 16.1904 78.4378 16.2962 78.2979 16.4395C78.1579 16.5859 78.0879 16.7292 78.0879 16.8691C78.0879 17.0124 78.109 17.1849 78.1514 17.3867C78.1969 17.5885 78.2197 17.7562 78.2197 17.8896C78.2197 18.0264 78.1595 18.0947 78.0391 18.0947C77.9023 18.0947 77.834 18.0215 77.834 17.875C77.834 17.7318 77.86 17.5495 77.9121 17.3281C77.9642 17.1068 77.9902 16.9408 77.9902 16.8301V15.5605C77.9967 13.7767 78 12.4404 78 11.5518C78 11.3467 78.0618 11.1839 78.1855 11.0635L78.0879 10.9658C77.9447 11.1123 77.707 11.1855 77.375 11.1855L76.3252 11.1221C75.9899 11.1221 75.7474 11.1969 75.5977 11.3467L75.5 11.2441C75.6237 11.1204 75.6855 10.9593 75.6855 10.7607ZM79.8945 18.4512C79.9727 18.8092 80.0117 19.1201 80.0117 19.3838C80.0117 19.4977 79.971 19.5547 79.8896 19.5547C79.8083 19.5547 79.7676 19.5026 79.7676 19.3984C79.7676 19.1055 79.8099 18.7897 79.8945 18.4512Z" fill="#F51A19"/>
</svg>
