<svg width="92" height="25" viewBox="0 0 92 25" fill="none" xmlns="http://www.w3.org/2000/svg">
<path d="M1 12.4445C1 6.12386 6.12386 1 12.4445 1H79.3699C85.6905 1 90.8144 6.12386 90.8144 12.4445C90.8144 18.7651 85.6905 23.8889 79.3699 23.8889H12.4445C6.12385 23.8889 1 18.7651 1 12.4445Z" fill="#F4F41F" stroke="#F51A19" stroke-width="2"/>
<ellipse cx="15.5745" cy="12.4445" rx="7.2681" ry="7.8354" fill="black"/>
<path d="M55.3955 16.3125L55.4102 17.0889C55.4102 17.2451 55.3857 17.3623 55.3369 17.4404C55.2881 17.5218 55.2295 17.5625 55.1611 17.5625C55.0244 17.5625 54.9561 17.4307 54.9561 17.167C54.9561 16.9033 54.9886 16.6104 55.0537 16.2881C55.1188 15.9691 55.1758 15.7493 55.2246 15.6289L57.5684 9.8623C57.6009 9.77767 57.6172 9.69466 57.6172 9.61328C57.6172 9.5319 57.5895 9.45215 57.5342 9.37402L57.6709 9.28613C57.7653 9.42611 57.9118 9.49609 58.1104 9.49609H60.3564C60.5518 9.49609 60.6966 9.42611 60.791 9.28613L60.9326 9.37402C60.8773 9.45215 60.8496 9.52702 60.8496 9.59863C60.8496 9.67025 60.8691 9.75651 60.9082 9.85742L63.3203 15.6338C63.3952 15.8161 63.5107 15.9593 63.667 16.0635L63.6084 16.1562C63.4489 16.0521 63.2715 16 63.0762 16H62.1191C62.1257 16.0716 62.1289 16.1221 62.1289 16.1514C62.1289 16.2588 62.085 16.3125 61.9971 16.3125C61.958 16.3125 61.9222 16.2962 61.8896 16.2637C61.8604 16.2344 61.8457 16.1904 61.8457 16.1318C61.8457 16.0765 61.849 16.0326 61.8555 16H61.2646C61.1214 16 61.0286 16.0781 60.9863 16.2344C60.9342 16.4264 60.9082 16.6462 60.9082 16.8936C60.9082 17.1442 60.9245 17.3721 60.957 17.5771C60.9896 17.7822 61.0059 17.9222 61.0059 17.9971C61.0059 18.0752 60.9863 18.137 60.9473 18.1826C60.9115 18.2314 60.8659 18.2559 60.8105 18.2559C60.7552 18.2559 60.708 18.2331 60.6689 18.1875C60.6299 18.1419 60.6104 18.0785 60.6104 17.9971C60.6104 17.9157 60.6299 17.7578 60.6689 17.5234C60.7113 17.2891 60.7324 17.1133 60.7324 16.9961V15.624C60.6999 15.5361 60.6836 15.4548 60.6836 15.3799C60.6836 15.305 60.7129 15.2253 60.7715 15.1406L60.6445 15.0479C60.5469 15.1878 60.4004 15.2578 60.2051 15.2578H58.1982C58.0029 15.2578 57.8564 15.1895 57.7588 15.0527L57.6318 15.1406C57.6937 15.2285 57.7246 15.3099 57.7246 15.3848C57.7246 15.4596 57.7132 15.5394 57.6904 15.624V15.6289C57.6611 15.7396 57.6465 15.8242 57.6465 15.8828C57.6465 15.9414 57.679 16.0179 57.7441 16.1123L57.6172 16.2051C57.5195 16.0684 57.373 16 57.1777 16H55.4102C55.4004 16.0618 55.3955 16.166 55.3955 16.3125ZM58.7012 13.9053H59.6338C59.8291 13.9053 60.0049 13.9574 60.1611 14.0615L60.2246 13.9688C60.0716 13.8646 59.9609 13.7197 59.8926 13.5342L59.2725 11.9473C59.2008 11.7617 59.1634 11.5729 59.1602 11.3809H59.0967C59.0902 11.5957 59.0576 11.7845 58.999 11.9473L58.4375 13.5293C58.3691 13.7181 58.2601 13.8646 58.1104 13.9688L58.1738 14.0664C58.3268 13.959 58.5026 13.9053 58.7012 13.9053ZM61.8701 17.6162C61.8701 17.3916 61.9124 17.11 61.9971 16.7715C62.0915 17.1621 62.1387 17.416 62.1387 17.5332C62.1387 17.7057 62.0931 17.792 62.002 17.792C61.9141 17.792 61.8701 17.7334 61.8701 17.6162ZM67.0557 17.2061L67.1533 16.5127C67.1533 16.4346 67.137 16.3288 67.1045 16.1953C67.0752 16.0651 67.0329 16 66.9775 16H64.9268C64.7347 16 64.5736 16.0635 64.4434 16.1904L64.3457 16.0928C64.4694 15.9691 64.5312 15.8063 64.5312 15.6045V9.8916C64.5312 9.68652 64.4694 9.52376 64.3457 9.40332L64.4434 9.30078C64.5768 9.43099 64.738 9.49609 64.9268 9.49609H68.9648C70.9115 9.49609 72.1191 10.1292 72.5879 11.3955C72.7181 11.7536 72.7832 12.1605 72.7832 12.6162C72.7832 13.9053 72.4349 14.807 71.7383 15.3213C71.2598 15.6761 70.542 15.8893 69.585 15.9609C69.2139 15.9902 68.7858 16.0033 68.3008 16C67.8158 16 67.5326 16 67.4512 16C67.3958 16 67.3486 16.0781 67.3096 16.2344C67.2705 16.3906 67.251 16.5078 67.251 16.5859L67.334 17.2109C67.334 17.3346 67.2868 17.3965 67.1924 17.3965C67.1012 17.3965 67.0557 17.333 67.0557 17.2061ZM69.8486 13.8467C69.9463 13.7165 70.0228 13.5488 70.0781 13.3438C70.1335 13.1354 70.1611 12.8864 70.1611 12.5967C70.1611 12.3037 70.1123 12.0596 70.0146 11.8643C69.917 11.6689 69.7868 11.5257 69.624 11.4346C69.4613 11.3434 69.2806 11.2767 69.082 11.2344C68.8835 11.1888 68.6751 11.1644 68.457 11.1611C68.2422 11.1546 68.0404 11.1497 67.8516 11.1465C67.3893 11.14 67.0931 11.0716 66.9629 10.9414L66.8652 11.0391C66.9922 11.1628 67.0557 11.3255 67.0557 11.5273C67.0557 12.9824 67.0589 13.9167 67.0654 14.3301H68.1738C68.7272 14.3301 69.1195 14.2812 69.3506 14.1836C69.585 14.0859 69.751 13.9736 69.8486 13.8467ZM76.7334 17.2061L76.8311 16.5127C76.8311 16.4346 76.8148 16.3288 76.7822 16.1953C76.7529 16.0651 76.7106 16 76.6553 16H74.6045C74.4124 16 74.2513 16.0635 74.1211 16.1904L74.0234 16.0928C74.1471 15.9691 74.209 15.8063 74.209 15.6045V9.8916C74.209 9.68652 74.1471 9.52376 74.0234 9.40332L74.1211 9.30078C74.2546 9.43099 74.4157 9.49609 74.6045 9.49609H78.6426C80.5892 9.49609 81.7969 10.1292 82.2656 11.3955C82.3958 11.7536 82.4609 12.1605 82.4609 12.6162C82.4609 13.9053 82.1126 14.807 81.416 15.3213C80.9375 15.6761 80.2197 15.8893 79.2627 15.9609C78.8916 15.9902 78.4635 16.0033 77.9785 16C77.4935 16 77.2103 16 77.1289 16C77.0736 16 77.0264 16.0781 76.9873 16.2344C76.9482 16.3906 76.9287 16.5078 76.9287 16.5859L77.0117 17.2109C77.0117 17.3346 76.9645 17.3965 76.8701 17.3965C76.779 17.3965 76.7334 17.333 76.7334 17.2061ZM79.5264 13.8467C79.624 13.7165 79.7005 13.5488 79.7559 13.3438C79.8112 13.1354 79.8389 12.8864 79.8389 12.5967C79.8389 12.3037 79.79 12.0596 79.6924 11.8643C79.5947 11.6689 79.4645 11.5257 79.3018 11.4346C79.139 11.3434 78.9583 11.2767 78.7598 11.2344C78.5612 11.1888 78.3529 11.1644 78.1348 11.1611C77.9199 11.1546 77.7181 11.1497 77.5293 11.1465C77.0671 11.14 76.7708 11.0716 76.6406 10.9414L76.543 11.0391C76.6699 11.1628 76.7334 11.3255 76.7334 11.5273C76.7334 12.9824 76.7367 13.9167 76.7432 14.3301H77.8516C78.4049 14.3301 78.7972 14.2812 79.0283 14.1836C79.2627 14.0859 79.4287 13.9736 79.5264 13.8467Z" fill="#F51A19"/>
</svg>
