<svg width="92" height="25" viewBox="0 0 92 25" fill="none" xmlns="http://www.w3.org/2000/svg">
<path d="M12.4445 1H79.3699C85.6905 1 90.8144 6.12386 90.8144 12.4445C90.8144 18.7651 85.6905 23.8889 79.3699 23.8889H12.4445C6.12385 23.8889 1 18.7651 1 12.4445C1 6.12386 6.12386 1 12.4445 1Z" fill="#F4F41F" stroke="#F51A19" stroke-width="2"/>
<ellipse cx="77.2681" cy="12.8354" rx="7.2681" ry="7.8354" fill="black"/>
<path d="M15.6328 17.6016L15.7402 16.5908C15.7402 16.1807 15.5726 15.8682 15.2373 15.6533C14.9053 15.4352 14.5553 15.3392 14.1875 15.3652C13.8197 15.388 13.5625 15.5117 13.416 15.7363C13.3411 15.8438 13.3037 15.9707 13.3037 16.1172L13.2793 17.4258C13.2793 17.6048 13.307 17.8701 13.3623 18.2217C13.4176 18.5765 13.4453 18.8434 13.4453 19.0225C13.4453 19.3382 13.3558 19.4961 13.1768 19.4961C12.9977 19.4961 12.9082 19.3431 12.9082 19.0371C12.9082 18.8353 12.9375 18.5456 12.9961 18.168C13.0547 17.7904 13.0872 17.5039 13.0938 17.3086C13.1035 17.1133 13.1084 16.6966 13.1084 16.0586C13.1084 15.8893 13.0563 15.694 12.9521 15.4727C12.848 15.2513 12.6836 14.9469 12.459 14.5596C12.2344 14.1722 12.0505 13.8304 11.9072 13.5342L11.7607 13.4512C11.6826 13.5944 11.5443 13.666 11.3457 13.666L10.9355 13.6807C10.6556 13.6807 10.4456 13.6123 10.3057 13.4756L10.2031 13.5732C10.2129 13.6937 10.2178 13.9508 10.2178 14.3447L10.2129 15.541C10.2129 15.8991 10.2194 16.1628 10.2324 16.332L10.3252 17.0498C10.3252 17.1833 10.2796 17.25 10.1885 17.25C10.0973 17.25 10.0518 17.1882 10.0518 17.0645L10.1299 16.459C10.1299 16.3125 10.0859 16.1953 9.99805 16.1074C9.91341 16.0228 9.80111 15.9805 9.66113 15.9805C9.52441 15.9805 9.40234 16.0407 9.29492 16.1611C9.19076 16.2848 9.13867 16.4443 9.13867 16.6396C9.13867 16.835 9.17448 17.0986 9.24609 17.4307C9.31771 17.766 9.35352 18.0068 9.35352 18.1533C9.35352 18.4593 9.24447 18.6123 9.02637 18.6123C8.80827 18.6123 8.69922 18.4626 8.69922 18.1631C8.69922 18.0231 8.73014 17.779 8.79199 17.4307C8.8571 17.0824 8.88965 16.8057 8.88965 16.6006C8.88965 16.3955 8.84245 16.2262 8.74805 16.0928C8.65365 15.9626 8.54622 15.8975 8.42578 15.8975C8.30534 15.8975 8.2028 15.9382 8.11816 16.0195C8.03353 16.1042 7.99121 16.2083 7.99121 16.332L8.12305 17.4893C8.12305 17.6878 8.0498 17.7871 7.90332 17.7871C7.75684 17.7871 7.68359 17.6862 7.68359 17.4844C7.68359 17.3672 7.71452 17.1621 7.77637 16.8691C7.83822 16.5794 7.86751 16.3532 7.86426 16.1904C7.861 16.0277 7.85938 13.9215 7.85938 9.87207C7.85938 9.67025 7.79753 9.50911 7.67383 9.38867L7.77148 9.29102C7.89844 9.41471 8.05957 9.47656 8.25488 9.47656H12.6299C13.3135 9.47656 13.7725 9.49772 14.0068 9.54004C14.2445 9.5791 14.4512 9.62142 14.627 9.66699C14.806 9.71257 14.9557 9.76953 15.0762 9.83789C15.1999 9.90299 15.3236 9.986 15.4473 10.0869C15.5742 10.1846 15.6751 10.2969 15.75 10.4238C15.9225 10.7135 16.0088 11.0212 16.0088 11.3467C16.0088 11.6722 15.9827 11.9391 15.9307 12.1475C15.8818 12.3525 15.7988 12.5462 15.6816 12.7285C15.4277 13.1224 14.9818 13.3193 14.3438 13.3193L14.3047 13.4316C14.5098 13.513 14.6465 13.6253 14.7148 13.7686C15.0013 14.3936 15.2129 14.7907 15.3496 14.96C15.4863 15.126 15.6133 15.2594 15.7305 15.3604C15.8477 15.4613 16.0153 15.5638 16.2334 15.668C16.4515 15.7721 16.5833 15.8405 16.6289 15.873C16.6745 15.9023 16.6973 15.9268 16.6973 15.9463C16.6973 16.2718 16.7412 16.6901 16.8291 17.2012C16.917 17.7122 16.9609 18.041 16.9609 18.1875C16.9609 18.334 16.9544 18.4398 16.9414 18.5049C16.9316 18.57 16.9072 18.6335 16.8682 18.6953C16.8291 18.7604 16.7721 18.793 16.6973 18.793C16.6224 18.793 16.5654 18.7393 16.5264 18.6318C16.4906 18.5244 16.4727 18.3926 16.4727 18.2363C16.4727 18.0801 16.4938 17.8001 16.5361 17.3965C16.5785 16.9961 16.5996 16.6934 16.5996 16.4883C16.5996 16.0814 16.4678 15.8779 16.2041 15.8779C16.0739 15.8779 15.9762 15.9007 15.9111 15.9463C15.8493 15.9919 15.8184 16.0846 15.8184 16.2246C15.8184 16.3678 15.8477 16.5941 15.9062 16.9033C15.9648 17.2126 15.9941 17.4453 15.9941 17.6016C15.9941 17.7611 15.9339 17.8408 15.8135 17.8408C15.693 17.8408 15.6328 17.7611 15.6328 17.6016ZM12.3809 11.0977L11.2285 11.1318C10.7565 11.1318 10.4489 11.0618 10.3057 10.9219L10.2031 11.0146C10.3333 11.1416 10.3984 11.3044 10.3984 11.5029V11.8301C10.3984 12.0254 10.3333 12.1882 10.2031 12.3184L10.3057 12.416C10.4456 12.2728 10.7354 12.2012 11.1748 12.2012L12.4102 12.2451C12.7389 12.2451 12.9928 12.2028 13.1719 12.1182C13.3542 12.0303 13.4453 11.8708 13.4453 11.6396C13.4453 11.4932 13.3949 11.3792 13.2939 11.2979C13.193 11.2132 13.071 11.1595 12.9277 11.1367C12.7845 11.1107 12.6022 11.0977 12.3809 11.0977ZM20.6084 15.1895L20.5303 14.584V14.5303C20.5986 14.4098 20.6914 14.3496 20.8086 14.3496L24.793 14.3545C24.9915 14.3545 25.1527 14.291 25.2764 14.1641L25.374 14.2617C25.2308 14.4049 25.1592 14.6784 25.1592 15.082C25.1592 15.082 25.1592 15.1764 25.1592 15.3652C25.1592 15.694 25.2308 15.9333 25.374 16.083L25.2764 16.1807C25.1494 16.0537 24.9883 15.9902 24.793 15.9902H19.0166C18.7269 15.9902 18.5137 16.0456 18.377 16.1562C18.2207 16.2865 18.1426 16.6543 18.1426 17.2598C18.1426 17.5039 18.18 17.8636 18.2549 18.3389C18.3298 18.8174 18.3672 19.1771 18.3672 19.418C18.3672 19.7663 18.2435 19.9404 17.9961 19.9404C17.7292 19.9404 17.5957 19.7614 17.5957 19.4033C17.5957 19.1592 17.6494 18.7979 17.7568 18.3193C17.8643 17.8408 17.918 17.4779 17.918 17.2305L17.8936 15.5947V9.90137C17.8936 9.69954 17.8317 9.53841 17.708 9.41797L17.8057 9.31543C17.9391 9.44238 18.1019 9.50586 18.2939 9.50586H24.5635C24.762 9.50586 24.9248 9.44238 25.0518 9.31543L25.1494 9.41797C25.0062 9.5612 24.9346 9.83138 24.9346 10.2285V10.502C24.9346 10.8503 25.0062 11.0944 25.1494 11.2344L25.0518 11.3271C24.889 11.1611 24.5065 11.0781 23.9043 11.0781L21.4775 11.1904C20.8786 11.1904 20.4977 11.1074 20.335 10.9414L20.2324 11.0391C20.3594 11.1628 20.4229 11.3271 20.4229 11.5322C20.4229 11.734 20.3594 11.8968 20.2324 12.0205L20.335 12.1133C20.4912 11.9505 20.82 11.8691 21.3213 11.8691L23.3672 11.9814C23.8717 11.9814 24.2054 11.9001 24.3682 11.7373L24.4707 11.835C24.3275 11.9782 24.2559 12.2533 24.2559 12.6602V12.9336C24.2559 13.2689 24.3275 13.5114 24.4707 13.6611L24.3682 13.7637C24.2119 13.6009 23.8815 13.5195 23.377 13.5195L21.3311 13.627C20.8298 13.627 20.4977 13.5456 20.335 13.3828L20.2373 13.4805C20.335 13.5781 20.3919 13.6953 20.4082 13.832C20.4245 13.9655 20.4342 14.0615 20.4375 14.1201C20.4408 14.1755 20.4408 14.2633 20.4375 14.3838C20.4342 14.501 20.4326 14.571 20.4326 14.5938L20.3496 15.1797C20.3496 15.2969 20.3919 15.3555 20.4766 15.3555C20.5645 15.3555 20.6084 15.3001 20.6084 15.1895ZM26.6436 16.8887L26.6729 16.21V9.8916C26.6729 9.68978 26.6094 9.52702 26.4824 9.40332L26.5801 9.30078C26.7168 9.43099 26.8796 9.49609 27.0684 9.49609H30.1982C30.3968 9.49609 30.5433 9.42611 30.6377 9.28613L30.7646 9.37891C30.7061 9.45378 30.6768 9.5612 30.6768 9.70117C30.6768 9.84115 30.7288 10.0495 30.833 10.3262C30.9372 10.5996 31.0511 10.86 31.1748 11.1074C31.5101 11.7715 31.6777 12.3118 31.6777 12.7285H31.7461C31.7461 12.2956 31.9121 11.7536 32.2441 11.1025C32.5762 10.458 32.7422 9.97298 32.7422 9.64746C32.7422 9.5498 32.7113 9.46029 32.6494 9.37891L32.7812 9.28613C32.8757 9.42611 33.0221 9.49609 33.2207 9.49609H36.3506C36.5459 9.49609 36.7087 9.43099 36.8389 9.30078L36.9365 9.40332C36.8096 9.53027 36.7461 9.69303 36.7461 9.8916V15.6045C36.7461 15.8421 36.7445 16.0049 36.7412 16.0928L36.6436 16.1904C36.5785 16.0635 36.4808 16 36.3506 16H34.7148C34.5521 16 34.4707 16.3369 34.4707 17.0107C34.4707 17.1279 34.4935 17.2988 34.5391 17.5234C34.5879 17.7513 34.6123 17.9189 34.6123 18.0264C34.6123 18.1338 34.5911 18.2152 34.5488 18.2705C34.5098 18.3258 34.4609 18.3535 34.4023 18.3535C34.3438 18.3535 34.2917 18.3242 34.2461 18.2656C34.2038 18.2103 34.1826 18.1322 34.1826 18.0312C34.1826 17.9303 34.2021 17.7676 34.2412 17.543C34.2835 17.3216 34.3047 17.1589 34.3047 17.0547L34.3193 15.6045V11.8203C34.3193 11.6152 34.3356 11.4199 34.3682 11.2344L34.334 11.2295C34.2689 11.5485 34.0964 12.0482 33.8164 12.7285C33.5365 13.4089 33.2777 14.0485 33.04 14.6475C32.8024 15.2464 32.6836 15.6501 32.6836 15.8584L32.7031 16.9668C32.7064 17.1621 32.7454 17.4551 32.8203 17.8457C32.8952 18.2396 32.9326 18.5212 32.9326 18.6904C32.9326 18.863 32.9049 18.9899 32.8496 19.0713C32.7943 19.1559 32.7308 19.1982 32.6592 19.1982C32.5908 19.1982 32.5322 19.1592 32.4834 19.0811C32.4378 19.0062 32.415 18.8792 32.415 18.7002C32.415 18.5212 32.4378 18.2266 32.4834 17.8164C32.529 17.4062 32.5518 17.1084 32.5518 16.9229C32.5518 16.7406 32.542 16.5876 32.5225 16.4639C32.5029 16.3434 32.4785 16.2425 32.4492 16.1611C32.4232 16.083 32.3841 16.0163 32.332 15.9609C32.2799 15.9023 32.2311 15.8584 32.1855 15.8291C32.14 15.7998 32.0814 15.777 32.0098 15.7607C31.6387 15.6761 31.3294 15.7152 31.082 15.8779C30.929 15.9788 30.8525 16.1042 30.8525 16.2539L30.9111 16.7861C30.9111 16.9066 30.8672 16.9668 30.7793 16.9668C30.6914 16.9668 30.6475 16.9017 30.6475 16.7715L30.7305 15.8584C30.7305 15.6403 30.61 15.2367 30.3691 14.6475C30.1315 14.055 29.8727 13.4219 29.5928 12.748C29.3128 12.0742 29.1419 11.568 29.0801 11.2295L29.0508 11.2344C29.0833 11.4199 29.0996 11.6152 29.0996 11.8203V16.6445C29.0996 16.6999 29.124 16.9196 29.1729 17.3037C29.2249 17.6878 29.251 17.9596 29.251 18.1191C29.251 18.2786 29.2168 18.4007 29.1484 18.4854C29.0833 18.5732 29.0068 18.6172 28.9189 18.6172C28.8311 18.6172 28.7546 18.5765 28.6895 18.4951C28.6276 18.4137 28.5967 18.3014 28.5967 18.1582C28.5967 18.0182 28.6211 17.7692 28.6699 17.4111C28.722 17.0563 28.748 16.8105 28.748 16.6738L28.7529 16.5322C28.7529 16.4476 28.7318 16.3857 28.6895 16.3467C28.6048 16.2653 28.276 16.2246 27.7031 16.2246C27.1335 16.2246 26.8486 16.2279 26.8486 16.2344L26.8633 16.8789C26.8633 16.9538 26.8258 16.9912 26.751 16.9912C26.6794 16.9912 26.6436 16.957 26.6436 16.8887ZM42.5225 16.791L42.5566 16.3223C42.5566 16.2409 42.5176 16.1774 42.4395 16.1318C42.3613 16.0895 42.2767 16.0684 42.1855 16.0684C42.0944 16.0684 42.013 16.0928 41.9414 16.1416C41.8698 16.1904 41.834 16.2604 41.834 16.3516V17.4746C41.834 17.6374 41.8682 17.8766 41.9365 18.1924C42.0049 18.5081 42.0391 18.7327 42.0391 18.8662C42.0391 19.0029 42.0098 19.1152 41.9512 19.2031C41.8926 19.291 41.8112 19.335 41.707 19.335C41.6061 19.335 41.5296 19.2894 41.4775 19.1982C41.4255 19.1071 41.3994 18.9883 41.3994 18.8418C41.3994 18.6953 41.4368 18.4414 41.5117 18.0801C41.5866 17.7188 41.624 17.4388 41.624 17.2402C41.624 16.4362 41.4743 16.0342 41.1748 16.0342C40.7712 16.0342 40.5693 16.0179 40.5693 15.9854V15.9951C40.5693 16.2197 40.6182 16.5485 40.7158 16.9814C40.8167 17.4176 40.8672 17.7301 40.8672 17.9189C40.8672 18.1077 40.833 18.2624 40.7646 18.3828C40.6963 18.5065 40.5905 18.5684 40.4473 18.5684C40.3073 18.5684 40.1966 18.5098 40.1152 18.3926C40.0371 18.2754 39.998 18.1224 39.998 17.9336C39.998 17.748 40.0452 17.4274 40.1396 16.9717C40.234 16.5192 40.2812 16.1758 40.2812 15.9414C39.5098 15.6973 38.9287 15.2985 38.5381 14.7451C38.1507 14.1917 37.957 13.5081 37.957 12.6943C37.957 11.0081 38.8066 9.94368 40.5059 9.50098C41.056 9.35775 41.624 9.28613 42.21 9.28613C42.7992 9.28613 43.2988 9.31868 43.709 9.38379C44.1224 9.44889 44.5212 9.56445 44.9053 9.73047C45.2926 9.89323 45.6214 10.1016 45.8916 10.3555C46.165 10.6061 46.3831 10.9316 46.5459 11.332C46.7087 11.7292 46.79 12.1833 46.79 12.6943C46.79 13.736 46.4971 14.5433 45.9111 15.1162C45.3252 15.6859 44.5016 16.0358 43.4404 16.166C43.4274 16.1888 43.4209 16.2246 43.4209 16.2734L43.4453 16.542C43.4453 16.708 43.3997 16.791 43.3086 16.791C43.2174 16.791 43.1719 16.7113 43.1719 16.5518L43.1865 16.2783C43.1865 16.1807 43.1165 16.1318 42.9766 16.1318C42.9635 16.1611 42.957 16.2165 42.957 16.2979L42.9814 16.7715C42.9814 16.8691 42.9635 16.9635 42.9277 17.0547C42.8919 17.1458 42.8317 17.1914 42.7471 17.1914C42.5973 17.1914 42.5225 17.0579 42.5225 16.791ZM40.6768 12.6992C40.6768 13.8906 41.2432 14.4863 42.376 14.4863C43.5088 14.4863 44.0752 13.8906 44.0752 12.6992C44.0752 12.1523 43.9287 11.734 43.6357 11.4443C43.3428 11.1546 42.9229 11.0098 42.376 11.0098C41.8291 11.0098 41.4092 11.1546 41.1162 11.4443C40.8232 11.734 40.6768 12.1523 40.6768 12.6992ZM50.3203 17.2793C50.3203 17.3867 50.2715 17.4404 50.1738 17.4404C50.125 17.4404 50.0859 17.4225 50.0566 17.3867C50.0273 17.3542 50.0127 17.2907 50.0127 17.1963C50.0127 17.1019 50.0355 16.9163 50.0811 16.6396C50.1266 16.3662 50.1494 16.127 50.1494 15.9219C50.1494 15.7135 50.0957 15.4873 49.9883 15.2432L47.5664 9.67188C47.4948 9.49609 47.3792 9.35449 47.2197 9.24707L47.2832 9.1543C47.4362 9.25521 47.612 9.30566 47.8105 9.30566H49.5146C49.7132 9.30566 49.8564 9.2373 49.9443 9.10059L50.0859 9.18848C50.0306 9.26009 50.0029 9.33008 50.0029 9.39844C50.0029 9.46354 50.0469 9.61328 50.1348 9.84766C50.2259 10.082 50.3447 10.3766 50.4912 10.7314C50.6377 11.083 50.7744 11.4102 50.9014 11.7129C51.0316 12.0156 51.1683 12.333 51.3115 12.665C51.4548 12.9971 51.5345 13.1826 51.5508 13.2217C51.5671 13.1826 51.6468 12.9971 51.79 12.665C51.9333 12.333 52.0684 12.0156 52.1953 11.7129C52.3255 11.4102 52.4639 11.0814 52.6104 10.7266C52.9359 9.94206 53.0986 9.50586 53.0986 9.41797C53.0986 9.33008 53.0726 9.25358 53.0205 9.18848L53.1572 9.10059C53.2451 9.2373 53.3883 9.30566 53.5869 9.30566H55.2959C55.4977 9.30566 55.6751 9.25521 55.8281 9.1543L55.8867 9.24707C55.7272 9.35449 55.6117 9.49609 55.54 9.67188L53.084 15.4824C53.0417 15.5801 53.0205 15.8145 53.0205 16.1855C53.0205 16.5566 53.0579 16.9684 53.1328 17.4209C53.2109 17.8766 53.25 18.2152 53.25 18.4365C53.25 18.7523 53.1361 18.9102 52.9082 18.9102C52.6836 18.9102 52.5713 18.7539 52.5713 18.4414C52.5713 18.2298 52.612 17.9157 52.6934 17.499C52.7747 17.0856 52.8154 16.7064 52.8154 16.3613C52.8154 16.0163 52.7731 15.8438 52.6885 15.8438H50.3252C50.2731 15.8438 50.2471 15.9642 50.2471 16.2051L50.3203 17.2793ZM59.3975 15.1895L59.3193 14.584V14.5303C59.3877 14.4098 59.4805 14.3496 59.5977 14.3496L63.582 14.3545C63.7806 14.3545 63.9417 14.291 64.0654 14.1641L64.1631 14.2617C64.0199 14.4049 63.9482 14.6784 63.9482 15.082C63.9482 15.082 63.9482 15.1764 63.9482 15.3652C63.9482 15.694 64.0199 15.9333 64.1631 16.083L64.0654 16.1807C63.9385 16.0537 63.7773 15.9902 63.582 15.9902H57.8057C57.516 15.9902 57.3027 16.0456 57.166 16.1562C57.0098 16.2865 56.9316 16.6543 56.9316 17.2598C56.9316 17.5039 56.9691 17.8636 57.0439 18.3389C57.1188 18.8174 57.1562 19.1771 57.1562 19.418C57.1562 19.7663 57.0326 19.9404 56.7852 19.9404C56.5182 19.9404 56.3848 19.7614 56.3848 19.4033C56.3848 19.1592 56.4385 18.7979 56.5459 18.3193C56.6533 17.8408 56.707 17.4779 56.707 17.2305L56.6826 15.5947V9.90137C56.6826 9.69954 56.6208 9.53841 56.4971 9.41797L56.5947 9.31543C56.7282 9.44238 56.891 9.50586 57.083 9.50586H63.3525C63.5511 9.50586 63.7139 9.44238 63.8408 9.31543L63.9385 9.41797C63.7952 9.5612 63.7236 9.83138 63.7236 10.2285V10.502C63.7236 10.8503 63.7952 11.0944 63.9385 11.2344L63.8408 11.3271C63.6781 11.1611 63.2956 11.0781 62.6934 11.0781L60.2666 11.1904C59.6676 11.1904 59.2868 11.1074 59.124 10.9414L59.0215 11.0391C59.1484 11.1628 59.2119 11.3271 59.2119 11.5322C59.2119 11.734 59.1484 11.8968 59.0215 12.0205L59.124 12.1133C59.2803 11.9505 59.609 11.8691 60.1104 11.8691L62.1562 11.9814C62.6608 11.9814 62.9945 11.9001 63.1572 11.7373L63.2598 11.835C63.1165 11.9782 63.0449 12.2533 63.0449 12.6602V12.9336C63.0449 13.2689 63.1165 13.5114 63.2598 13.6611L63.1572 13.7637C63.001 13.6009 62.6706 13.5195 62.166 13.5195L60.1201 13.627C59.6188 13.627 59.2868 13.5456 59.124 13.3828L59.0264 13.4805C59.124 13.5781 59.181 13.6953 59.1973 13.832C59.2135 13.9655 59.2233 14.0615 59.2266 14.1201C59.2298 14.1755 59.2298 14.2633 59.2266 14.3838C59.2233 14.501 59.2217 14.571 59.2217 14.5938L59.1387 15.1797C59.1387 15.2969 59.181 15.3555 59.2656 15.3555C59.3535 15.3555 59.3975 15.3001 59.3975 15.1895Z" fill="#F51A19"/>
</svg>
