<svg width="92" height="25" viewBox="0 0 92 25" fill="none" xmlns="http://www.w3.org/2000/svg">
<path d="M12.4445 1H79.3699C85.6905 1 90.8144 6.12386 90.8144 12.4445C90.8144 18.7651 85.6905 23.8889 79.3699 23.8889H12.4445C6.12385 23.8889 1 18.7651 1 12.4445C1 6.12386 6.12386 1 12.4445 1Z" fill="#F4F41F" stroke="#F51A19" stroke-width="2"/>
<ellipse cx="77.2681" cy="12.8354" rx="7.2681" ry="7.8354" fill="black"/>
<path d="M16.6807 14.7109L16.6611 15.3457C16.6611 15.7005 16.7327 15.9495 16.876 16.0928L16.7734 16.1904C16.6497 16.0635 16.487 16 16.2852 16H14.8643C14.8675 16.0456 14.8691 16.1058 14.8691 16.1807C14.8691 16.363 14.8236 16.4541 14.7324 16.4541C14.6413 16.4541 14.5957 16.3516 14.5957 16.1465C14.5957 16.0846 14.5973 16.0358 14.6006 16H10.2305C10.1523 16 10.084 16.14 10.0254 16.4199C9.97005 16.7031 9.94238 16.9294 9.94238 17.0986C9.94238 17.2679 9.98145 17.5706 10.0596 18.0068C10.1377 18.4463 10.1768 18.7881 10.1768 19.0322C10.1768 19.2796 10.0807 19.4033 9.88867 19.4033C9.68034 19.4033 9.57617 19.2764 9.57617 19.0225C9.57617 18.7686 9.62012 18.4154 9.70801 17.9629C9.7959 17.5137 9.83984 17.1751 9.83984 16.9473L9.83496 9.8916C9.83496 9.69303 9.76986 9.53027 9.63965 9.40332L9.74219 9.30078C9.87565 9.43099 10.0384 9.49609 10.2305 9.49609H11.9785C12.1771 9.49609 12.3398 9.43099 12.4668 9.30078L12.5693 9.40332C12.4391 9.53027 12.374 9.69303 12.374 9.8916V13.9199C12.374 14.1152 12.3105 14.2764 12.1836 14.4033L12.2861 14.5059C12.4521 14.3398 12.8151 14.2568 13.375 14.2568L15.6895 14.374C16.2461 14.374 16.6074 14.291 16.7734 14.125L16.876 14.2227C16.7458 14.3496 16.6807 14.5124 16.6807 14.7109ZM14.8984 18.168C14.8984 18.3014 14.8431 18.3682 14.7324 18.3682C14.6217 18.3682 14.5664 18.2884 14.5664 18.1289C14.5664 17.9889 14.5924 17.8164 14.6445 17.6113C14.6999 17.4095 14.7292 17.3005 14.7324 17.2842C14.7389 17.3167 14.7552 17.3835 14.7812 17.4844C14.8073 17.5853 14.8268 17.6634 14.8398 17.7188C14.8789 17.8848 14.8984 18.0345 14.8984 18.168ZM17.5596 16.3125L17.5742 17.0889C17.5742 17.2451 17.5498 17.3623 17.501 17.4404C17.4521 17.5218 17.3936 17.5625 17.3252 17.5625C17.1885 17.5625 17.1201 17.4307 17.1201 17.167C17.1201 16.9033 17.1527 16.6104 17.2178 16.2881C17.2829 15.9691 17.3398 15.7493 17.3887 15.6289L19.7324 9.8623C19.765 9.77767 19.7812 9.69466 19.7812 9.61328C19.7812 9.5319 19.7536 9.45215 19.6982 9.37402L19.835 9.28613C19.9294 9.42611 20.0758 9.49609 20.2744 9.49609H22.5205C22.7158 9.49609 22.8607 9.42611 22.9551 9.28613L23.0967 9.37402C23.0413 9.45215 23.0137 9.52702 23.0137 9.59863C23.0137 9.67025 23.0332 9.75651 23.0723 9.85742L25.4844 15.6338C25.5592 15.8161 25.6748 15.9593 25.8311 16.0635L25.7725 16.1562C25.613 16.0521 25.4355 16 25.2402 16H24.2832C24.2897 16.0716 24.293 16.1221 24.293 16.1514C24.293 16.2588 24.249 16.3125 24.1611 16.3125C24.1221 16.3125 24.0863 16.2962 24.0537 16.2637C24.0244 16.2344 24.0098 16.1904 24.0098 16.1318C24.0098 16.0765 24.013 16.0326 24.0195 16H23.4287C23.2855 16 23.1927 16.0781 23.1504 16.2344C23.0983 16.4264 23.0723 16.6462 23.0723 16.8936C23.0723 17.1442 23.0885 17.3721 23.1211 17.5771C23.1536 17.7822 23.1699 17.9222 23.1699 17.9971C23.1699 18.0752 23.1504 18.137 23.1113 18.1826C23.0755 18.2314 23.0299 18.2559 22.9746 18.2559C22.9193 18.2559 22.8721 18.2331 22.833 18.1875C22.7939 18.1419 22.7744 18.0785 22.7744 17.9971C22.7744 17.9157 22.7939 17.7578 22.833 17.5234C22.8753 17.2891 22.8965 17.1133 22.8965 16.9961V15.624C22.8639 15.5361 22.8477 15.4548 22.8477 15.3799C22.8477 15.305 22.877 15.2253 22.9355 15.1406L22.8086 15.0479C22.7109 15.1878 22.5645 15.2578 22.3691 15.2578H20.3623C20.167 15.2578 20.0205 15.1895 19.9229 15.0527L19.7959 15.1406C19.8577 15.2285 19.8887 15.3099 19.8887 15.3848C19.8887 15.4596 19.8773 15.5394 19.8545 15.624V15.6289C19.8252 15.7396 19.8105 15.8242 19.8105 15.8828C19.8105 15.9414 19.8431 16.0179 19.9082 16.1123L19.7812 16.2051C19.6836 16.0684 19.5371 16 19.3418 16H17.5742C17.5645 16.0618 17.5596 16.166 17.5596 16.3125ZM20.8652 13.9053H21.7979C21.9932 13.9053 22.1689 13.9574 22.3252 14.0615L22.3887 13.9688C22.2357 13.8646 22.125 13.7197 22.0566 13.5342L21.4365 11.9473C21.3649 11.7617 21.3275 11.5729 21.3242 11.3809H21.2607C21.2542 11.5957 21.2217 11.7845 21.1631 11.9473L20.6016 13.5293C20.5332 13.7181 20.4242 13.8646 20.2744 13.9688L20.3379 14.0664C20.4909 13.959 20.6667 13.9053 20.8652 13.9053ZM24.0342 17.6162C24.0342 17.3916 24.0765 17.11 24.1611 16.7715C24.2555 17.1621 24.3027 17.416 24.3027 17.5332C24.3027 17.7057 24.2572 17.792 24.166 17.792C24.0781 17.792 24.0342 17.7334 24.0342 17.6162ZM29.5176 17.4258L29.5664 16.9326V16.0195C28.6908 15.974 28.0365 15.8551 27.6035 15.6631C27.1706 15.4678 26.8516 15.2236 26.6465 14.9307C26.5228 14.7581 26.4268 14.5661 26.3584 14.3545C26.2933 14.1396 26.1842 13.9785 26.0312 13.8711L26.1045 13.7686C26.251 13.8662 26.4089 13.915 26.5781 13.915C26.7507 13.915 26.9704 13.9085 27.2373 13.8955C27.5042 13.8825 27.8053 13.8678 28.1406 13.8516C28.4759 13.832 28.7152 13.819 28.8584 13.8125C29.0016 13.806 29.1074 13.7865 29.1758 13.7539C29.2441 13.7181 29.293 13.6546 29.3223 13.5635L29.542 13.6367C29.5322 13.6628 29.5273 13.6969 29.5273 13.7393C29.5273 13.8467 29.6169 13.9688 29.7959 14.1055C29.9749 14.2422 30.2988 14.3105 30.7676 14.3105C31.0833 14.3105 31.3079 14.2568 31.4414 14.1494C31.5 14.1006 31.5293 14.042 31.5293 13.9736C31.5293 13.8141 31.4414 13.7083 31.2656 13.6562C31.0898 13.6042 30.8766 13.5602 30.626 13.5244C30.3786 13.4854 30.1296 13.4544 29.8789 13.4316C29.6315 13.4089 29.363 13.3763 29.0732 13.334C28.7835 13.2917 28.5101 13.2461 28.2529 13.1973C27.9958 13.1452 27.7451 13.0703 27.501 12.9727C27.2601 12.875 27.0534 12.7611 26.8809 12.6309C26.7083 12.4974 26.5684 12.3281 26.4609 12.123C26.3568 11.9147 26.3047 11.6787 26.3047 11.415C26.3047 11.1514 26.3454 10.9105 26.4268 10.6924C26.5114 10.4743 26.6253 10.2871 26.7686 10.1309C26.9118 9.97461 27.0843 9.83626 27.2861 9.71582C27.4912 9.59538 27.7044 9.49772 27.9258 9.42285C28.1504 9.34798 28.3945 9.28776 28.6582 9.24219C29.1172 9.15755 29.5501 9.11523 29.957 9.11523C30.3639 9.11523 30.6732 9.12174 30.8848 9.13477C31.0996 9.14453 31.3503 9.16569 31.6367 9.19824C31.9264 9.22754 32.1868 9.27799 32.418 9.34961C32.6523 9.41797 32.8835 9.50586 33.1113 9.61328C33.5866 9.83464 33.9202 10.1781 34.1123 10.6436C34.1904 10.8096 34.2979 10.9642 34.4346 11.1074L34.3711 11.2197C34.2344 11.1253 34.0765 11.0781 33.8975 11.0781H33.834C33.5736 11.0879 33.2008 11.1074 32.7158 11.1367C32.234 11.1628 31.9232 11.179 31.7832 11.1855C31.6465 11.1921 31.5472 11.2116 31.4854 11.2441C31.4268 11.2767 31.3844 11.3385 31.3584 11.4297L31.1436 11.3711C31.1533 11.3418 31.1582 11.3109 31.1582 11.2783C31.1582 11.1416 31.0475 11.0244 30.8262 10.9268C30.6048 10.8258 30.3542 10.7754 30.0742 10.7754C29.5273 10.7754 29.2539 10.8828 29.2539 11.0977C29.2539 11.2897 29.6641 11.4297 30.4844 11.5176C30.6764 11.5404 30.8945 11.5632 31.1387 11.5859C31.9883 11.6738 32.6393 11.7894 33.0918 11.9326C34.0423 12.2321 34.5176 12.8034 34.5176 13.6465C34.5176 13.9915 34.446 14.3024 34.3027 14.5791C34.1595 14.8525 33.9723 15.0755 33.7412 15.248C33.5133 15.4206 33.2432 15.5638 32.9307 15.6777C32.3675 15.8828 31.7246 15.9854 31.002 15.9854C30.8066 15.9854 30.6911 15.9837 30.6553 15.9805C30.4795 15.9805 30.3916 16.1156 30.3916 16.3857V16.5029C30.3916 16.5908 30.4128 16.7194 30.4551 16.8887C30.5007 17.0612 30.5234 17.1898 30.5234 17.2744C30.5234 17.4469 30.4632 17.5332 30.3428 17.5332C30.2809 17.5332 30.2321 17.5072 30.1963 17.4551C30.1637 17.403 30.1475 17.3379 30.1475 17.2598C30.1475 17.1816 30.167 17.0482 30.2061 16.8594C30.2484 16.6738 30.2695 16.5387 30.2695 16.4541C30.2695 16.3695 30.2679 16.3092 30.2646 16.2734C30.2646 16.2409 30.2598 16.1986 30.25 16.1465C30.2435 16.0977 30.2305 16.0618 30.2109 16.0391C30.1654 15.9805 30.0872 15.9512 29.9766 15.9512C29.7747 15.9512 29.6738 16.127 29.6738 16.4785L29.7031 17.2793C29.7031 17.4941 29.6722 17.6016 29.6104 17.6016C29.5485 17.6016 29.5176 17.543 29.5176 17.4258ZM35.4648 10.7607L35.4893 10.1357C35.4893 9.77767 35.4193 9.53027 35.2793 9.39355L35.377 9.2959C35.5072 9.42285 35.6683 9.48633 35.8604 9.48633H42.2715C42.4701 9.48633 42.6328 9.42285 42.7598 9.2959L42.8574 9.39355C42.7337 9.51725 42.6719 9.68001 42.6719 9.88184L42.6475 10.5068C42.6475 10.8584 42.7174 11.1042 42.8574 11.2441L42.7598 11.3467C42.6133 11.1969 42.3757 11.1221 42.0469 11.1221L40.9678 11.1904C40.626 11.1904 40.3802 11.1156 40.2305 10.9658L40.1279 11.0635C40.2549 11.1872 40.3184 11.3499 40.3184 11.5518V15.6045C40.3184 15.943 40.3477 16.4476 40.4062 17.1182C40.4681 17.7887 40.499 18.2298 40.499 18.4414C40.499 18.8125 40.4323 18.998 40.2988 18.998C40.1654 18.998 40.0986 18.8662 40.0986 18.6025C40.0986 18.3389 40.1198 17.9808 40.1621 17.5283C40.2077 17.0791 40.2305 16.7406 40.2305 16.5127C40.2305 16.1579 40.1605 15.9805 40.0205 15.9805C39.9521 15.9805 39.8984 16.0212 39.8594 16.1025C39.8203 16.1839 39.8008 16.2637 39.8008 16.3418L39.9131 17.3623C39.9131 17.5967 39.8464 17.7139 39.7129 17.7139C39.6445 17.7139 39.5941 17.6797 39.5615 17.6113C39.529 17.543 39.5127 17.4632 39.5127 17.3721C39.5127 17.2809 39.542 17.1312 39.6006 16.9229C39.6592 16.7178 39.6885 16.5501 39.6885 16.4199C39.6885 16.2897 39.6315 16.1904 39.5176 16.1221C39.4069 16.0537 39.2653 16.0195 39.0928 16.0195C38.9235 16.0195 38.7461 16.0537 38.5605 16.1221C38.3783 16.1904 38.2171 16.2962 38.0771 16.4395C37.9372 16.5859 37.8672 16.7292 37.8672 16.8691C37.8672 17.0124 37.8883 17.1849 37.9307 17.3867C37.9762 17.5885 37.999 17.7562 37.999 17.8896C37.999 18.0264 37.9388 18.0947 37.8184 18.0947C37.6816 18.0947 37.6133 18.0215 37.6133 17.875C37.6133 17.7318 37.6393 17.5495 37.6914 17.3281C37.7435 17.1068 37.7695 16.9408 37.7695 16.8301V15.5605C37.776 13.7767 37.7793 12.4404 37.7793 11.5518C37.7793 11.3467 37.8411 11.1839 37.9648 11.0635L37.8672 10.9658C37.724 11.1123 37.4863 11.1855 37.1543 11.1855L36.1045 11.1221C35.7692 11.1221 35.5267 11.1969 35.377 11.3467L35.2793 11.2441C35.403 11.1204 35.4648 10.9593 35.4648 10.7607ZM39.6738 18.4512C39.752 18.8092 39.791 19.1201 39.791 19.3838C39.791 19.4977 39.7503 19.5547 39.6689 19.5547C39.5876 19.5547 39.5469 19.5026 39.5469 19.3984C39.5469 19.1055 39.5892 18.7897 39.6738 18.4512Z" fill="#F51A19"/>
</svg>
