<svg width="209" height="53" viewBox="0 0 209 53" fill="none" xmlns="http://www.w3.org/2000/svg">
<path d="M20.8438 1.375H28.625V48.7188L36.125 49.5625C36.3125 49.5625 36.5312 49.5938 36.7812 49.6562C38.2812 49.9062 39.0312 50.6875 39.0312 52H4.15625V49.5625L16.0625 48.7188V8.5L2.5625 16.6562L0.875 14.0312L20.8438 1.375ZM67.4375 0.4375C72.5625 0.4375 76.9688 1.6875 80.6562 4.1875C87.1562 8.6875 90.4062 16.25 90.4062 26.875C90.4062 33.3125 88.9375 38.7812 86 43.2812C81.6875 49.7188 75.3438 52.9375 66.9688 52.9375C61.4688 52.9375 56.7812 51.4688 52.9062 48.5312C46.7812 43.8438 43.7188 36.5 43.7188 26.5C43.7188 20.0625 45.25 14.5625 48.3125 10C52.625 3.625 59 0.4375 67.4375 0.4375ZM67.25 50.4062C69.25 50.4062 70.9375 49.7812 72.3125 48.5312C75.375 45.7188 76.9062 38.3438 76.9062 26.4062C76.9062 21.4688 76.625 17.3438 76.0625 14.0312C74.8125 6.65625 71.8438 2.96875 67.1562 2.96875C65.5938 2.96875 64.25 3.3125 63.125 4C59.1875 6.5 57.2188 14.125 57.2188 26.875C57.2188 33.8125 57.7188 39.0938 58.7188 42.7188C60.1562 47.8438 63 50.4062 67.25 50.4062ZM109.719 20.875C109.719 22 109.469 23.0625 108.969 24.0625C107.719 26.3125 105.75 27.4375 103.062 27.4375C102 27.4375 101 27.1875 100.062 26.6875C97.6875 25.5 96.5 23.5625 96.5 20.875C96.5 19.8125 96.75 18.7812 97.25 17.7812C98.5 15.4062 100.438 14.2188 103.062 14.2188C104.125 14.2188 105.156 14.4688 106.156 14.9688C108.531 16.2812 109.719 18.25 109.719 20.875ZM109.719 42.25C109.719 43.375 109.469 44.4375 108.969 45.4375C107.719 47.6875 105.75 48.8125 103.062 48.8125C102 48.8125 101 48.5625 100.062 48.0625C97.6875 46.875 96.5 44.9375 96.5 42.25C96.5 41.0625 96.7812 39.9062 97.3438 38.7812C98.6562 36.3438 100.562 35.125 103.062 35.125C104.25 35.125 105.406 35.5 106.531 36.25C108.656 37.6875 109.719 39.6875 109.719 42.25ZM121.25 42.625H142.812C144.25 42.625 145.312 42.5625 146 42.4375C147.562 42.0625 148.812 40.75 149.75 38.5L151.438 34.375H153.594L153.5 52H115.344V49.2812C115.344 46.4688 115.844 44 116.844 41.875C118.156 39 120.906 36.2812 125.094 33.7188C129.594 31.0312 132.219 29.4062 132.969 28.8438C137.719 25.2188 140.094 20.0625 140.094 13.375C140.094 12 139.969 10.6875 139.719 9.4375C138.719 5.125 136.375 2.96875 132.688 2.96875C131.188 2.96875 129.969 3.34375 129.031 4.09375C127.969 5.03125 127.375 7.1875 127.25 10.5625C127.188 12.1875 127.094 13.375 126.969 14.125C126.406 17.125 124.469 18.625 121.156 18.625C120.531 18.625 119.875 18.5312 119.188 18.3438C116.812 17.4688 115.625 15.4062 115.625 12.1562C115.625 9.65625 116.469 7.46875 118.156 5.59375C121.281 2.15625 126.375 0.4375 133.438 0.4375C136.625 0.4375 139.562 0.84375 142.25 1.65625C149.25 3.71875 152.75 7.90625 152.75 14.2188C152.75 17.7812 151.219 21.0312 148.156 23.9688C145.719 26.2812 141 29.0625 134 32.3125C131.438 33.5 129.562 34.4062 128.375 35.0312C123.625 37.5312 121.25 40.0625 121.25 42.625ZM185.75 0.4375C190.875 0.4375 195.281 1.6875 198.969 4.1875C205.469 8.6875 208.719 16.25 208.719 26.875C208.719 33.3125 207.25 38.7812 204.312 43.2812C200 49.7188 193.656 52.9375 185.281 52.9375C179.781 52.9375 175.094 51.4688 171.219 48.5312C165.094 43.8438 162.031 36.5 162.031 26.5C162.031 20.0625 163.562 14.5625 166.625 10C170.938 3.625 177.312 0.4375 185.75 0.4375ZM185.562 50.4062C187.562 50.4062 189.25 49.7812 190.625 48.5312C193.688 45.7188 195.219 38.3438 195.219 26.4062C195.219 21.4688 194.938 17.3438 194.375 14.0312C193.125 6.65625 190.156 2.96875 185.469 2.96875C183.906 2.96875 182.562 3.3125 181.438 4C177.5 6.5 175.531 14.125 175.531 26.875C175.531 33.8125 176.031 39.0938 177.031 42.7188C178.469 47.8438 181.312 50.4062 185.562 50.4062Z" fill="white"/>
</svg>
