<svg width="208" height="35" viewBox="0 0 208 35" fill="none" xmlns="http://www.w3.org/2000/svg">
<path d="M0.5 17.5C0.5 8.11116 8.11116 0.5 17.5 0.5H182.221C191.61 0.5 199.221 8.11116 199.221 17.5C199.221 26.8888 191.61 34.5 182.221 34.5H17.5C8.11118 34.5 0.5 26.8888 0.5 17.5Z" fill="white" fill-opacity="0.72" stroke="white"/>
<path d="M35.7734 22.0859C34.2891 22.8516 32.7422 23.2344 31.1328 23.2344C28.8672 23.2344 27.0391 22.5078 25.6484 21.0547C24.3516 19.6797 23.7031 17.9844 23.7031 15.9688C23.7031 14.2656 24.1953 12.7578 25.1797 11.4453C26.5703 9.61719 28.5781 8.70312 31.2031 8.70312C32.8438 8.70312 34.3438 9.07031 35.7031 9.80469C35.6875 9.55469 35.6953 9.35156 35.7266 9.19531C35.8047 8.94531 36.0469 8.82031 36.4531 8.82031L36.5234 13.4375H35.7031C35.4531 12.5312 35.1641 11.7891 34.8359 11.2109C34.1328 10.0078 33.0469 9.40625 31.5781 9.40625C28.7969 9.42188 27.3984 11.5703 27.3828 15.8516C27.3828 17.1641 27.4766 18.2656 27.6641 19.1562C28.1641 21.4062 29.4062 22.5312 31.3906 22.5312C31.8906 22.5312 32.3438 22.4766 32.75 22.3672C34.2188 21.9609 35.2422 20.6719 35.8203 18.5H36.5938V23.1172C36.4219 23.1172 36.2812 23.1016 36.1719 23.0703C35.8906 23.0078 35.7578 22.6797 35.7734 22.0859ZM40.9766 17.9141C40.9766 19.3828 41.0703 20.4531 41.2578 21.125C41.5391 22.125 42.1641 22.625 43.1328 22.625C43.6797 22.625 44.125 22.4609 44.4688 22.1328C45.0625 21.5391 45.3594 20.1016 45.3594 17.8203C45.3594 16.3984 45.2656 15.3594 45.0781 14.7031C44.7969 13.6875 44.1562 13.1797 43.1562 13.1797C42.5625 13.1797 42.1016 13.3594 41.7734 13.7188C41.2422 14.3281 40.9766 15.7266 40.9766 17.9141ZM43.2734 12.5703C44.6172 12.5703 45.7656 12.9375 46.7188 13.6719C47.9531 14.6562 48.5703 16.0234 48.5703 17.7734C48.5703 19.0859 48.1797 20.2422 47.3984 21.2422C46.3516 22.5703 44.9062 23.2344 43.0625 23.2344C41.7188 23.2344 40.5625 22.8281 39.5938 22.0156C38.375 20.9844 37.7656 19.5859 37.7656 17.8203C37.7656 16.5703 38.125 15.4766 38.8438 14.5391C39.875 13.2266 41.3516 12.5703 43.2734 12.5703ZM54.6641 22.3906C54.7578 22.3906 54.8438 22.3984 54.9219 22.4141C55.125 22.4453 55.2266 22.6406 55.2266 23H49.7422V22.3906C49.8672 22.3906 49.9844 22.3828 50.0938 22.3672C50.7656 22.2891 51.1016 21.8906 51.1016 21.1719V13.5312H49.7422V12.9219H53.9141L54.0312 14.75C54.1719 14.4688 54.3594 14.1953 54.5938 13.9297C55.3906 13.0234 56.3594 12.5703 57.5 12.5703C57.9062 12.5703 58.2969 12.6328 58.6719 12.7578C60.0469 13.2422 60.7344 14.4531 60.7344 16.3906V22.3906H61.5078C61.6016 22.3906 61.6953 22.3984 61.7891 22.4141C61.9922 22.4453 62.0938 22.6406 62.0938 23H56.6797V22.3906C56.8984 22.3906 57.0859 22.3672 57.2422 22.3203C57.5859 22.2109 57.7578 21.8281 57.7578 21.1719V15.9922C57.7578 15.7734 57.7422 15.5625 57.7109 15.3594C57.5547 14.3125 57.0312 13.7891 56.1406 13.7891C55.9062 13.7891 55.6797 13.8438 55.4609 13.9531C54.6641 14.3438 54.2109 15.1562 54.1016 16.3906L54.0781 22.3906H54.6641ZM71.2812 23L70.9531 20.7969C70.875 21 70.7812 21.1953 70.6719 21.3828C69.9688 22.6172 68.8906 23.2344 67.4375 23.2344C66.5625 23.2344 65.7656 22.9688 65.0469 22.4375C63.7812 21.5156 63.1484 20.0859 63.1484 18.1484C63.1484 16.5859 63.5547 15.2891 64.3672 14.2578C65.3047 13.1172 66.5156 12.5469 68 12.5469C69.1094 12.5469 70.0625 12.8906 70.8594 13.5781V8.375H68.7266V7.76562H73.8359V22.3672H74.9141C75.0234 22.3672 75.1172 22.375 75.1953 22.3906C75.3828 22.4375 75.4766 22.6406 75.4766 23H71.2812ZM66.3594 17.8672C66.3594 18.4609 66.3984 19 66.4766 19.4844C66.7422 21.2656 67.4219 22.1562 68.5156 22.1562C68.8438 22.1562 69.1484 22.0703 69.4297 21.8984C70.4141 21.2578 70.9062 19.7656 70.9062 17.4219C70.9062 16.8906 70.875 16.3906 70.8125 15.9219C70.5469 14.1875 69.8516 13.3203 68.7266 13.3203C68.4141 13.3203 68.1172 13.3984 67.8359 13.5547C66.8516 14.1484 66.3594 15.5859 66.3594 17.8672ZM81.6172 22.3906C81.7109 22.3906 81.7969 22.3984 81.875 22.4141C82.0781 22.4453 82.1797 22.6406 82.1797 23H76.4141V22.3906C76.6172 22.3906 76.7969 22.375 76.9531 22.3438C77.5 22.25 77.7734 21.8594 77.7734 21.1719V13.5312H76.4141V12.9219H80.75V22.3906H81.6172ZM80.9609 9.85156C80.9609 10.1484 80.8828 10.4297 80.7266 10.6953C80.3984 11.2734 79.8906 11.5625 79.2031 11.5625C78.9219 11.5625 78.6484 11.4922 78.3828 11.3516C77.7734 11.0391 77.4688 10.5391 77.4688 9.85156C77.4688 9.55469 77.5391 9.27344 77.6797 9.00781C78.0234 8.39844 78.5312 8.09375 79.2031 8.09375C79.5 8.09375 79.7812 8.17188 80.0469 8.32812C80.6562 8.65625 80.9609 9.16406 80.9609 9.85156ZM83 13.6484V13.0391H84.6172V10.8125L87.5938 10.3203V13.0391H90.6875V13.6484H87.5938V20.75C87.5938 20.9531 87.6094 21.1484 87.6406 21.3359C87.7656 22.1484 88.1172 22.5547 88.6953 22.5547C88.7891 22.5547 88.8828 22.5469 88.9766 22.5312C89.5859 22.4062 90.0469 21.7109 90.3594 20.4453L90.9922 20.5391C90.8672 21.1797 90.6953 21.6953 90.4766 22.0859C90.0234 22.8672 89.1953 23.2578 87.9922 23.2578C87.8047 23.2578 87.6172 23.25 87.4297 23.2344C85.5547 23.0156 84.6172 21.7734 84.6172 19.5078V13.6484H83ZM96.8984 22.3906C96.9922 22.3906 97.0781 22.3984 97.1562 22.4141C97.3594 22.4453 97.4609 22.6406 97.4609 23H91.6953V22.3906C91.8984 22.3906 92.0781 22.375 92.2344 22.3438C92.7812 22.25 93.0547 21.8594 93.0547 21.1719V13.5312H91.6953V12.9219H96.0312V22.3906H96.8984ZM96.2422 9.85156C96.2422 10.1484 96.1641 10.4297 96.0078 10.6953C95.6797 11.2734 95.1719 11.5625 94.4844 11.5625C94.2031 11.5625 93.9297 11.4922 93.6641 11.3516C93.0547 11.0391 92.75 10.5391 92.75 9.85156C92.75 9.55469 92.8203 9.27344 92.9609 9.00781C93.3047 8.39844 93.8125 8.09375 94.4844 8.09375C94.7812 8.09375 95.0625 8.17188 95.3281 8.32812C95.9375 8.65625 96.2422 9.16406 96.2422 9.85156ZM101.844 17.9141C101.844 19.3828 101.938 20.4531 102.125 21.125C102.406 22.125 103.031 22.625 104 22.625C104.547 22.625 104.992 22.4609 105.336 22.1328C105.93 21.5391 106.227 20.1016 106.227 17.8203C106.227 16.3984 106.133 15.3594 105.945 14.7031C105.664 13.6875 105.023 13.1797 104.023 13.1797C103.43 13.1797 102.969 13.3594 102.641 13.7188C102.109 14.3281 101.844 15.7266 101.844 17.9141ZM104.141 12.5703C105.484 12.5703 106.633 12.9375 107.586 13.6719C108.82 14.6562 109.438 16.0234 109.438 17.7734C109.438 19.0859 109.047 20.2422 108.266 21.2422C107.219 22.5703 105.773 23.2344 103.93 23.2344C102.586 23.2344 101.43 22.8281 100.461 22.0156C99.2422 20.9844 98.6328 19.5859 98.6328 17.8203C98.6328 16.5703 98.9922 15.4766 99.7109 14.5391C100.742 13.2266 102.219 12.5703 104.141 12.5703ZM115.531 22.3906C115.625 22.3906 115.711 22.3984 115.789 22.4141C115.992 22.4453 116.094 22.6406 116.094 23H110.609V22.3906C110.734 22.3906 110.852 22.3828 110.961 22.3672C111.633 22.2891 111.969 21.8906 111.969 21.1719V13.5312H110.609V12.9219H114.781L114.898 14.75C115.039 14.4688 115.227 14.1953 115.461 13.9297C116.258 13.0234 117.227 12.5703 118.367 12.5703C118.773 12.5703 119.164 12.6328 119.539 12.7578C120.914 13.2422 121.602 14.4531 121.602 16.3906V22.3906H122.375C122.469 22.3906 122.562 22.3984 122.656 22.4141C122.859 22.4453 122.961 22.6406 122.961 23H117.547V22.3906C117.766 22.3906 117.953 22.3672 118.109 22.3203C118.453 22.2109 118.625 21.8281 118.625 21.1719V15.9922C118.625 15.7734 118.609 15.5625 118.578 15.3594C118.422 14.3125 117.898 13.7891 117.008 13.7891C116.773 13.7891 116.547 13.8438 116.328 13.9531C115.531 14.3438 115.078 15.1562 114.969 16.3906L114.945 22.3906H115.531ZM127.32 15.2188C127.32 15.5 127.258 15.7656 127.133 16.0156C126.82 16.5781 126.328 16.8594 125.656 16.8594C125.391 16.8594 125.141 16.7969 124.906 16.6719C124.312 16.375 124.016 15.8906 124.016 15.2188C124.016 14.9531 124.078 14.6953 124.203 14.4453C124.516 13.8516 125 13.5547 125.656 13.5547C125.922 13.5547 126.18 13.6172 126.43 13.7422C127.023 14.0703 127.32 14.5625 127.32 15.2188ZM127.32 20.5625C127.32 20.8438 127.258 21.1094 127.133 21.3594C126.82 21.9219 126.328 22.2031 125.656 22.2031C125.391 22.2031 125.141 22.1406 124.906 22.0156C124.312 21.7188 124.016 21.2344 124.016 20.5625C124.016 20.2656 124.086 19.9766 124.227 19.6953C124.555 19.0859 125.031 18.7812 125.656 18.7812C125.953 18.7812 126.242 18.875 126.523 19.0625C127.055 19.4219 127.32 19.9219 127.32 20.5625ZM140.984 23H133.062V22.3672H134.938V9.57031H133.062V8.9375H144.781L144.875 13.5547H144.195L143.68 11.8203C143.68 11.8047 143.672 11.7891 143.656 11.7734C143.203 10.3047 142.273 9.57031 140.867 9.57031H138.219V15.4062H142.719V16.1094H138.219V22.3672H140.984V23ZM151.32 22.3906C151.414 22.3906 151.5 22.3984 151.578 22.4141C151.781 22.4453 151.883 22.6406 151.883 23H145.344V22.3906C145.781 22.3906 146.133 22.3594 146.398 22.2969C146.914 22.1562 147.172 21.7656 147.172 21.125V8.375H145.344V7.76562H150.148V22.3906H151.32ZM161.398 23.2344C160.148 23.1562 159.359 22.4453 159.031 21.1016C158.953 21.3203 158.852 21.5312 158.727 21.7344C158.102 22.7344 157.125 23.2344 155.797 23.2344C155.359 23.2344 154.961 23.1797 154.602 23.0703C153.383 22.6797 152.773 21.7891 152.773 20.3984C152.789 18.3516 154.805 17.2891 158.82 17.2109V15.6875C158.82 15.2344 158.789 14.8438 158.727 14.5156C158.57 13.625 158.125 13.1797 157.391 13.1797C157.172 13.1797 156.977 13.2188 156.805 13.2969C156.539 13.4531 156.32 13.8438 156.148 14.4688C156.086 14.6875 156.039 14.8438 156.008 14.9375C155.773 15.5938 155.32 15.9219 154.648 15.9219C154.492 15.9219 154.344 15.8984 154.203 15.8516C153.625 15.6953 153.336 15.3125 153.336 14.7031C153.336 14.4375 153.406 14.1875 153.547 13.9531C154.094 13.0312 155.43 12.5703 157.555 12.5703C158.102 12.5703 158.609 12.625 159.078 12.7344C160.891 13.1875 161.797 14.3906 161.797 16.3438V21.2422C161.797 21.9922 161.969 22.3828 162.312 22.4141C162.766 22.3984 163.039 21.8516 163.133 20.7734L163.742 20.7969C163.695 21.2812 163.625 21.6797 163.531 21.9922C163.25 22.8203 162.539 23.2344 161.398 23.2344ZM157.016 22.2266C157.125 22.2266 157.25 22.2031 157.391 22.1562C158.047 21.9062 158.523 21.2344 158.82 20.1406V17.8672C158.117 17.8984 157.539 17.9844 157.086 18.125C156.242 18.4375 155.82 19.1094 155.82 20.1406C155.836 21.5 156.234 22.1953 157.016 22.2266ZM167.844 16.5312C167.844 17.6094 167.898 18.3594 168.008 18.7812C168.195 19.5 168.672 19.8594 169.438 19.8594C169.906 19.8594 170.273 19.7266 170.539 19.4609C170.914 19.0391 171.102 18.0391 171.102 16.4609C171.102 15.4297 171.047 14.6953 170.938 14.2578C170.734 13.5391 170.242 13.1797 169.461 13.1797C168.977 13.1797 168.609 13.3203 168.359 13.6016C168.016 14.0078 167.844 14.9844 167.844 16.5312ZM169.555 12.5703C170.648 12.5703 171.57 12.8047 172.32 13.2734C172.383 13.1016 172.453 12.9297 172.531 12.7578C172.984 11.8203 173.617 11.3516 174.43 11.3516C174.727 11.3516 175 11.4062 175.25 11.5156C175.797 11.75 176.07 12.1484 176.07 12.7109C176.07 12.7891 176.062 12.8672 176.047 12.9453C175.938 13.3828 175.648 13.6016 175.18 13.6016C174.977 13.6016 174.758 13.5078 174.523 13.3203C174.227 13.0547 173.977 12.9219 173.773 12.9219C173.398 12.9375 173.07 13.1641 172.789 13.6016C173.633 14.3359 174.062 15.2734 174.078 16.4141C174.078 17.2578 173.828 18.0234 173.328 18.7109C172.453 19.8828 171.156 20.4688 169.438 20.4688L166.93 20.4453C166.867 20.4453 166.805 20.4531 166.742 20.4688C166.352 20.5156 166.156 20.7188 166.156 21.0781C166.156 21.125 166.164 21.1719 166.18 21.2188C166.258 21.5625 166.5 21.7422 166.906 21.7578L171.758 21.8516C171.977 21.8516 172.188 21.8672 172.391 21.8984C174.109 22.1172 174.969 23.0156 174.969 24.5938C174.969 25 174.852 25.3906 174.617 25.7656C173.867 26.9688 172.211 27.5703 169.648 27.5703C168.586 27.5703 167.68 27.4297 166.93 27.1484C165.82 26.7266 165.266 26.0938 165.266 25.25C165.266 24.7812 165.469 24.3047 165.875 23.8203C165.312 23.3516 165.023 22.7422 165.008 21.9922C165.008 21.6797 165.07 21.3672 165.195 21.0547C165.555 20.2266 166.195 19.8203 167.117 19.8359H167.141C166.922 19.7109 166.711 19.5703 166.508 19.4141C165.414 18.5703 164.867 17.5859 164.867 16.4609C164.867 15.6641 165.102 14.9453 165.57 14.3047C166.414 13.1484 167.742 12.5703 169.555 12.5703ZM169.648 26.9375C170.383 26.9375 171.055 26.875 171.664 26.75C173.117 26.4688 173.844 25.9609 173.844 25.2266C173.844 25.0703 173.812 24.9375 173.75 24.8281C173.594 24.5469 173.062 24.4062 172.156 24.4062L167.422 24.3594C167.078 24.3594 166.75 24.2969 166.438 24.1719C166.203 24.5 166.086 24.8281 166.086 25.1562C166.086 25.3281 166.125 25.5 166.203 25.6719C166.594 26.5156 167.742 26.9375 169.648 26.9375Z" fill="black"/>
</svg>
