<svg width="167" height="35" viewBox="0 0 167 35" fill="none" xmlns="http://www.w3.org/2000/svg">
<path d="M0.5 17.5C0.5 8.11116 8.11116 0.5 17.5 0.5H149.5C158.889 0.5 166.5 8.11116 166.5 17.5C166.5 26.8888 158.889 34.5 149.5 34.5H17.5C8.11116 34.5 0.5 26.8888 0.5 17.5Z" fill="white" fill-opacity="0.72" stroke="white"/>
<path d="M25.1797 20.6562H30.5703C30.9297 20.6562 31.1953 20.6406 31.3672 20.6094C31.7578 20.5156 32.0703 20.1875 32.3047 19.625L32.7266 18.5938H33.2656L33.2422 23H23.7031V22.3203C23.7031 21.6172 23.8281 21 24.0781 20.4688C24.4062 19.75 25.0938 19.0703 26.1406 18.4297C27.2656 17.7578 27.9219 17.3516 28.1094 17.2109C29.2969 16.3047 29.8906 15.0156 29.8906 13.3438C29.8906 13 29.8594 12.6719 29.7969 12.3594C29.5469 11.2812 28.9609 10.7422 28.0391 10.7422C27.6641 10.7422 27.3594 10.8359 27.125 11.0234C26.8594 11.2578 26.7109 11.7969 26.6797 12.6406C26.6641 13.0469 26.6406 13.3438 26.6094 13.5312C26.4688 14.2812 25.9844 14.6562 25.1562 14.6562C25 14.6562 24.8359 14.6328 24.6641 14.5859C24.0703 14.3672 23.7734 13.8516 23.7734 13.0391C23.7734 12.4141 23.9844 11.8672 24.4062 11.3984C25.1875 10.5391 26.4609 10.1094 28.2266 10.1094C29.0234 10.1094 29.7578 10.2109 30.4297 10.4141C32.1797 10.9297 33.0547 11.9766 33.0547 13.5547C33.0547 14.4453 32.6719 15.2578 31.9062 15.9922C31.2969 16.5703 30.1172 17.2656 28.3672 18.0781C27.7266 18.375 27.2578 18.6016 26.9609 18.7578C25.7734 19.3828 25.1797 20.0156 25.1797 20.6562ZM41.3047 10.1094C42.5859 10.1094 43.6875 10.4219 44.6094 11.0469C46.2344 12.1719 47.0469 14.0625 47.0469 16.7188C47.0469 18.3281 46.6797 19.6953 45.9453 20.8203C44.8672 22.4297 43.2812 23.2344 41.1875 23.2344C39.8125 23.2344 38.6406 22.8672 37.6719 22.1328C36.1406 20.9609 35.375 19.125 35.375 16.625C35.375 15.0156 35.7578 13.6406 36.5234 12.5C37.6016 10.9062 39.1953 10.1094 41.3047 10.1094ZM41.2578 22.6016C41.7578 22.6016 42.1797 22.4453 42.5234 22.1328C43.2891 21.4297 43.6719 19.5859 43.6719 16.6016C43.6719 15.3672 43.6016 14.3359 43.4609 13.5078C43.1484 11.6641 42.4062 10.7422 41.2344 10.7422C40.8438 10.7422 40.5078 10.8281 40.2266 11C39.2422 11.625 38.75 13.5312 38.75 16.7188C38.75 18.4531 38.875 19.7734 39.125 20.6797C39.4844 21.9609 40.1953 22.6016 41.2578 22.6016ZM50.0469 20.6562H55.4375C55.7969 20.6562 56.0625 20.6406 56.2344 20.6094C56.625 20.5156 56.9375 20.1875 57.1719 19.625L57.5938 18.5938H58.1328L58.1094 23H48.5703V22.3203C48.5703 21.6172 48.6953 21 48.9453 20.4688C49.2734 19.75 49.9609 19.0703 51.0078 18.4297C52.1328 17.7578 52.7891 17.3516 52.9766 17.2109C54.1641 16.3047 54.7578 15.0156 54.7578 13.3438C54.7578 13 54.7266 12.6719 54.6641 12.3594C54.4141 11.2812 53.8281 10.7422 52.9062 10.7422C52.5312 10.7422 52.2266 10.8359 51.9922 11.0234C51.7266 11.2578 51.5781 11.7969 51.5469 12.6406C51.5312 13.0469 51.5078 13.3438 51.4766 13.5312C51.3359 14.2812 50.8516 14.6562 50.0234 14.6562C49.8672 14.6562 49.7031 14.6328 49.5312 14.5859C48.9375 14.3672 48.6406 13.8516 48.6406 13.0391C48.6406 12.4141 48.8516 11.8672 49.2734 11.3984C50.0547 10.5391 51.3281 10.1094 53.0938 10.1094C53.8906 10.1094 54.625 10.2109 55.2969 10.4141C57.0469 10.9297 57.9219 11.9766 57.9219 13.5547C57.9219 14.4453 57.5391 15.2578 56.7734 15.9922C56.1641 16.5703 54.9844 17.2656 53.2344 18.0781C52.5938 18.375 52.125 18.6016 51.8281 18.7578C50.6406 19.3828 50.0469 20.0156 50.0469 20.6562ZM70.8828 24.5234H63.1484V23.8906H65.8203V20.9609L59.6797 20.9375L59.5391 20.2344C60.1172 19.7656 60.6641 19.2812 61.1797 18.7812C62.9297 17.0781 64.1562 15.125 64.8594 12.9219C65.2344 11.7188 65.4531 11.0547 65.5156 10.9297C65.8281 10.3047 66.3672 9.99219 67.1328 9.99219C67.3516 9.99219 67.5625 10.0156 67.7656 10.0625C68.5312 10.2656 68.9141 10.75 68.9141 11.5156C68.9141 12.2031 68.4609 13.0625 67.5547 14.0938C66.6953 15.0938 64.9766 16.6484 62.3984 18.7578C61.5703 19.4297 60.9688 19.9219 60.5938 20.2344L65.8203 20.2578V17.4453H66.1016C66.3828 17.4453 66.6172 17.4297 66.8047 17.3984C67.3828 17.3047 67.7734 16.9453 67.9766 16.3203L68.3047 15.3125H68.8438V20.2812H70.8828V20.9844H68.8438V23.8906H70.3203C70.4141 23.8906 70.5 23.8984 70.5781 23.9141C70.7812 23.9453 70.8828 24.1484 70.8828 24.5234ZM77.4688 17.7031H82.2031V18.6172H77.4688V17.7031ZM93.4531 10.3438H95.3984V22.1797L97.2734 22.3906C97.3203 22.3906 97.375 22.3984 97.4375 22.4141C97.8125 22.4766 98 22.6719 98 23H89.2812V22.3906L92.2578 22.1797V12.125L88.8828 14.1641L88.4609 13.5078L93.4531 10.3438ZM103.812 10.3438H105.758V22.1797L107.633 22.3906C107.68 22.3906 107.734 22.3984 107.797 22.4141C108.172 22.4766 108.359 22.6719 108.359 23H99.6406V22.3906L102.617 22.1797V12.125L99.2422 14.1641L98.8203 13.5078L103.812 10.3438ZM114.289 17.7031H119.023V18.6172H114.289V17.7031ZM126.992 20.6562H132.383C132.742 20.6562 133.008 20.6406 133.18 20.6094C133.57 20.5156 133.883 20.1875 134.117 19.625L134.539 18.5938H135.078L135.055 23H125.516V22.3203C125.516 21.6172 125.641 21 125.891 20.4688C126.219 19.75 126.906 19.0703 127.953 18.4297C129.078 17.7578 129.734 17.3516 129.922 17.2109C131.109 16.3047 131.703 15.0156 131.703 13.3438C131.703 13 131.672 12.6719 131.609 12.3594C131.359 11.2812 130.773 10.7422 129.852 10.7422C129.477 10.7422 129.172 10.8359 128.938 11.0234C128.672 11.2578 128.523 11.7969 128.492 12.6406C128.477 13.0469 128.453 13.3438 128.422 13.5312C128.281 14.2812 127.797 14.6562 126.969 14.6562C126.812 14.6562 126.648 14.6328 126.477 14.5859C125.883 14.3672 125.586 13.8516 125.586 13.0391C125.586 12.4141 125.797 11.8672 126.219 11.3984C127 10.5391 128.273 10.1094 130.039 10.1094C130.836 10.1094 131.57 10.2109 132.242 10.4141C133.992 10.9297 134.867 11.9766 134.867 13.5547C134.867 14.4453 134.484 15.2578 133.719 15.9922C133.109 16.5703 131.93 17.2656 130.18 18.0781C129.539 18.375 129.07 18.6016 128.773 18.7578C127.586 19.3828 126.992 20.0156 126.992 20.6562ZM143.117 10.1094C144.398 10.1094 145.5 10.4219 146.422 11.0469C148.047 12.1719 148.859 14.0625 148.859 16.7188C148.859 18.3281 148.492 19.6953 147.758 20.8203C146.68 22.4297 145.094 23.2344 143 23.2344C141.625 23.2344 140.453 22.8672 139.484 22.1328C137.953 20.9609 137.188 19.125 137.188 16.625C137.188 15.0156 137.57 13.6406 138.336 12.5C139.414 10.9062 141.008 10.1094 143.117 10.1094ZM143.07 22.6016C143.57 22.6016 143.992 22.4453 144.336 22.1328C145.102 21.4297 145.484 19.5859 145.484 16.6016C145.484 15.3672 145.414 14.3359 145.273 13.5078C144.961 11.6641 144.219 10.7422 143.047 10.7422C142.656 10.7422 142.32 10.8281 142.039 11C141.055 11.625 140.562 13.5312 140.562 16.7188C140.562 18.4531 140.688 19.7734 140.938 20.6797C141.297 21.9609 142.008 22.6016 143.07 22.6016Z" fill="black"/>
</svg>
