<svg width="142" height="69" viewBox="0 0 142 69" fill="none" xmlns="http://www.w3.org/2000/svg">
<path d="M41.4375 12.9062L19.7812 35.6875C21.7188 35.3125 23.7188 35.125 25.7812 35.125C30.0938 35.125 33.75 35.9062 36.75 37.4688C41.5625 40.0312 43.9688 44.0312 43.9688 49.4688C43.9688 53.5312 42.6562 57.1875 40.0312 60.4375C35.5938 65.8125 28.875 68.5 19.875 68.5C16.1875 68.5 12.8438 68.0312 9.84375 67.0938C3.71875 65.0312 0.65625 61.5 0.65625 56.5C0.65625 55.9375 0.71875 55.375 0.84375 54.8125C1.46875 51.9375 3.40625 50.5 6.65625 50.5C8.21875 50.5 9.46875 50.875 10.4062 51.625C11.4062 52.5625 12 54.625 12.1875 57.8125C12.3125 59.4375 12.4375 60.625 12.5625 61.375C13.25 64.4375 15.375 65.9688 18.9375 65.9688C27.3125 65.9062 31.5625 60.8438 31.6875 50.7812C31.6875 49.5312 31.5938 48.3125 31.4062 47.125C30.4688 41.1875 27.4688 38.2188 22.4062 38.2188C20.3438 38.2188 18.25 38.6562 16.125 39.5312L13.6875 37.5625L29.9062 19H14.8125C13.375 19 12.2812 19.0625 11.5312 19.1875C9.78125 19.5625 8.4375 20.9062 7.5 23.2188L5.8125 27.5312H3.46875L3.65625 10.375H41.4375V12.9062ZM74.5312 9.4375C79.6562 9.4375 84.0625 10.6875 87.75 13.1875C94.25 17.6875 97.5 25.25 97.5 35.875C97.5 42.3125 96.0312 47.7812 93.0938 52.2812C88.7812 58.7188 82.4375 61.9375 74.0625 61.9375C68.5625 61.9375 63.875 60.4688 60 57.5312C53.875 52.8438 50.8125 45.5 50.8125 35.5C50.8125 29.0625 52.3438 23.5625 55.4062 19C59.7188 12.625 66.0938 9.4375 74.5312 9.4375ZM74.3438 59.4062C76.3438 59.4062 78.0312 58.7812 79.4062 57.5312C82.4688 54.7188 84 47.3438 84 35.4062C84 30.4688 83.7188 26.3438 83.1562 23.0312C81.9062 15.6562 78.9375 11.9688 74.25 11.9688C72.6875 11.9688 71.3438 12.3125 70.2188 13C66.2812 15.5 64.3125 23.125 64.3125 35.875C64.3125 42.8125 64.8125 48.0938 65.8125 51.7188C67.25 56.8438 70.0938 59.4062 74.3438 59.4062ZM125.812 10.1875C125.812 11.1875 126.031 12.1562 126.469 13.0938C127.656 15.3438 129.531 16.4688 132.094 16.4688C133.094 16.4688 134.062 16.25 135 15.8125C137.25 14.625 138.375 12.75 138.375 10.1875C138.375 9 138.094 7.90625 137.531 6.90625C136.281 4.65625 134.469 3.53125 132.094 3.53125C131.094 3.53125 130.094 3.78125 129.094 4.28125C126.906 5.59375 125.812 7.5625 125.812 10.1875ZM141.375 10.1875C141.375 11.875 140.906 13.4688 139.969 14.9688C138.156 17.7812 135.531 19.1875 132.094 19.1875C130.344 19.1875 128.688 18.75 127.125 17.875C124.25 16.125 122.812 13.5625 122.812 10.1875C122.812 8.375 123.312 6.65625 124.312 5.03125C126.188 2.15625 128.781 0.71875 132.094 0.71875C133.906 0.71875 135.594 1.25 137.156 2.3125C139.969 4.1875 141.375 6.8125 141.375 10.1875Z" fill="white"/>
</svg>
