<svg width="200" height="35" viewBox="0 0 200 35" fill="none" xmlns="http://www.w3.org/2000/svg">
<path d="M0.5 17.5C0.5 8.11116 8.11116 0.5 17.5 0.5H182.221C191.61 0.5 199.221 8.11116 199.221 17.5C199.221 26.8888 191.61 34.5 182.221 34.5H17.5C8.11118 34.5 0.5 26.8888 0.5 17.5Z" fill="white" fill-opacity="0.72" stroke="white"/>
<path opacity="0.75" d="M66.7734 23.0859C65.2891 23.8516 63.7422 24.2344 62.1328 24.2344C59.8672 24.2344 58.0391 23.5078 56.6484 22.0547C55.3516 20.6797 54.7031 18.9844 54.7031 16.9688C54.7031 15.2656 55.1953 13.7578 56.1797 12.4453C57.5703 10.6172 59.5781 9.70312 62.2031 9.70312C63.8438 9.70312 65.3438 10.0703 66.7031 10.8047C66.6875 10.5547 66.6953 10.3516 66.7266 10.1953C66.8047 9.94531 67.0469 9.82031 67.4531 9.82031L67.5234 14.4375H66.7031C66.4531 13.5312 66.1641 12.7891 65.8359 12.2109C65.1328 11.0078 64.0469 10.4062 62.5781 10.4062C59.7969 10.4219 58.3984 12.5703 58.3828 16.8516C58.3828 18.1641 58.4766 19.2656 58.6641 20.1562C59.1641 22.4062 60.4062 23.5312 62.3906 23.5312C62.8906 23.5312 63.3438 23.4766 63.75 23.3672C65.2188 22.9609 66.2422 21.6719 66.8203 19.5H67.5938V24.1172C67.4219 24.1172 67.2812 24.1016 67.1719 24.0703C66.8906 24.0078 66.7578 23.6797 66.7734 23.0859ZM74.3906 23.3906C74.4844 23.3906 74.5703 23.3984 74.6484 23.4141C74.8516 23.4453 74.9531 23.6406 74.9531 24H68.4141V23.3906C68.8516 23.3906 69.2031 23.3594 69.4688 23.2969C69.9844 23.1562 70.2422 22.7656 70.2422 22.125V9.375H68.4141V8.76562H73.2188V23.3906H74.3906ZM79.2891 18.9141C79.2891 20.3828 79.3828 21.4531 79.5703 22.125C79.8516 23.125 80.4766 23.625 81.4453 23.625C81.9922 23.625 82.4375 23.4609 82.7812 23.1328C83.375 22.5391 83.6719 21.1016 83.6719 18.8203C83.6719 17.3984 83.5781 16.3594 83.3906 15.7031C83.1094 14.6875 82.4688 14.1797 81.4688 14.1797C80.875 14.1797 80.4141 14.3594 80.0859 14.7188C79.5547 15.3281 79.2891 16.7266 79.2891 18.9141ZM81.5859 13.5703C82.9297 13.5703 84.0781 13.9375 85.0312 14.6719C86.2656 15.6562 86.8828 17.0234 86.8828 18.7734C86.8828 20.0859 86.4922 21.2422 85.7109 22.2422C84.6641 23.5703 83.2188 24.2344 81.375 24.2344C80.0312 24.2344 78.875 23.8281 77.9062 23.0156C76.6875 21.9844 76.0781 20.5859 76.0781 18.8203C76.0781 17.5703 76.4375 16.4766 77.1562 15.5391C78.1875 14.2266 79.6641 13.5703 81.5859 13.5703ZM99.7266 23.3906C99.8359 23.3906 99.9297 23.3984 100.008 23.4141C100.195 23.4609 100.289 23.6562 100.289 24H96.1172L96 22.0781C95.9531 22.1719 95.9062 22.2656 95.8594 22.3594C95.125 23.6094 94.0547 24.2344 92.6484 24.2344C90.4453 24.2188 89.3281 22.9453 89.2969 20.4141V14.5312H87.9375V13.9219H92.2734V20.8125C92.2734 21.0312 92.2891 21.2422 92.3203 21.4453C92.4766 22.4922 93 23.0156 93.8906 23.0156C94.125 23.0156 94.3594 22.9609 94.5938 22.8516C95.375 22.4609 95.8203 21.6562 95.9297 20.4375L95.9531 14.5312H94.8047V13.9219H98.9297V23.3906H99.7266ZM109.594 24L109.266 21.7969C109.188 22 109.094 22.1953 108.984 22.3828C108.281 23.6172 107.203 24.2344 105.75 24.2344C104.875 24.2344 104.078 23.9688 103.359 23.4375C102.094 22.5156 101.461 21.0859 101.461 19.1484C101.461 17.5859 101.867 16.2891 102.68 15.2578C103.617 14.1172 104.828 13.5469 106.312 13.5469C107.422 13.5469 108.375 13.8906 109.172 14.5781V9.375H107.039V8.76562H112.148V23.3672H113.227C113.336 23.3672 113.43 23.375 113.508 23.3906C113.695 23.4375 113.789 23.6406 113.789 24H109.594ZM104.672 18.8672C104.672 19.4609 104.711 20 104.789 20.4844C105.055 22.2656 105.734 23.1562 106.828 23.1562C107.156 23.1562 107.461 23.0703 107.742 22.8984C108.727 22.2578 109.219 20.7656 109.219 18.4219C109.219 17.8906 109.188 17.3906 109.125 16.9219C108.859 15.1875 108.164 14.3203 107.039 14.3203C106.727 14.3203 106.43 14.3984 106.148 14.5547C105.164 15.1484 104.672 16.5859 104.672 18.8672ZM118.148 16.2188C118.148 16.5 118.086 16.7656 117.961 17.0156C117.648 17.5781 117.156 17.8594 116.484 17.8594C116.219 17.8594 115.969 17.7969 115.734 17.6719C115.141 17.375 114.844 16.8906 114.844 16.2188C114.844 15.9531 114.906 15.6953 115.031 15.4453C115.344 14.8516 115.828 14.5547 116.484 14.5547C116.75 14.5547 117.008 14.6172 117.258 14.7422C117.852 15.0703 118.148 15.5625 118.148 16.2188ZM118.148 21.5625C118.148 21.8438 118.086 22.1094 117.961 22.3594C117.648 22.9219 117.156 23.2031 116.484 23.2031C116.219 23.2031 115.969 23.1406 115.734 23.0156C115.141 22.7188 114.844 22.2344 114.844 21.5625C114.844 21.2656 114.914 20.9766 115.055 20.6953C115.383 20.0859 115.859 19.7812 116.484 19.7812C116.781 19.7812 117.07 19.875 117.352 20.0625C117.883 20.4219 118.148 20.9219 118.148 21.5625ZM134.672 12.0469C134.484 12.3125 134.289 12.5938 134.086 12.8906C132.039 15.9531 130.617 19.1172 129.82 22.3828C129.461 23.8516 129.227 24.7031 129.117 24.9375C128.836 25.5625 128.328 25.875 127.594 25.875C127.391 25.875 127.195 25.8516 127.008 25.8047C126.258 25.6016 125.883 25.1172 125.883 24.3516C125.883 24.0859 125.922 23.8047 126 23.5078C126.266 22.6016 127.148 21.1406 128.648 19.125C131.086 15.8281 132.461 13.9531 132.773 13.5H127.195C126.852 13.5 126.586 13.5156 126.398 13.5469C125.93 13.625 125.586 13.9453 125.367 14.5078L124.945 15.5859H124.359L124.406 11.3438H134.672V12.0469ZM146.25 21.3281C146.25 22.5469 145.828 23.5547 144.984 24.3516C143.875 25.3672 142.32 25.875 140.32 25.875C139.492 25.875 138.734 25.7422 138.047 25.4766C136.734 24.9453 136.078 24.0859 136.078 22.8984C136.078 22.7266 136.094 22.5703 136.125 22.4297C136.312 21.7578 136.797 21.4219 137.578 21.4219C138 21.4219 138.336 21.5234 138.586 21.7266C138.852 21.9609 139.008 22.4922 139.055 23.3203C139.07 23.6953 139.094 23.9688 139.125 24.1406C139.266 24.875 139.742 25.2422 140.555 25.2422C140.633 25.2422 140.719 25.2422 140.812 25.2422C142.406 25.1016 143.203 23.8047 143.203 21.3516C143.203 20.7109 143.109 20.1328 142.922 19.6172C142.484 18.4766 141.672 17.9062 140.484 17.9062C139.609 17.9062 138.734 18.2578 137.859 18.9609L137.062 18.3516V11.2969C137.672 11.3281 138.492 11.3672 139.523 11.4141C140.867 11.4766 141.75 11.5078 142.172 11.5078C142.75 11.5078 143.195 11.4609 143.508 11.3672C143.945 11.2422 144.258 10.9219 144.445 10.4062H145.078C145.062 11.7031 144.844 12.625 144.422 13.1719C143.938 13.6094 142.852 13.8281 141.164 13.8281C140.211 13.8281 139.109 13.7578 137.859 13.6172V17.9766C138.969 17.3203 140.164 16.9844 141.445 16.9688C142.383 16.9688 143.219 17.1406 143.953 17.4844C145.484 18.2188 146.25 19.5 146.25 21.3281Z" fill="black"/>
</svg>
