<svg width="222" height="35" viewBox="0 0 222 35" fill="none" xmlns="http://www.w3.org/2000/svg">
<path d="M0 17.5C0 7.83502 7.83502 0 17.5 0H182.221C191.886 0 199.721 7.83502 199.721 17.5C199.721 27.165 191.886 35 182.221 35H17.5C7.83504 35 0 27.165 0 17.5Z" fill="white" fill-opacity="0.72"/>
<path d="M0.5 17.5C0.5 8.11116 8.11116 0.5 17.5 0.5H182.221C191.61 0.5 199.221 8.11116 199.221 17.5C199.221 26.8888 191.61 34.5 182.221 34.5H17.5C8.11118 34.5 0.5 26.8888 0.5 17.5Z" stroke="white" stroke-opacity="0.99"/>
<path d="M44.5 23H37.4688V22.3672H39.3438V9.57031H37.4688V8.9375H44.5V9.57031H42.625V15.4062H48.5781V9.57031H46.7031V8.9375H53.7344V9.57031H51.8594V22.3672H53.1016C53.4297 22.3984 53.6406 22.6094 53.7344 23H46.7031V22.3672H48.5781V16.1094H42.625V22.3672H43.8672C44.1953 22.3984 44.4062 22.6094 44.5 23ZM66.3438 22.3906C66.4531 22.3906 66.5469 22.3984 66.625 22.4141C66.8125 22.4609 66.9062 22.6562 66.9062 23H62.7344L62.6172 21.0781C62.5703 21.1719 62.5234 21.2656 62.4766 21.3594C61.7422 22.6094 60.6719 23.2344 59.2656 23.2344C57.0625 23.2188 55.9453 21.9453 55.9141 19.4141V13.5312H54.5547V12.9219H58.8906V19.8125C58.8906 20.0312 58.9062 20.2422 58.9375 20.4453C59.0938 21.4922 59.6172 22.0156 60.5078 22.0156C60.7422 22.0156 60.9766 21.9609 61.2109 21.8516C61.9922 21.4609 62.4375 20.6562 62.5469 19.4375L62.5703 13.5312H61.4219V12.9219H65.5469V22.3906H66.3438ZM72.6016 22.3906C72.6953 22.3906 72.7812 22.3984 72.8594 22.4141C73.0625 22.4453 73.1641 22.6406 73.1641 23H67.8438V22.3906C67.9688 22.3906 68.0859 22.3828 68.1953 22.3672C68.8672 22.2891 69.2031 21.8906 69.2031 21.1719V13.5312H67.8438V12.9219H72.0156L72.1328 14.6328C72.8203 13.2734 73.9141 12.5859 75.4141 12.5703C75.6641 12.5703 75.9141 12.6016 76.1641 12.6641C77.1172 12.9453 77.7812 13.6406 78.1562 14.75C78.9062 13.3125 80.0391 12.5859 81.5547 12.5703C82.1016 12.5703 82.6094 12.7188 83.0781 13.0156C84.0938 13.6562 84.6016 14.7422 84.6016 16.2734V22.3906H85.375C85.4688 22.3906 85.5625 22.3984 85.6562 22.4141C85.8594 22.4453 85.9609 22.6406 85.9609 23H80.6172V22.3906C80.8672 22.3906 81.0625 22.3672 81.2031 22.3203C81.5 22.1953 81.6484 21.8125 81.6484 21.1719V15.9922C81.6484 15.6016 81.6016 15.2422 81.5078 14.9141C81.2578 14.1172 80.7969 13.7188 80.125 13.7188C79.9688 13.7188 79.8125 13.75 79.6562 13.8125C78.9219 14.125 78.5 14.9297 78.3906 16.2266V16.3906V22.3906H78.7891C78.8828 22.3906 78.9766 22.3984 79.0703 22.4141C79.2734 22.4453 79.375 22.6406 79.375 23H74.4062V22.3906C74.6562 22.3906 74.8516 22.3672 74.9922 22.3203C75.2891 22.1953 75.4375 21.8125 75.4375 21.1719V15.9922C75.4375 15.5703 75.3828 15.1875 75.2734 14.8438C75.0234 14.125 74.6094 13.7656 74.0312 13.7656C73.8281 13.7656 73.625 13.8203 73.4219 13.9297C72.7031 14.3047 72.2969 15.1094 72.2031 16.3438L72.1797 22.3906H72.6016ZM92.1016 22.3906C92.1953 22.3906 92.2812 22.3984 92.3594 22.4141C92.5625 22.4453 92.6641 22.6406 92.6641 23H86.8984V22.3906C87.1016 22.3906 87.2812 22.375 87.4375 22.3438C87.9844 22.25 88.2578 21.8594 88.2578 21.1719V13.5312H86.8984V12.9219H91.2344V22.3906H92.1016ZM91.4453 9.85156C91.4453 10.1484 91.3672 10.4297 91.2109 10.6953C90.8828 11.2734 90.375 11.5625 89.6875 11.5625C89.4062 11.5625 89.1328 11.4922 88.8672 11.3516C88.2578 11.0391 87.9531 10.5391 87.9531 9.85156C87.9531 9.55469 88.0234 9.27344 88.1641 9.00781C88.5078 8.39844 89.0156 8.09375 89.6875 8.09375C89.9844 8.09375 90.2656 8.17188 90.5312 8.32812C91.1406 8.65625 91.4453 9.16406 91.4453 9.85156ZM101.969 23L101.641 20.7969C101.562 21 101.469 21.1953 101.359 21.3828C100.656 22.6172 99.5781 23.2344 98.125 23.2344C97.25 23.2344 96.4531 22.9688 95.7344 22.4375C94.4688 21.5156 93.8359 20.0859 93.8359 18.1484C93.8359 16.5859 94.2422 15.2891 95.0547 14.2578C95.9922 13.1172 97.2031 12.5469 98.6875 12.5469C99.7969 12.5469 100.75 12.8906 101.547 13.5781V8.375H99.4141V7.76562H104.523V22.3672H105.602C105.711 22.3672 105.805 22.375 105.883 22.3906C106.07 22.4375 106.164 22.6406 106.164 23H101.969ZM97.0469 17.8672C97.0469 18.4609 97.0859 19 97.1641 19.4844C97.4297 21.2656 98.1094 22.1562 99.2031 22.1562C99.5312 22.1562 99.8359 22.0703 100.117 21.8984C101.102 21.2578 101.594 19.7656 101.594 17.4219C101.594 16.8906 101.562 16.3906 101.5 15.9219C101.234 14.1875 100.539 13.3203 99.4141 13.3203C99.1016 13.3203 98.8047 13.3984 98.5234 13.5547C97.5391 14.1484 97.0469 15.5859 97.0469 17.8672ZM112.305 22.3906C112.398 22.3906 112.484 22.3984 112.562 22.4141C112.766 22.4453 112.867 22.6406 112.867 23H107.102V22.3906C107.305 22.3906 107.484 22.375 107.641 22.3438C108.188 22.25 108.461 21.8594 108.461 21.1719V13.5312H107.102V12.9219H111.438V22.3906H112.305ZM111.648 9.85156C111.648 10.1484 111.57 10.4297 111.414 10.6953C111.086 11.2734 110.578 11.5625 109.891 11.5625C109.609 11.5625 109.336 11.4922 109.07 11.3516C108.461 11.0391 108.156 10.5391 108.156 9.85156C108.156 9.55469 108.227 9.27344 108.367 9.00781C108.711 8.39844 109.219 8.09375 109.891 8.09375C110.188 8.09375 110.469 8.17188 110.734 8.32812C111.344 8.65625 111.648 9.16406 111.648 9.85156ZM113.688 13.6484V13.0391H115.305V10.8125L118.281 10.3203V13.0391H121.375V13.6484H118.281V20.75C118.281 20.9531 118.297 21.1484 118.328 21.3359C118.453 22.1484 118.805 22.5547 119.383 22.5547C119.477 22.5547 119.57 22.5469 119.664 22.5312C120.273 22.4062 120.734 21.7109 121.047 20.4453L121.68 20.5391C121.555 21.1797 121.383 21.6953 121.164 22.0859C120.711 22.8672 119.883 23.2578 118.68 23.2578C118.492 23.2578 118.305 23.25 118.117 23.2344C116.242 23.0156 115.305 21.7734 115.305 19.5078V13.6484H113.688ZM124.844 26.75C125 26.75 125.164 26.7188 125.336 26.6562C126.023 26.4062 126.742 25.3516 127.492 23.4922L122.922 13.5078H121.938V12.9219H127.445V13.5078H126.016L128.852 20.0469L131.406 13.5078H129.648V12.9219H133.281C133.281 13 133.273 13.0781 133.258 13.1562C133.227 13.3906 133.039 13.5078 132.695 13.5078C132.445 13.5391 132.188 13.7656 131.922 14.1875L128.406 23.3047C128.109 24.0859 127.797 24.75 127.469 25.2969C126.609 26.8125 125.523 27.5703 124.211 27.5703C123.633 27.5703 123.125 27.4531 122.688 27.2188C122.062 26.8906 121.75 26.4688 121.75 25.9531C121.75 25.8438 121.766 25.7266 121.797 25.6016C121.953 25.1172 122.312 24.875 122.875 24.875C123.141 24.875 123.375 24.9453 123.578 25.0859C123.75 25.2266 123.945 25.5703 124.164 26.1172C124.336 26.5391 124.562 26.75 124.844 26.75ZM137.289 15.2188C137.289 15.5 137.227 15.7656 137.102 16.0156C136.789 16.5781 136.297 16.8594 135.625 16.8594C135.359 16.8594 135.109 16.7969 134.875 16.6719C134.281 16.375 133.984 15.8906 133.984 15.2188C133.984 14.9531 134.047 14.6953 134.172 14.4453C134.484 13.8516 134.969 13.5547 135.625 13.5547C135.891 13.5547 136.148 13.6172 136.398 13.7422C136.992 14.0703 137.289 14.5625 137.289 15.2188ZM137.289 20.5625C137.289 20.8438 137.227 21.1094 137.102 21.3594C136.789 21.9219 136.297 22.2031 135.625 22.2031C135.359 22.2031 135.109 22.1406 134.875 22.0156C134.281 21.7188 133.984 21.2344 133.984 20.5625C133.984 20.2656 134.055 19.9766 134.195 19.6953C134.523 19.0859 135 18.7812 135.625 18.7812C135.922 18.7812 136.211 18.875 136.492 19.0625C137.023 19.4219 137.289 19.9219 137.289 20.5625ZM148.586 23.2344C147.258 23.2344 146.148 22.9297 145.258 22.3203C144.242 21.6016 143.734 20.6797 143.734 19.5547C143.734 19.2266 143.781 18.9062 143.875 18.5938C144.234 17.3281 145.203 16.4062 146.781 15.8281C146.578 15.7031 146.391 15.5781 146.219 15.4531C144.766 14.4688 144.039 13.3906 144.039 12.2188C144.039 11.2812 144.359 10.4844 145 9.82812C145.891 8.92188 147.133 8.46875 148.727 8.46875C149.555 8.46875 150.297 8.59375 150.953 8.84375C152.391 9.39062 153.109 10.3984 153.109 11.8672C153.109 12.0391 153.094 12.2188 153.062 12.4062C152.844 13.5312 152.102 14.4609 150.836 15.1953C151.18 15.3984 151.492 15.5859 151.773 15.7578C153.289 16.7422 154.047 17.8594 154.047 19.1094C154.031 20.1719 153.617 21.0781 152.805 21.8281C151.742 22.7656 150.336 23.2344 148.586 23.2344ZM146.617 11.2344C146.617 11.8281 146.852 12.3828 147.32 12.8984C147.758 13.3828 148.703 14.0234 150.156 14.8203C150.375 14.6953 150.594 14.5547 150.812 14.3984C151.781 13.6641 152.266 12.8125 152.266 11.8438C152.266 11.2969 152.125 10.8125 151.844 10.3906C151.297 9.57812 150.406 9.17188 149.172 9.17188C148.828 9.17188 148.492 9.21094 148.164 9.28906C147.133 9.58594 146.617 10.2344 146.617 11.2344ZM144.578 19.4844C144.578 20.2344 144.852 20.8828 145.398 21.4297C146.133 22.1641 147.07 22.5312 148.211 22.5312C148.758 22.5312 149.266 22.4531 149.734 22.2969C150.859 21.9062 151.422 21.1797 151.422 20.1172C151.406 19.3828 151.031 18.6875 150.297 18.0312C149.906 17.6875 148.992 17.1016 147.555 16.2734C147.023 16.4141 146.547 16.6094 146.125 16.8594C145.094 17.5 144.578 18.375 144.578 19.4844ZM166.445 10.9766L161.031 16.6719C161.516 16.5781 162.016 16.5312 162.531 16.5312C163.609 16.5312 164.523 16.7266 165.273 17.1172C166.477 17.7578 167.078 18.7578 167.078 20.1172C167.078 21.1328 166.75 22.0469 166.094 22.8594C164.984 24.2031 163.305 24.875 161.055 24.875C160.133 24.875 159.297 24.7578 158.547 24.5234C157.016 24.0078 156.25 23.125 156.25 21.875C156.25 21.7344 156.266 21.5938 156.297 21.4531C156.453 20.7344 156.938 20.375 157.75 20.375C158.141 20.375 158.453 20.4688 158.688 20.6562C158.938 20.8906 159.086 21.4062 159.133 22.2031C159.164 22.6094 159.195 22.9062 159.227 23.0938C159.398 23.8594 159.93 24.2422 160.82 24.2422C162.914 24.2266 163.977 22.9609 164.008 20.4453C164.008 20.1328 163.984 19.8281 163.938 19.5312C163.703 18.0469 162.953 17.3047 161.688 17.3047C161.172 17.3047 160.648 17.4141 160.117 17.6328L159.508 17.1406L163.562 12.5H159.789C159.43 12.5 159.156 12.5156 158.969 12.5469C158.531 12.6406 158.195 12.9766 157.961 13.5547L157.539 14.6328H156.953L157 10.3438H166.445V10.9766Z" fill="black"/>
</svg>
