<svg width="42" height="30" viewBox="0 0 42 30" fill="none" xmlns="http://www.w3.org/2000/svg">
<path d="M1.75327 17.7655L17.8872 29.5334C18.2864 29.8295 18.7434 29.9895 19.2106 29.9966C19.6777 30.0038 20.1379 29.8578 20.543 29.5741C20.9826 29.262 21.3466 28.8137 21.598 28.2747C21.8495 27.7356 21.9795 27.1251 21.9747 26.505V18.2726L37.4125 29.5366C37.8116 29.8326 38.2686 29.9926 38.7358 29.9997C39.203 30.0069 39.6632 29.861 40.0683 29.5772C40.5078 29.2651 40.8718 28.8168 41.1233 28.2778C41.3747 27.7388 41.5047 27.1282 41.5 26.5081V3.49291C41.5049 2.87266 41.375 2.26188 41.1235 1.72265C40.872 1.18342 40.508 0.734953 40.0683 0.422819C39.6632 0.139046 39.203 -0.00689507 38.7358 0.000249863C38.2686 0.00739479 37.8116 0.167362 37.4125 0.463436L21.9747 11.7326V3.49707C21.9802 2.87612 21.8506 2.26448 21.5991 1.72445C21.3476 1.18443 20.9832 0.735302 20.543 0.422819C20.1379 0.139046 19.6777 -0.00689507 19.2106 0.000249863C18.7434 0.00739479 18.2864 0.167362 17.8872 0.463436L1.75327 12.2314C1.36972 12.5243 1.05352 12.9312 0.834316 13.414C0.615116 13.8967 0.500122 14.4394 0.500122 14.9911C0.500122 15.5429 0.615116 16.0856 0.834316 16.5683C1.05352 17.0511 1.36972 17.458 1.75327 17.7509V17.7655Z" fill="white"/>
</svg>
