<svg width="75" height="75" viewBox="0 0 75 75" fill="none" xmlns="http://www.w3.org/2000/svg">
<path d="M27.2727 27.2727H34.0909V47.7273H27.2727V27.2727ZM47.7273 47.7273H40.9091V27.2727H47.7273V47.7273Z" fill="white"/>
<path fill-rule="evenodd" clip-rule="evenodd" d="M75 37.5C75 58.2102 58.2102 75 37.5 75C16.7898 75 0 58.2102 0 37.5C0 16.7898 16.7898 0 37.5 0C58.2102 0 75 16.7898 75 37.5ZM68.1818 37.5C68.1818 41.5292 67.3882 45.5189 65.8463 49.2414C64.3044 52.9639 62.0444 56.3463 59.1953 59.1953C56.3463 62.0444 52.9639 64.3044 49.2414 65.8463C45.5189 67.3882 41.5292 68.1818 37.5 68.1818C33.4708 68.1818 29.4811 67.3882 25.7586 65.8463C22.0361 64.3044 18.6537 62.0444 15.8047 59.1953C12.9556 56.3463 10.6956 52.9639 9.1537 49.2414C7.61179 45.5189 6.81818 41.5292 6.81818 37.5C6.81818 29.3627 10.0507 21.5586 15.8047 15.8047C21.5586 10.0507 29.3627 6.81818 37.5 6.81818C45.6373 6.81818 53.4414 10.0507 59.1953 15.8047C64.9493 21.5586 68.1818 29.3627 68.1818 37.5Z" fill="white"/>
</svg>
