<svg width="75" height="75" viewBox="0 0 75 75" fill="none" xmlns="http://www.w3.org/2000/svg">
<path d="M32.4375 51.5625L50.7187 39.8437C51.5937 39.2812 52.0312 38.5 52.0312 37.5C52.0312 36.5 51.5937 35.7187 50.7187 35.1562L32.4375 23.4375C31.5 22.8125 30.5462 22.765 29.5762 23.295C28.6062 23.825 28.1225 24.6537 28.125 25.7812V49.2187C28.125 50.3437 28.61 51.1725 29.58 51.705C30.55 52.2375 31.5025 52.19 32.4375 51.5625ZM37.5 75C32.3125 75 27.4375 74.015 22.875 72.045C18.3125 70.075 14.3437 67.4037 10.9687 64.0312C7.59375 60.6587 4.9225 56.69 2.955 52.125C0.987504 47.56 0.00250475 42.685 4.74683e-06 37.5C-0.00249525 32.315 0.982504 27.44 2.955 22.875C4.9275 18.31 7.59875 14.3412 10.9687 10.9687C14.3387 7.59625 18.3075 4.925 22.875 2.955C27.4425 0.985 32.3175 0 37.5 0C42.6825 0 47.5575 0.985 52.125 2.955C56.6925 4.925 60.6612 7.59625 64.0312 10.9687C67.4012 14.3412 70.0737 18.31 72.0487 22.875C74.0237 27.44 75.0075 32.315 75 37.5C74.9925 42.685 74.0075 47.56 72.045 52.125C70.0825 56.69 67.4112 60.6587 64.0312 64.0312C60.6512 67.4037 56.6825 70.0762 52.125 72.0487C47.5675 74.0212 42.6925 75.005 37.5 75ZM37.5 67.5C45.875 67.5 52.9687 64.5937 58.7812 58.7812C64.5937 52.9687 67.5 45.875 67.5 37.5C67.5 29.125 64.5937 22.0312 58.7812 16.2187C52.9687 10.4062 45.875 7.5 37.5 7.5C29.125 7.5 22.0312 10.4062 16.2187 16.2187C10.4062 22.0312 7.5 29.125 7.5 37.5C7.5 45.875 10.4062 52.9687 16.2187 58.7812C22.0312 64.5937 29.125 67.5 37.5 67.5Z" fill="white"/>
</svg>
