<svg width="42" height="31" viewBox="0 0 42 31" fill="none" xmlns="http://www.w3.org/2000/svg">
<path d="M39.8344 12.7713L23.7004 1.00337C23.3013 0.707299 22.8442 0.547333 22.3771 0.540188C21.9099 0.533044 21.4497 0.678983 21.0446 0.962759C20.605 1.2748 20.2411 1.72311 19.9896 2.26214C19.7381 2.80117 19.6082 3.41173 19.6129 4.0318V12.2642L4.17516 1.00025C3.77603 0.704175 3.31899 0.544209 2.85181 0.537064C2.38463 0.52992 1.92445 0.675859 1.51935 0.959634C1.07979 1.27168 0.715803 1.71998 0.464348 2.25901C0.212892 2.79804 0.0829256 3.4086 0.0876479 4.02868V27.0439C0.0827743 27.6642 0.212669 28.2749 0.464132 28.8142C0.715595 29.3534 1.07966 29.8019 1.51935 30.114C1.92445 30.3978 2.38463 30.5437 2.85181 30.5366C3.31899 30.5294 3.77603 30.3695 4.17516 30.0734L19.6129 18.8042V27.0397C19.6074 27.6607 19.737 28.2723 19.9885 28.8124C20.24 29.3524 20.6044 29.8015 21.0446 30.114C21.4497 30.3978 21.9099 30.5437 22.3771 30.5366C22.8442 30.5294 23.3013 30.3695 23.7004 30.0734L39.8344 18.3054C40.2179 18.0125 40.5341 17.6056 40.7533 17.1229C40.9725 16.6401 41.0875 16.0974 41.0875 15.5457C41.0875 14.9939 40.9725 14.4512 40.7533 13.9685C40.5341 13.4857 40.2179 13.0788 39.8344 12.7859V12.7713Z" fill="white"/>
</svg>
