<svg width="363" height="125" viewBox="0 0 363 125" fill="none" xmlns="http://www.w3.org/2000/svg">
<rect x="2" y="53" width="71.7087" height="71" rx="4" fill="#0094FF" stroke="black" stroke-width="2"/>
<path d="M2 57C2 54.7909 3.79086 53 6 53H70C72.2091 53 74 54.7909 74 57V79H2V57Z" fill="#FFE500" stroke="black" stroke-width="2"/>
<path d="M14.96 63.152C15.1093 63.1733 15.232 63.184 15.328 63.184C15.424 63.184 15.5253 63.184 15.632 63.184C16.208 63.184 16.6667 63.0773 17.008 62.864C17.3493 62.6507 17.52 62.368 17.52 62.016C17.52 61.696 17.3707 61.4507 17.072 61.28C16.784 61.1093 16.3573 61.024 15.792 61.024C15.6107 61.024 15.4453 61.0347 15.296 61.056C15.1573 61.0667 15.0453 61.088 14.96 61.12V63.152ZM12.448 72C12.4587 71.5093 12.464 71.0347 12.464 70.576C12.4747 70.1067 12.48 69.648 12.48 69.2C12.4907 68.7413 12.496 68.2827 12.496 67.824C12.496 67.3653 12.496 66.8907 12.496 66.4C12.496 65.0027 12.4853 63.664 12.464 62.384C12.4533 61.104 12.4267 59.9627 12.384 58.96C12.9813 58.8747 13.5947 58.816 14.224 58.784C14.8533 58.7413 15.4187 58.72 15.92 58.72C18.8853 58.72 20.368 59.5787 20.368 61.296C20.368 61.968 20.1707 62.544 19.776 63.024C19.392 63.4933 18.88 63.7813 18.24 63.888C19.2747 64.08 20.032 64.48 20.512 65.088C20.992 65.6853 21.232 66.5333 21.232 67.632C21.232 69.1787 20.752 70.3253 19.792 71.072C18.832 71.808 17.3387 72.176 15.312 72.176C14.9173 72.176 14.4747 72.16 13.984 72.128C13.504 72.1067 12.992 72.064 12.448 72ZM14.96 67.696C15.0667 67.728 15.2267 67.7547 15.44 67.776C15.6533 67.7973 15.8613 67.808 16.064 67.808C16.736 67.808 17.2427 67.7013 17.584 67.488C17.936 67.2747 18.112 66.9707 18.112 66.576C18.112 66.1707 17.9253 65.8613 17.552 65.648C17.1893 65.4347 16.6827 65.328 16.032 65.328C15.8933 65.328 15.7387 65.3333 15.568 65.344C15.408 65.3547 15.2053 65.3707 14.96 65.392V67.696ZM21.7758 72C21.8078 70.9867 21.8291 69.9787 21.8398 68.976C21.8504 67.9627 21.8558 67.0027 21.8558 66.096C21.8558 64.8053 21.8451 63.5787 21.8238 62.416C21.8131 61.2533 21.7971 60.0853 21.7758 58.912C22.2984 58.8587 22.8211 58.816 23.3438 58.784C23.8771 58.7413 24.4158 58.72 24.9598 58.72C25.7384 58.72 26.4691 58.7787 27.1518 58.896C27.8344 59.0027 28.4264 59.2107 28.9278 59.52C29.4291 59.8187 29.8238 60.2347 30.1118 60.768C30.4104 61.3013 30.5598 61.9893 30.5598 62.832C30.5598 63.8773 30.3411 64.6987 29.9038 65.296C29.4771 65.8933 28.8958 66.3413 28.1598 66.64L30.7678 72H27.9198L25.7918 67.12C25.3544 67.152 24.9011 67.168 24.4318 67.168C24.4318 67.9893 24.4371 68.7947 24.4478 69.584C24.4584 70.3733 24.4904 71.1787 24.5438 72H21.7758ZM24.4318 64.736C24.7624 64.768 25.0664 64.784 25.3438 64.784C26.0691 64.784 26.5811 64.6507 26.8798 64.384C27.1891 64.1067 27.3438 63.696 27.3438 63.152C27.3438 62.8213 27.2958 62.5547 27.1998 62.352C27.1144 62.1493 26.9918 61.9893 26.8318 61.872C26.6824 61.7547 26.5011 61.6747 26.2878 61.632C26.0851 61.5893 25.8664 61.568 25.6318 61.568C25.4611 61.568 25.2691 61.5787 25.0558 61.6C24.8531 61.6107 24.6451 61.632 24.4318 61.664V64.736ZM30.7016 72L33.0696 58.912H37.0216L39.3736 72H36.6696L36.2696 69.376H33.8056L33.4216 72H30.7016ZM34.2376 66.512H35.8376L35.0376 61.232L34.2376 66.512ZM46.1285 58.912H48.4165C48.3845 61.088 48.3685 63.2693 48.3685 65.456C48.3685 67.6427 48.3845 69.824 48.4165 72H45.3285L41.9365 64.176V72H39.7445C39.7658 70.9013 39.7818 69.8133 39.7925 68.736C39.8032 67.648 39.8085 66.5547 39.8085 65.456C39.8085 64.3573 39.8032 63.2693 39.7925 62.192C39.7818 61.104 39.7658 60.0107 39.7445 58.912H42.9765L46.1285 66.72V58.912ZM49.2434 58.96C49.8514 58.8747 50.4327 58.816 50.9874 58.784C51.542 58.7413 52.0167 58.72 52.4114 58.72C53.35 58.72 54.214 58.848 55.0034 59.104C55.7927 59.36 56.486 59.8187 57.0834 60.48C57.6274 61.0987 58.0327 61.8507 58.2994 62.736C58.566 63.6107 58.6994 64.5547 58.6994 65.568C58.6994 66.56 58.5714 67.4613 58.3154 68.272C58.0594 69.0827 57.6647 69.776 57.1314 70.352C56.6087 70.928 55.9474 71.376 55.1474 71.696C54.3474 72.016 53.4034 72.176 52.3154 72.176C52.07 72.176 51.67 72.1653 51.1154 72.144C50.5714 72.1227 49.9687 72.0747 49.3074 72C49.318 71.5093 49.3234 71.0347 49.3234 70.576C49.334 70.1067 49.3394 69.648 49.3394 69.2C49.35 68.7413 49.3554 68.2827 49.3554 67.824C49.3554 67.3653 49.3554 66.8907 49.3554 66.4C49.3554 65.0027 49.3447 63.664 49.3234 62.384C49.3127 61.104 49.286 59.9627 49.2434 58.96ZM52.3474 61.376C52.2407 61.376 52.1394 61.3813 52.0434 61.392C51.958 61.4027 51.8727 61.4133 51.7874 61.424C51.7767 61.9253 51.7714 62.4267 51.7714 62.928C51.7714 63.4187 51.7714 63.9147 51.7714 64.416C51.7714 64.6613 51.7714 64.9227 51.7714 65.2C51.782 65.4773 51.7874 65.7653 51.7874 66.064C51.798 66.352 51.8087 66.6453 51.8194 66.944C51.83 67.232 51.8354 67.504 51.8354 67.76C51.9314 67.7813 52.0274 67.7973 52.1234 67.808C52.2194 67.808 52.3047 67.808 52.3794 67.808C52.774 67.808 53.1367 67.7227 53.4674 67.552C53.8087 67.3813 54.102 67.152 54.3474 66.864C54.6034 66.5653 54.8007 66.2187 54.9394 65.824C55.078 65.4293 55.1474 65.008 55.1474 64.56C55.1474 64.2293 55.0994 63.8773 55.0034 63.504C54.918 63.12 54.7634 62.7733 54.5394 62.464C54.326 62.1547 54.038 61.8987 53.6754 61.696C53.3234 61.4827 52.8807 61.376 52.3474 61.376Z" fill="black"/>
<rect x="99" y="53" width="71.7087" height="71" rx="4" fill="#0094FF" stroke="black" stroke-width="2"/>
<path d="M99 57C99 54.7909 100.791 53 103 53H167C169.209 53 171 54.7909 171 57V79H99V57Z" fill="#FFE500" stroke="black" stroke-width="2"/>
<path d="M109.432 72C109.464 70.9867 109.485 69.9787 109.496 68.976C109.507 67.9627 109.512 67.0027 109.512 66.096C109.512 64.8053 109.501 63.5787 109.48 62.416C109.469 61.2533 109.453 60.0853 109.432 58.912C109.955 58.8587 110.477 58.816 111 58.784C111.533 58.7413 112.072 58.72 112.616 58.72C113.395 58.72 114.125 58.7787 114.808 58.896C115.491 59.0027 116.083 59.2107 116.584 59.52C117.085 59.8187 117.48 60.2347 117.768 60.768C118.067 61.3013 118.216 61.9893 118.216 62.832C118.216 63.8773 117.997 64.6987 117.56 65.296C117.133 65.8933 116.552 66.3413 115.816 66.64L118.424 72H115.576L113.448 67.12C113.011 67.152 112.557 67.168 112.088 67.168C112.088 67.9893 112.093 68.7947 112.104 69.584C112.115 70.3733 112.147 71.1787 112.2 72H109.432ZM112.088 64.736C112.419 64.768 112.723 64.784 113 64.784C113.725 64.784 114.237 64.6507 114.536 64.384C114.845 64.1067 115 63.696 115 63.152C115 62.8213 114.952 62.5547 114.856 62.352C114.771 62.1493 114.648 61.9893 114.488 61.872C114.339 61.7547 114.157 61.6747 113.944 61.632C113.741 61.5893 113.523 61.568 113.288 61.568C113.117 61.568 112.925 61.5787 112.712 61.6C112.509 61.6107 112.301 61.632 112.088 61.664V64.736ZM124.79 72.048C124.491 72.0373 124.097 72.0267 123.606 72.016C123.115 72.016 122.587 72.0107 122.022 72C121.467 72 120.907 72 120.342 72C119.787 72 119.297 72 118.87 72C118.881 71.776 118.886 71.4773 118.886 71.104C118.897 70.7307 118.902 70.304 118.902 69.824C118.902 69.344 118.902 68.8267 118.902 68.272C118.902 67.7067 118.902 67.1253 118.902 66.528C118.902 65.7173 118.897 64.9067 118.886 64.096C118.886 63.2853 118.886 62.5333 118.886 61.84C118.886 61.136 118.881 60.528 118.87 60.016C118.87 59.504 118.87 59.1413 118.87 58.928C119.286 58.928 119.745 58.928 120.246 58.928C120.747 58.928 121.259 58.928 121.782 58.928C122.305 58.9173 122.817 58.9067 123.318 58.896C123.819 58.8853 124.289 58.8747 124.726 58.864C124.726 59.0027 124.726 59.1253 124.726 59.232C124.737 59.328 124.742 59.4667 124.742 59.648C124.742 59.776 124.737 59.9307 124.726 60.112C124.726 60.2827 124.721 60.464 124.71 60.656C124.71 60.8373 124.705 61.024 124.694 61.216C124.694 61.3973 124.689 61.568 124.678 61.728H121.462V63.584H124.262V65.968H121.462V67.76H124.726C124.737 68.0053 124.747 68.256 124.758 68.512C124.769 68.768 124.774 69.056 124.774 69.376C124.785 69.696 124.79 70.0747 124.79 70.512C124.79 70.9387 124.79 71.4507 124.79 72.048ZM125.511 72C125.521 71.8293 125.527 71.5413 125.527 71.136C125.537 70.72 125.543 70.2347 125.543 69.68C125.543 69.1147 125.543 68.496 125.543 67.824C125.543 67.152 125.543 66.464 125.543 65.76C125.543 65.056 125.543 64.3573 125.543 63.664C125.543 62.96 125.543 62.304 125.543 61.696C125.543 61.088 125.537 60.544 125.527 60.064C125.527 59.584 125.521 59.2053 125.511 58.928C125.927 58.928 126.385 58.928 126.887 58.928C127.388 58.9173 127.9 58.912 128.423 58.912C128.945 58.9013 129.457 58.8907 129.959 58.88C130.46 58.8693 130.929 58.8587 131.367 58.848C131.377 59.008 131.383 59.1627 131.383 59.312C131.383 59.4613 131.383 59.6107 131.383 59.76C131.383 60.0693 131.377 60.3893 131.367 60.72C131.356 61.0507 131.34 61.3813 131.319 61.712H128.103V64.112H130.775V66.832H128.103C128.103 67.3653 128.103 67.8933 128.103 68.416C128.113 68.9387 128.119 69.4293 128.119 69.888C128.129 70.3467 128.14 70.7627 128.151 71.136C128.161 71.4987 128.172 71.7867 128.183 72H125.511ZM137.899 72.048C137.601 72.0373 137.206 72.0267 136.715 72.016C136.225 72.016 135.697 72.0107 135.131 72C134.577 72 134.017 72 133.451 72C132.897 72 132.406 72 131.979 72C131.99 71.776 131.995 71.4773 131.995 71.104C132.006 70.7307 132.011 70.304 132.011 69.824C132.011 69.344 132.011 68.8267 132.011 68.272C132.011 67.7067 132.011 67.1253 132.011 66.528C132.011 65.7173 132.006 64.9067 131.995 64.096C131.995 63.2853 131.995 62.5333 131.995 61.84C131.995 61.136 131.99 60.528 131.979 60.016C131.979 59.504 131.979 59.1413 131.979 58.928C132.395 58.928 132.854 58.928 133.355 58.928C133.857 58.928 134.369 58.928 134.891 58.928C135.414 58.9173 135.926 58.9067 136.427 58.896C136.929 58.8853 137.398 58.8747 137.835 58.864C137.835 59.0027 137.835 59.1253 137.835 59.232C137.846 59.328 137.851 59.4667 137.851 59.648C137.851 59.776 137.846 59.9307 137.835 60.112C137.835 60.2827 137.83 60.464 137.819 60.656C137.819 60.8373 137.814 61.024 137.803 61.216C137.803 61.3973 137.798 61.568 137.787 61.728H134.571V63.584H137.371V65.968H134.571V67.76H137.835C137.846 68.0053 137.857 68.256 137.867 68.512C137.878 68.768 137.883 69.056 137.883 69.376C137.894 69.696 137.899 70.0747 137.899 70.512C137.899 70.9387 137.899 71.4507 137.899 72.048ZM138.604 72C138.636 70.9867 138.657 69.9787 138.668 68.976C138.679 67.9627 138.684 67.0027 138.684 66.096C138.684 64.8053 138.673 63.5787 138.652 62.416C138.641 61.2533 138.625 60.0853 138.604 58.912C139.127 58.8587 139.649 58.816 140.172 58.784C140.705 58.7413 141.244 58.72 141.788 58.72C142.567 58.72 143.297 58.7787 143.98 58.896C144.663 59.0027 145.255 59.2107 145.756 59.52C146.257 59.8187 146.652 60.2347 146.94 60.768C147.239 61.3013 147.388 61.9893 147.388 62.832C147.388 63.8773 147.169 64.6987 146.732 65.296C146.305 65.8933 145.724 66.3413 144.988 66.64L147.596 72H144.748L142.62 67.12C142.183 67.152 141.729 67.168 141.26 67.168C141.26 67.9893 141.265 68.7947 141.276 69.584C141.287 70.3733 141.319 71.1787 141.372 72H138.604ZM141.26 64.736C141.591 64.768 141.895 64.784 142.172 64.784C142.897 64.784 143.409 64.6507 143.708 64.384C144.017 64.1067 144.172 63.696 144.172 63.152C144.172 62.8213 144.124 62.5547 144.028 62.352C143.943 62.1493 143.82 61.9893 143.66 61.872C143.511 61.7547 143.329 61.6747 143.116 61.632C142.913 61.5893 142.695 61.568 142.46 61.568C142.289 61.568 142.097 61.5787 141.884 61.6C141.681 61.6107 141.473 61.632 141.26 61.664V64.736Z" fill="black"/>
<rect x="194" y="53" width="71.7087" height="71" rx="4" fill="#0094FF" stroke="black" stroke-width="2"/>
<path d="M194 57C194 54.7909 195.791 53 198 53H262C264.209 53 266 54.7909 266 57V79H194V57Z" fill="#FFE500" stroke="black" stroke-width="2"/>
<path d="M212.288 63.984L210.224 71.44H208.736L206.8 64.192C206.811 65.4933 206.832 66.8053 206.864 68.128C206.907 69.4507 206.939 70.7413 206.96 72H204.432C204.453 70.9013 204.469 69.8133 204.48 68.736C204.491 67.648 204.496 66.5547 204.496 65.456C204.496 64.3573 204.491 63.2693 204.48 62.192C204.469 61.104 204.453 60.0107 204.432 58.912H207.856L209.552 66.416L211.456 58.912H214.688C214.656 61.088 214.64 63.2693 214.64 65.456C214.64 67.6427 214.656 69.824 214.688 72H212.128L212.288 63.984ZM220.005 58.72C221.594 58.72 222.767 59.2853 223.525 60.416C224.282 61.5467 224.661 63.1893 224.661 65.344C224.661 67.5307 224.287 69.216 223.541 70.4C222.805 71.584 221.626 72.176 220.005 72.176C219.205 72.176 218.511 72.0267 217.925 71.728C217.338 71.4187 216.853 70.976 216.469 70.4C216.085 69.8133 215.802 69.0987 215.621 68.256C215.439 67.4027 215.349 66.432 215.349 65.344C215.349 63.1573 215.727 61.5093 216.485 60.4C217.242 59.28 218.415 58.72 220.005 58.72ZM220.005 68.048C220.346 68.048 220.645 67.9733 220.901 67.824C221.167 67.664 221.386 67.4507 221.557 67.184C221.727 66.9067 221.855 66.5813 221.941 66.208C222.026 65.824 222.069 65.4027 222.069 64.944C222.069 64.4853 222.026 64.064 221.941 63.68C221.855 63.2853 221.727 62.944 221.557 62.656C221.386 62.368 221.167 62.144 220.901 61.984C220.645 61.824 220.346 61.744 220.005 61.744C219.663 61.744 219.365 61.8293 219.109 62C218.863 62.16 218.65 62.384 218.469 62.672C218.298 62.96 218.17 63.3013 218.085 63.696C217.999 64.08 217.957 64.496 217.957 64.944C217.957 65.4027 217.999 65.824 218.085 66.208C218.17 66.5813 218.298 66.9067 218.469 67.184C218.65 67.4507 218.863 67.664 219.109 67.824C219.365 67.9733 219.663 68.048 220.005 68.048ZM225.259 58.96C225.867 58.8747 226.448 58.816 227.003 58.784C227.558 58.7413 228.032 58.72 228.427 58.72C229.366 58.72 230.23 58.848 231.019 59.104C231.808 59.36 232.502 59.8187 233.099 60.48C233.643 61.0987 234.048 61.8507 234.315 62.736C234.582 63.6107 234.715 64.5547 234.715 65.568C234.715 66.56 234.587 67.4613 234.331 68.272C234.075 69.0827 233.68 69.776 233.147 70.352C232.624 70.928 231.963 71.376 231.163 71.696C230.363 72.016 229.419 72.176 228.331 72.176C228.086 72.176 227.686 72.1653 227.131 72.144C226.587 72.1227 225.984 72.0747 225.323 72C225.334 71.5093 225.339 71.0347 225.339 70.576C225.35 70.1067 225.355 69.648 225.355 69.2C225.366 68.7413 225.371 68.2827 225.371 67.824C225.371 67.3653 225.371 66.8907 225.371 66.4C225.371 65.0027 225.36 63.664 225.339 62.384C225.328 61.104 225.302 59.9627 225.259 58.96ZM228.363 61.376C228.256 61.376 228.155 61.3813 228.059 61.392C227.974 61.4027 227.888 61.4133 227.803 61.424C227.792 61.9253 227.787 62.4267 227.787 62.928C227.787 63.4187 227.787 63.9147 227.787 64.416C227.787 64.6613 227.787 64.9227 227.787 65.2C227.798 65.4773 227.803 65.7653 227.803 66.064C227.814 66.352 227.824 66.6453 227.835 66.944C227.846 67.232 227.851 67.504 227.851 67.76C227.947 67.7813 228.043 67.7973 228.139 67.808C228.235 67.808 228.32 67.808 228.395 67.808C228.79 67.808 229.152 67.7227 229.483 67.552C229.824 67.3813 230.118 67.152 230.363 66.864C230.619 66.5653 230.816 66.2187 230.955 65.824C231.094 65.4293 231.163 65.008 231.163 64.56C231.163 64.2293 231.115 63.8773 231.019 63.504C230.934 63.12 230.779 62.7733 230.555 62.464C230.342 62.1547 230.054 61.8987 229.691 61.696C229.339 61.4827 228.896 61.376 228.363 61.376ZM241.243 72.048C240.944 72.0373 240.55 72.0267 240.059 72.016C239.568 72.016 239.04 72.0107 238.475 72C237.92 72 237.36 72 236.795 72C236.24 72 235.75 72 235.323 72C235.334 71.776 235.339 71.4773 235.339 71.104C235.35 70.7307 235.355 70.304 235.355 69.824C235.355 69.344 235.355 68.8267 235.355 68.272C235.355 67.7067 235.355 67.1253 235.355 66.528C235.355 65.7173 235.35 64.9067 235.339 64.096C235.339 63.2853 235.339 62.5333 235.339 61.84C235.339 61.136 235.334 60.528 235.323 60.016C235.323 59.504 235.323 59.1413 235.323 58.928C235.739 58.928 236.198 58.928 236.699 58.928C237.2 58.928 237.712 58.928 238.235 58.928C238.758 58.9173 239.27 58.9067 239.771 58.896C240.272 58.8853 240.742 58.8747 241.179 58.864C241.179 59.0027 241.179 59.1253 241.179 59.232C241.19 59.328 241.195 59.4667 241.195 59.648C241.195 59.776 241.19 59.9307 241.179 60.112C241.179 60.2827 241.174 60.464 241.163 60.656C241.163 60.8373 241.158 61.024 241.147 61.216C241.147 61.3973 241.142 61.568 241.131 61.728H237.915V63.584H240.715V65.968H237.915V67.76H241.179C241.19 68.0053 241.2 68.256 241.211 68.512C241.222 68.768 241.227 69.056 241.227 69.376C241.238 69.696 241.243 70.0747 241.243 70.512C241.243 70.9387 241.243 71.4507 241.243 72.048ZM244.716 58.912C244.684 60.3733 244.657 61.5787 244.636 62.528C244.625 63.4773 244.614 64.2773 244.604 64.928C244.593 65.568 244.588 66.1067 244.588 66.544C244.588 66.9813 244.588 67.424 244.588 67.872L247.1 67.776C247.121 68.128 247.137 68.4747 247.148 68.816C247.158 69.1573 247.164 69.4987 247.164 69.84C247.164 70.192 247.158 70.5493 247.148 70.912C247.137 71.264 247.121 71.6267 247.1 72H241.932C241.964 70.5067 241.985 68.976 241.996 67.408C242.017 65.84 242.028 64.3093 242.028 62.816C242.028 62.1227 242.028 61.4507 242.028 60.8C242.028 60.1493 242.022 59.52 242.012 58.912H244.716Z" fill="black"/>
<rect x="290" y="53" width="71.7087" height="71" rx="4" fill="#0094FF" stroke="black" stroke-width="2"/>
<path d="M290 57C290 54.7909 291.791 53 294 53H358C360.209 53 362 54.7909 362 57V79H290V57Z" fill="#FFE500" stroke="black" stroke-width="2"/>
<path d="M306.192 58.72C306.576 58.72 306.907 58.7467 307.184 58.8C307.472 58.8427 307.739 58.9067 307.984 58.992C307.984 59.1733 307.984 59.3653 307.984 59.568C307.995 59.7707 308 59.9893 308 60.224C308 60.4587 307.995 60.7093 307.984 60.976C307.984 61.232 307.984 61.472 307.984 61.696C307.579 61.44 307.093 61.312 306.528 61.312C305.995 61.312 305.547 61.4133 305.184 61.616C304.832 61.808 304.544 62.0587 304.32 62.368C304.107 62.6773 303.952 63.0187 303.856 63.392C303.771 63.7547 303.728 64.1013 303.728 64.432C303.728 64.88 303.797 65.3013 303.936 65.696C304.075 66.0907 304.267 66.4373 304.512 66.736C304.768 67.024 305.061 67.2533 305.392 67.424C305.733 67.5947 306.101 67.68 306.496 67.68C306.677 67.68 306.907 67.6533 307.184 67.6C307.472 67.5467 307.739 67.4453 307.984 67.296C307.984 67.6693 307.984 68.0587 307.984 68.464C307.995 68.8693 308 69.264 308 69.648C308 70.0533 307.995 70.448 307.984 70.832C307.984 71.216 307.984 71.6 307.984 71.984C307.387 72.112 306.779 72.176 306.16 72.176C305.221 72.176 304.379 72.0213 303.632 71.712C302.896 71.4027 302.267 70.96 301.744 70.384C301.232 69.7973 300.837 69.0933 300.56 68.272C300.293 67.44 300.16 66.512 300.16 65.488C300.16 64.5067 300.288 63.6053 300.544 62.784C300.8 61.952 301.179 61.2373 301.68 60.64C302.192 60.032 302.821 59.5627 303.568 59.232C304.325 58.8907 305.2 58.72 306.192 58.72ZM312.989 58.72C314.578 58.72 315.752 59.2853 316.509 60.416C317.266 61.5467 317.645 63.1893 317.645 65.344C317.645 67.5307 317.272 69.216 316.525 70.4C315.789 71.584 314.61 72.176 312.989 72.176C312.189 72.176 311.496 72.0267 310.909 71.728C310.322 71.4187 309.837 70.976 309.453 70.4C309.069 69.8133 308.786 69.0987 308.605 68.256C308.424 67.4027 308.333 66.432 308.333 65.344C308.333 63.1573 308.712 61.5093 309.469 60.4C310.226 59.28 311.4 58.72 312.989 58.72ZM312.989 68.048C313.33 68.048 313.629 67.9733 313.885 67.824C314.152 67.664 314.37 67.4507 314.541 67.184C314.712 66.9067 314.84 66.5813 314.925 66.208C315.01 65.824 315.053 65.4027 315.053 64.944C315.053 64.4853 315.01 64.064 314.925 63.68C314.84 63.2853 314.712 62.944 314.541 62.656C314.37 62.368 314.152 62.144 313.885 61.984C313.629 61.824 313.33 61.744 312.989 61.744C312.648 61.744 312.349 61.8293 312.093 62C311.848 62.16 311.634 62.384 311.453 62.672C311.282 62.96 311.154 63.3013 311.069 63.696C310.984 64.08 310.941 64.496 310.941 64.944C310.941 65.4027 310.984 65.824 311.069 66.208C311.154 66.5813 311.282 66.9067 311.453 67.184C311.634 67.4507 311.848 67.664 312.093 67.824C312.349 67.9733 312.648 68.048 312.989 68.048ZM321.059 58.912C321.027 60.3733 321.001 61.5787 320.979 62.528C320.969 63.4773 320.958 64.2773 320.947 64.928C320.937 65.568 320.931 66.1067 320.931 66.544C320.931 66.9813 320.931 67.424 320.931 67.872L323.443 67.776C323.465 68.128 323.481 68.4747 323.491 68.816C323.502 69.1573 323.507 69.4987 323.507 69.84C323.507 70.192 323.502 70.5493 323.491 70.912C323.481 71.264 323.465 71.6267 323.443 72H318.275C318.307 70.5067 318.329 68.976 318.339 67.408C318.361 65.84 318.371 64.3093 318.371 62.816C318.371 62.1227 318.371 61.4507 318.371 60.8C318.371 60.1493 318.366 59.52 318.355 58.912H321.059ZM328.489 58.72C330.078 58.72 331.252 59.2853 332.009 60.416C332.766 61.5467 333.145 63.1893 333.145 65.344C333.145 67.5307 332.772 69.216 332.025 70.4C331.289 71.584 330.11 72.176 328.489 72.176C327.689 72.176 326.996 72.0267 326.409 71.728C325.822 71.4187 325.337 70.976 324.953 70.4C324.569 69.8133 324.286 69.0987 324.105 68.256C323.924 67.4027 323.833 66.432 323.833 65.344C323.833 63.1573 324.212 61.5093 324.969 60.4C325.726 59.28 326.9 58.72 328.489 58.72ZM328.489 68.048C328.83 68.048 329.129 67.9733 329.385 67.824C329.652 67.664 329.87 67.4507 330.041 67.184C330.212 66.9067 330.34 66.5813 330.425 66.208C330.51 65.824 330.553 65.4027 330.553 64.944C330.553 64.4853 330.51 64.064 330.425 63.68C330.34 63.2853 330.212 62.944 330.041 62.656C329.87 62.368 329.652 62.144 329.385 61.984C329.129 61.824 328.83 61.744 328.489 61.744C328.148 61.744 327.849 61.8293 327.593 62C327.348 62.16 327.134 62.384 326.953 62.672C326.782 62.96 326.654 63.3013 326.569 63.696C326.484 64.08 326.441 64.496 326.441 64.944C326.441 65.4027 326.484 65.824 326.569 66.208C326.654 66.5813 326.782 66.9067 326.953 67.184C327.134 67.4507 327.348 67.664 327.593 67.824C327.849 67.9733 328.148 68.048 328.489 68.048ZM333.791 72C333.823 70.9867 333.845 69.9787 333.855 68.976C333.866 67.9627 333.871 67.0027 333.871 66.096C333.871 64.8053 333.861 63.5787 333.839 62.416C333.829 61.2533 333.813 60.0853 333.791 58.912C334.314 58.8587 334.837 58.816 335.359 58.784C335.893 58.7413 336.431 58.72 336.975 58.72C337.754 58.72 338.485 58.7787 339.167 58.896C339.85 59.0027 340.442 59.2107 340.943 59.52C341.445 59.8187 341.839 60.2347 342.127 60.768C342.426 61.3013 342.575 61.9893 342.575 62.832C342.575 63.8773 342.357 64.6987 341.919 65.296C341.493 65.8933 340.911 66.3413 340.175 66.64L342.783 72H339.935L337.807 67.12C337.37 67.152 336.917 67.168 336.447 67.168C336.447 67.9893 336.453 68.7947 336.463 69.584C336.474 70.3733 336.506 71.1787 336.559 72H333.791ZM336.447 64.736C336.778 64.768 337.082 64.784 337.359 64.784C338.085 64.784 338.597 64.6507 338.895 64.384C339.205 64.1067 339.359 63.696 339.359 63.152C339.359 62.8213 339.311 62.5547 339.215 62.352C339.13 62.1493 339.007 61.9893 338.847 61.872C338.698 61.7547 338.517 61.6747 338.303 61.632C338.101 61.5893 337.882 61.568 337.647 61.568C337.477 61.568 337.285 61.5787 337.071 61.6C336.869 61.6107 336.661 61.632 336.447 61.664V64.736Z" fill="black"/>
<path d="M4.69531 6.32031L3.35156 3.39062H8.10938L13.7969 15.0078H8.69531L7.83594 13.1484H3.25781L2.40625 15.0078H0.429688L4.69531 6.32031ZM7.01562 11.3594L5.54688 8.17188L4.08594 11.3594H7.01562ZM17.4297 5.17188H14.1172V3.38281H25.2578V5.17188H21.9453V15H17.4297V5.17188ZM28.9922 5.17188H25.6797V3.38281H36.8203V5.17188H33.5078V15H28.9922V5.17188ZM38.5156 3.39062H45.2109C46.0755 3.39062 46.8307 3.48177 47.4766 3.66406C48.1276 3.84635 48.6693 4.10156 49.1016 4.42969C49.5391 4.75781 49.8672 5.15104 50.0859 5.60938C50.3047 6.06771 50.4141 6.57292 50.4141 7.125C50.4141 7.80729 50.2526 8.41406 49.9297 8.94531C49.6068 9.47135 49.1276 9.89062 48.4922 10.2031L50.9297 15.0078H45.8281L43.9844 10.7891H43.0312V15H38.5156V3.39062ZM43.3047 9.375C43.6745 9.375 44.0052 9.32292 44.2969 9.21875C44.5885 9.11458 44.8359 8.96875 45.0391 8.78125C45.2422 8.58854 45.3984 8.36198 45.5078 8.10156C45.6172 7.83594 45.6719 7.54688 45.6719 7.23438C45.6719 6.92188 45.6172 6.63542 45.5078 6.375C45.3984 6.10938 45.2422 5.88281 45.0391 5.69531C44.8359 5.5026 44.5885 5.35417 44.2969 5.25C44.0052 5.14583 43.6745 5.09375 43.3047 5.09375H43.0391L43.0312 9.375H43.3047ZM53.0938 3.39062H57.6172L57.6094 15H53.0938V3.39062ZM60.5938 3.39062H66.7344C67.599 3.39062 68.3542 3.46354 69 3.60938C69.651 3.75521 70.1927 3.96354 70.625 4.23438C71.0625 4.5 71.3906 4.82292 71.6094 5.20312C71.8281 5.57812 71.9375 5.9974 71.9375 6.46094C71.9375 6.92448 71.8073 7.36198 71.5469 7.77344C71.2917 8.17969 70.9167 8.53125 70.4219 8.82812C71.2344 9.0625 71.8411 9.40625 72.2422 9.85938C72.6432 10.3125 72.8438 10.8672 72.8438 11.5234C72.8438 11.9714 72.7344 12.4036 72.5156 12.8203C72.3021 13.237 71.9792 13.6068 71.5469 13.9297C71.1198 14.2526 70.5833 14.513 69.9375 14.7109C69.2917 14.9036 68.5365 15 67.6719 15H60.5938V3.39062ZM65.5938 8.10938C66.0208 8.10938 66.3802 8.07031 66.6719 7.99219C66.9635 7.90885 67.1953 7.79688 67.3672 7.65625C67.5443 7.51562 67.6693 7.35417 67.7422 7.17188C67.8203 6.98958 67.8594 6.79948 67.8594 6.60156C67.8594 6.40365 67.8203 6.21354 67.7422 6.03125C67.6693 5.84896 67.5443 5.6901 67.3672 5.55469C67.1953 5.41406 66.9635 5.30208 66.6719 5.21875C66.3802 5.13542 66.0208 5.09375 65.5938 5.09375H65.1172L65.1094 8.10938H65.5938ZM65.5938 13.2969C66.0573 13.2969 66.4479 13.2474 66.7656 13.1484C67.0833 13.0495 67.3411 12.9141 67.5391 12.7422C67.737 12.5703 67.8802 12.3698 67.9688 12.1406C68.0573 11.9062 68.1016 11.6562 68.1016 11.3906C68.1016 11.1562 68.0547 10.9271 67.9609 10.7031C67.8672 10.4792 67.7266 10.2812 67.5391 10.1094C67.3568 9.93229 67.1302 9.79167 66.8594 9.6875C66.5885 9.57812 66.276 9.52344 65.9219 9.52344H65.1094V13.2969H65.5938ZM74.9531 3.39062H79.4688V10.7656C79.4688 11.1823 79.5234 11.5443 79.6328 11.8516C79.7474 12.1536 79.9036 12.4062 80.1016 12.6094C80.3047 12.8073 80.5417 12.9557 80.8125 13.0547C81.0833 13.1536 81.375 13.2031 81.6875 13.2031C82.0312 13.2031 82.3385 13.1536 82.6094 13.0547C82.8854 12.9557 83.1198 12.8047 83.3125 12.6016C83.5052 12.3984 83.6536 12.1432 83.7578 11.8359C83.862 11.5286 83.9141 11.1667 83.9141 10.75V3.39062H85.6328V10.4844C85.6328 11.2031 85.5156 11.8516 85.2812 12.4297C85.0521 13.0078 84.724 13.5026 84.2969 13.9141C83.8698 14.3203 83.3542 14.6328 82.75 14.8516C82.1458 15.0703 81.4714 15.1797 80.7266 15.1797C79.7109 15.1797 78.8385 15.0729 78.1094 14.8594C77.3802 14.6406 76.7812 14.3307 76.3125 13.9297C75.8438 13.5234 75.5 13.0339 75.2812 12.4609C75.0625 11.888 74.9531 11.2422 74.9531 10.5234V3.39062ZM90.0547 5.17188H86.7422V3.38281H97.8828V5.17188H94.5703V15H90.0547V5.17188ZM99.5781 3.39062H109.391V5.17969H104.102L104.094 8.3125H108.141V10.1016H104.094V13.2109H109.391V15H99.5781V3.39062ZM111.875 12.4219C112.427 12.7031 113.005 12.9141 113.609 13.0547C114.214 13.1953 114.776 13.2656 115.297 13.2656C115.896 13.2656 116.333 13.1797 116.609 13.0078C116.891 12.8359 117.031 12.6016 117.031 12.3047C117.031 12.2109 117.013 12.1146 116.977 12.0156C116.945 11.9167 116.88 11.8203 116.781 11.7266C116.688 11.6276 116.555 11.5312 116.383 11.4375C116.216 11.3385 115.997 11.2422 115.727 11.1484L114.328 10.6719C113.328 10.3281 112.576 9.86458 112.07 9.28125C111.565 8.69271 111.312 7.99479 111.312 7.1875C111.312 6.66667 111.422 6.16667 111.641 5.6875C111.859 5.20312 112.19 4.77865 112.633 4.41406C113.076 4.04427 113.633 3.75 114.305 3.53125C114.982 3.3125 115.773 3.20312 116.68 3.20312C117.128 3.20312 117.557 3.22917 117.969 3.28125C118.38 3.33333 118.766 3.40104 119.125 3.48438C119.49 3.56771 119.823 3.66406 120.125 3.77344C120.427 3.8776 120.693 3.98177 120.922 4.08594L120.078 5.60938C119.911 5.50521 119.734 5.41406 119.547 5.33594C119.365 5.25781 119.18 5.19271 118.992 5.14062C118.81 5.08854 118.63 5.04948 118.453 5.02344C118.276 4.9974 118.115 4.98438 117.969 4.98438C117.719 4.98438 117.5 5.01823 117.312 5.08594C117.125 5.14844 116.966 5.23438 116.836 5.34375C116.711 5.44792 116.615 5.56771 116.547 5.70312C116.484 5.83333 116.453 5.96354 116.453 6.09375C116.453 6.20833 116.479 6.32031 116.531 6.42969C116.589 6.53385 116.682 6.63802 116.812 6.74219C116.948 6.84115 117.122 6.94271 117.336 7.04688C117.555 7.14583 117.826 7.25 118.148 7.35938L119.086 7.67188C120.102 8.01042 120.878 8.47656 121.414 9.07031C121.951 9.66406 122.219 10.3828 122.219 11.2266C122.219 11.7995 122.089 12.3281 121.828 12.8125C121.573 13.2969 121.19 13.7161 120.68 14.0703C120.169 14.4193 119.534 14.6927 118.773 14.8906C118.018 15.0833 117.141 15.1797 116.141 15.1797C115.661 15.1797 115.198 15.1536 114.75 15.1016C114.307 15.0547 113.872 14.9818 113.445 14.8828C113.023 14.7839 112.607 14.6589 112.195 14.5078C111.784 14.3568 111.372 14.1797 110.961 13.9766L111.875 12.4219Z" fill="white"/>
<path d="M148.707 24.7071C149.098 24.3166 149.098 23.6834 148.707 23.2929L142.343 16.9289C141.953 16.5384 141.319 16.5384 140.929 16.9289C140.538 17.3195 140.538 17.9526 140.929 18.3431L146.586 24L140.929 29.6569C140.538 30.0474 140.538 30.6805 140.929 31.0711C141.319 31.4616 141.953 31.4616 142.343 31.0711L148.707 24.7071ZM-7.79625e-10 25L148 25L148 23L7.79625e-10 23L-7.79625e-10 25Z" fill="white"/>
</svg>
