<svg width="362" height="111" viewBox="0 0 362 111" fill="none" xmlns="http://www.w3.org/2000/svg">
<path d="M1 54C1 49.0294 5.02944 45 10 45H352C356.971 45 361 49.0294 361 54V100.819C361 105.789 356.971 109.819 352 109.819H10C5.02944 109.819 1 105.789 1 100.819V54Z" fill="#0094FF" stroke="black" stroke-width="2"/>
<path d="M5.48438 3.39062H8.67969L13.0703 9.46875L17.2422 3.39062H20.3516V15H15.8438V9.07031L11.5156 15.1484L7.20312 9.07031V15H5.48438V3.39062ZM23.3281 3.39062H33.1406V5.17969H27.8516L27.8438 8.3125H31.8906V10.1016H27.8438V13.2109H33.1406V15H23.3281V3.39062ZM37.5078 5.17188H34.1953V3.38281H45.3359V5.17188H42.0234V15H37.5078V5.17188ZM46.3516 9.17188C46.3516 8.29167 46.4922 7.48698 46.7734 6.75781C47.0547 6.02344 47.474 5.39323 48.0312 4.86719C48.5885 4.34115 49.2839 3.93229 50.1172 3.64062C50.9505 3.34896 51.9193 3.20312 53.0234 3.20312C54.1276 3.20312 55.0964 3.34896 55.9297 3.64062C56.763 3.93229 57.4583 4.34115 58.0156 4.86719C58.5729 5.39323 58.9922 6.02344 59.2734 6.75781C59.5547 7.48698 59.6953 8.29167 59.6953 9.17188C59.6953 10.0625 59.5547 10.8776 59.2734 11.6172C58.9922 12.3568 58.5729 12.9896 58.0156 13.5156C57.4583 14.0417 56.763 14.4505 55.9297 14.7422C55.0964 15.0339 54.1276 15.1797 53.0234 15.1797C51.9193 15.1797 50.9505 15.0339 50.1172 14.7422C49.2839 14.4505 48.5885 14.0417 48.0312 13.5156C47.474 12.9896 47.0547 12.3568 46.7734 11.6172C46.4922 10.8776 46.3516 10.0625 46.3516 9.17188ZM53.0234 13.5625C53.3359 13.5625 53.612 13.5078 53.8516 13.3984C54.0911 13.2891 54.2917 13.0755 54.4531 12.7578C54.6146 12.4401 54.737 11.9948 54.8203 11.4219C54.9036 10.849 54.9453 10.099 54.9453 9.17188C54.9453 8.25521 54.9036 7.51302 54.8203 6.94531C54.737 6.3776 54.6146 5.9375 54.4531 5.625C54.2917 5.3125 54.0911 5.10156 53.8516 4.99219C53.612 4.88281 53.3359 4.82812 53.0234 4.82812C52.7109 4.82812 52.4323 4.88281 52.1875 4.99219C51.9479 5.10156 51.7474 5.3125 51.5859 5.625C51.4245 5.9375 51.3021 6.3776 51.2188 6.94531C51.1354 7.51302 51.0938 8.25521 51.0938 9.17188C51.0938 10.099 51.1354 10.849 51.2188 11.4219C51.3021 11.9948 51.4245 12.4401 51.5859 12.7578C51.7474 13.0755 51.9479 13.2891 52.1875 13.3984C52.4323 13.5078 52.7109 13.5625 53.0234 13.5625ZM61.9844 3.39062H66.7578C68.1016 3.39062 69.2656 3.51823 70.25 3.77344C71.2344 4.02344 72.0495 4.39323 72.6953 4.88281C73.3411 5.3724 73.8203 5.97396 74.1328 6.6875C74.4453 7.40104 74.6016 8.21875 74.6016 9.14062C74.6016 9.96354 74.4453 10.7318 74.1328 11.4453C73.8203 12.1536 73.3411 12.7734 72.6953 13.3047C72.0495 13.8307 71.2344 14.2448 70.25 14.5469C69.2656 14.849 68.1016 15 66.7578 15H61.9844V3.39062ZM66.5 13.2969C67.0208 13.2969 67.4896 13.2161 67.9062 13.0547C68.3229 12.8932 68.6745 12.6432 68.9609 12.3047C69.2526 11.9661 69.474 11.5365 69.625 11.0156C69.7812 10.4896 69.8594 9.86198 69.8594 9.13281C69.8594 8.40885 69.7812 7.79167 69.625 7.28125C69.4688 6.77083 69.2448 6.35417 68.9531 6.03125C68.6615 5.70312 68.3073 5.46615 67.8906 5.32031C67.4792 5.16927 67.0182 5.09375 66.5078 5.09375L66.5 13.2969ZM76.2109 9.17188C76.2109 8.29167 76.3516 7.48698 76.6328 6.75781C76.9141 6.02344 77.3333 5.39323 77.8906 4.86719C78.4479 4.34115 79.1432 3.93229 79.9766 3.64062C80.8099 3.34896 81.7786 3.20312 82.8828 3.20312C83.987 3.20312 84.9557 3.34896 85.7891 3.64062C86.6224 3.93229 87.3177 4.34115 87.875 4.86719C88.4323 5.39323 88.8516 6.02344 89.1328 6.75781C89.4141 7.48698 89.5547 8.29167 89.5547 9.17188C89.5547 10.0625 89.4141 10.8776 89.1328 11.6172C88.8516 12.3568 88.4323 12.9896 87.875 13.5156C87.3177 14.0417 86.6224 14.4505 85.7891 14.7422C84.9557 15.0339 83.987 15.1797 82.8828 15.1797C81.7786 15.1797 80.8099 15.0339 79.9766 14.7422C79.1432 14.4505 78.4479 14.0417 77.8906 13.5156C77.3333 12.9896 76.9141 12.3568 76.6328 11.6172C76.3516 10.8776 76.2109 10.0625 76.2109 9.17188ZM82.8828 13.5625C83.1953 13.5625 83.4714 13.5078 83.7109 13.3984C83.9505 13.2891 84.151 13.0755 84.3125 12.7578C84.474 12.4401 84.5964 11.9948 84.6797 11.4219C84.763 10.849 84.8047 10.099 84.8047 9.17188C84.8047 8.25521 84.763 7.51302 84.6797 6.94531C84.5964 6.3776 84.474 5.9375 84.3125 5.625C84.151 5.3125 83.9505 5.10156 83.7109 4.99219C83.4714 4.88281 83.1953 4.82812 82.8828 4.82812C82.5703 4.82812 82.2917 4.88281 82.0469 4.99219C81.8073 5.10156 81.6068 5.3125 81.4453 5.625C81.2839 5.9375 81.1615 6.3776 81.0781 6.94531C80.9948 7.51302 80.9531 8.25521 80.9531 9.17188C80.9531 10.099 80.9948 10.849 81.0781 11.4219C81.1615 11.9948 81.2839 12.4401 81.4453 12.7578C81.6068 13.0755 81.8073 13.2891 82.0469 13.3984C82.2917 13.5078 82.5703 13.5625 82.8828 13.5625ZM92 12.4219C92.5521 12.7031 93.1302 12.9141 93.7344 13.0547C94.3385 13.1953 94.901 13.2656 95.4219 13.2656C96.0208 13.2656 96.4583 13.1797 96.7344 13.0078C97.0156 12.8359 97.1562 12.6016 97.1562 12.3047C97.1562 12.2109 97.138 12.1146 97.1016 12.0156C97.0703 11.9167 97.0052 11.8203 96.9062 11.7266C96.8125 11.6276 96.6797 11.5312 96.5078 11.4375C96.3411 11.3385 96.1224 11.2422 95.8516 11.1484L94.4531 10.6719C93.4531 10.3281 92.7005 9.86458 92.1953 9.28125C91.6901 8.69271 91.4375 7.99479 91.4375 7.1875C91.4375 6.66667 91.5469 6.16667 91.7656 5.6875C91.9844 5.20312 92.3151 4.77865 92.7578 4.41406C93.2005 4.04427 93.7578 3.75 94.4297 3.53125C95.1068 3.3125 95.8984 3.20312 96.8047 3.20312C97.2526 3.20312 97.6823 3.22917 98.0938 3.28125C98.5052 3.33333 98.8906 3.40104 99.25 3.48438C99.6146 3.56771 99.9479 3.66406 100.25 3.77344C100.552 3.8776 100.818 3.98177 101.047 4.08594L100.203 5.60938C100.036 5.50521 99.8594 5.41406 99.6719 5.33594C99.4896 5.25781 99.3047 5.19271 99.1172 5.14062C98.9349 5.08854 98.7552 5.04948 98.5781 5.02344C98.401 4.9974 98.2396 4.98438 98.0938 4.98438C97.8438 4.98438 97.625 5.01823 97.4375 5.08594C97.25 5.14844 97.0911 5.23438 96.9609 5.34375C96.8359 5.44792 96.7396 5.56771 96.6719 5.70312C96.6094 5.83333 96.5781 5.96354 96.5781 6.09375C96.5781 6.20833 96.6042 6.32031 96.6562 6.42969C96.7135 6.53385 96.8073 6.63802 96.9375 6.74219C97.0729 6.84115 97.2474 6.94271 97.4609 7.04688C97.6797 7.14583 97.9505 7.25 98.2734 7.35938L99.2109 7.67188C100.227 8.01042 101.003 8.47656 101.539 9.07031C102.076 9.66406 102.344 10.3828 102.344 11.2266C102.344 11.7995 102.214 12.3281 101.953 12.8125C101.698 13.2969 101.315 13.7161 100.805 14.0703C100.294 14.4193 99.6589 14.6927 98.8984 14.8906C98.1432 15.0833 97.2656 15.1797 96.2656 15.1797C95.7865 15.1797 95.3229 15.1536 94.875 15.1016C94.4323 15.0547 93.9974 14.9818 93.5703 14.8828C93.1484 14.7839 92.7318 14.6589 92.3203 14.5078C91.9089 14.3568 91.4974 14.1797 91.0859 13.9766L92 12.4219Z" fill="white"/>
<path d="M144.707 24.7071C145.098 24.3166 145.098 23.6834 144.707 23.2929L138.343 16.9289C137.953 16.5384 137.319 16.5384 136.929 16.9289C136.538 17.3195 136.538 17.9526 136.929 18.3431L142.586 24L136.929 29.6569C136.538 30.0474 136.538 30.6805 136.929 31.0711C137.319 31.4616 137.953 31.4616 138.343 31.0711L144.707 24.7071ZM4 25H144V23H4V25Z" fill="white"/>
</svg>
