<svg width="80" height="80" viewBox="0 0 80 80" fill="none" xmlns="http://www.w3.org/2000/svg">
<rect width="80" height="80" rx="15" fill="black"/>
<path d="M40.983 50.5455V49.0114C40.983 47.9129 41.2102 46.9091 41.6648 46C42.1288 45.0814 42.8011 44.3475 43.6818 43.7983C44.572 43.2396 45.6468 42.9602 46.9062 42.9602C48.1941 42.9602 49.2737 43.2348 50.1449 43.7841C51.0161 44.3333 51.6742 45.0672 52.1193 45.9858C52.5739 46.9044 52.8011 47.9129 52.8011 49.0114V50.5455C52.8011 51.6439 52.5739 52.6525 52.1193 53.571C51.6648 54.4801 50.9972 55.214 50.1165 55.7727C49.2453 56.322 48.1752 56.5966 46.9062 56.5966C45.6278 56.5966 44.5483 56.322 43.6676 55.7727C42.7869 55.214 42.1193 54.4801 41.6648 53.571C41.2102 52.6525 40.983 51.6439 40.983 50.5455ZM44.2926 49.0114V50.5455C44.2926 51.3598 44.4867 52.0985 44.875 52.7614C45.2633 53.4242 45.9403 53.7557 46.9062 53.7557C47.8627 53.7557 48.5303 53.4242 48.9091 52.7614C49.2879 52.0985 49.4773 51.3598 49.4773 50.5455V49.0114C49.4773 48.197 49.2926 47.4583 48.9233 46.7955C48.5634 46.1326 47.8911 45.8011 46.9062 45.8011C45.9593 45.8011 45.2869 46.1326 44.8892 46.7955C44.4915 47.4583 44.2926 48.197 44.2926 49.0114ZM26.3523 33.8977V32.3636C26.3523 31.2652 26.5795 30.2566 27.0341 29.3381C27.4981 28.4195 28.1705 27.6856 29.0511 27.1364C29.9413 26.5871 31.0161 26.3125 32.2756 26.3125C33.5634 26.3125 34.643 26.5871 35.5142 27.1364C36.3854 27.6856 37.0436 28.4195 37.4886 29.3381C37.9337 30.2566 38.1562 31.2652 38.1562 32.3636V33.8977C38.1562 34.9962 37.929 36.0047 37.4744 36.9233C37.0294 37.8324 36.3665 38.5663 35.4858 39.125C34.6146 39.6742 33.5445 39.9489 32.2756 39.9489C30.9877 39.9489 29.9034 39.6742 29.0227 39.125C28.1515 38.5663 27.4886 37.8324 27.0341 36.9233C26.5795 36.0047 26.3523 34.9962 26.3523 33.8977ZM29.6761 32.3636V33.8977C29.6761 34.7121 29.8655 35.4508 30.2443 36.1136C30.6326 36.7765 31.3097 37.108 32.2756 37.108C33.2225 37.108 33.8854 36.7765 34.2642 36.1136C34.6525 35.4508 34.8466 34.7121 34.8466 33.8977V32.3636C34.8466 31.5492 34.6619 30.8106 34.2926 30.1477C33.9233 29.4848 33.2509 29.1534 32.2756 29.1534C31.3286 29.1534 30.6563 29.4848 30.2585 30.1477C29.8703 30.8106 29.6761 31.5492 29.6761 32.3636ZM27.7017 56L47.7017 26.9091H51.0966L31.0966 56H27.7017Z" fill="white"/>
</svg>
