<svg width="80" height="80" viewBox="0 0 80 80" fill="none" xmlns="http://www.w3.org/2000/svg">
<rect width="80" height="80" rx="15" fill="black"/>
<path d="M37.9545 56.3977C36.6572 56.3788 35.3788 56.142 34.1193 55.6875C32.8693 55.233 31.733 54.4754 30.7102 53.4148C29.6875 52.3542 28.8684 50.929 28.2528 49.1392C27.6468 47.3494 27.3438 45.1146 27.3438 42.4347C27.3438 39.8968 27.5947 37.643 28.0966 35.6733C28.608 33.7036 29.3419 32.0417 30.2983 30.6875C31.2547 29.3239 32.41 28.2869 33.7642 27.5767C35.1184 26.8665 36.6383 26.5114 38.3239 26.5114C40.0568 26.5114 41.5956 26.8523 42.9403 27.5341C44.285 28.2159 45.3741 29.1581 46.2074 30.3608C47.0502 31.5634 47.5852 32.9318 47.8125 34.4659H43.4801C43.1866 33.2538 42.6042 32.2642 41.733 31.4972C40.8617 30.7301 39.7254 30.3466 38.3239 30.3466C36.1932 30.3466 34.5313 31.2746 33.3381 33.1307C32.1544 34.9867 31.5578 37.5672 31.5483 40.8722H31.7614C32.2633 40.0483 32.8788 39.3475 33.608 38.7699C34.3466 38.1828 35.1705 37.733 36.0795 37.4205C36.9981 37.0985 37.964 36.9375 38.9773 36.9375C40.6629 36.9375 42.1875 37.3494 43.5511 38.1733C44.9242 38.9877 46.018 40.1146 46.8324 41.554C47.6468 42.9934 48.054 44.6411 48.054 46.4972C48.054 48.3532 47.6326 50.0341 46.7898 51.5398C45.9564 53.0455 44.7822 54.2386 43.267 55.1193C41.7519 55.9905 39.9811 56.4167 37.9545 56.3977ZM37.9403 52.7045C39.0578 52.7045 40.0568 52.4299 40.9375 51.8807C41.8182 51.3314 42.5142 50.5928 43.0256 49.6648C43.5369 48.7367 43.7926 47.6998 43.7926 46.554C43.7926 45.4366 43.5417 44.4186 43.0398 43.5C42.5473 42.5814 41.8655 41.8523 40.9943 41.3125C40.1326 40.7727 39.1477 40.5028 38.0398 40.5028C37.197 40.5028 36.4157 40.6638 35.696 40.9858C34.9858 41.3078 34.3608 41.7528 33.821 42.321C33.2813 42.8892 32.8551 43.5426 32.5426 44.2812C32.2396 45.0104 32.0881 45.7822 32.0881 46.5966C32.0881 47.6856 32.339 48.6941 32.8409 49.6222C33.3523 50.5502 34.0483 51.2983 34.929 51.8665C35.8191 52.4252 36.8229 52.7045 37.9403 52.7045Z" fill="white"/>
</svg>
