<svg width="80" height="80" viewBox="0 0 80 80" fill="none" xmlns="http://www.w3.org/2000/svg">
<rect width="80" height="80" rx="15" fill="#D9D9D9"/>
<path d="M52.358 35.3693H47.9261C47.7557 34.4223 47.4384 33.589 46.9744 32.8693C46.5104 32.1496 45.9422 31.5388 45.2699 31.0369C44.5975 30.535 43.8447 30.1562 43.0114 29.9006C42.1875 29.6449 41.3116 29.517 40.3835 29.517C38.7074 29.517 37.2064 29.9384 35.8807 30.7812C34.5644 31.6241 33.5227 32.8598 32.7557 34.4886C31.9981 36.1174 31.6193 38.1061 31.6193 40.4545C31.6193 42.822 31.9981 44.8201 32.7557 46.4489C33.5227 48.0777 34.5691 49.3087 35.8949 50.142C37.2206 50.9754 38.7121 51.392 40.3693 51.392C41.2879 51.392 42.1591 51.2689 42.983 51.0227C43.8163 50.767 44.5691 50.393 45.2415 49.9006C45.9138 49.4081 46.482 48.8068 46.946 48.0966C47.4195 47.3769 47.7462 46.553 47.9261 45.625L52.358 45.6392C52.1212 47.0691 51.6619 48.3854 50.9801 49.5881C50.3078 50.7812 49.4413 51.8134 48.3807 52.6847C47.3295 53.5464 46.1269 54.214 44.7727 54.6875C43.4186 55.161 41.9413 55.3977 40.3409 55.3977C37.822 55.3977 35.5777 54.8011 33.608 53.608C31.6383 52.4053 30.0852 50.6866 28.9489 48.4517C27.822 46.2169 27.2585 43.5511 27.2585 40.4545C27.2585 37.3485 27.8267 34.6828 28.9631 32.4574C30.0994 30.2225 31.6525 28.5085 33.6222 27.3153C35.5919 26.1127 37.8314 25.5114 40.3409 25.5114C41.8845 25.5114 43.3239 25.7339 44.6591 26.179C46.0038 26.6146 47.2112 27.2585 48.2812 28.1108C49.3513 28.9536 50.2367 29.9858 50.9375 31.2074C51.6383 32.4195 52.1117 33.8068 52.358 35.3693Z" fill="black"/>
</svg>
