<svg width="80" height="80" viewBox="0 0 80 80" fill="none" xmlns="http://www.w3.org/2000/svg">
<rect width="80" height="80" rx="15" fill="#D9D9D9"/>
<path d="M40.6278 55.3977C38.5919 55.3977 36.7926 55.0473 35.2301 54.3466C33.6771 53.6458 32.4602 52.6799 31.5795 51.4489C30.6989 50.2178 30.2633 48.8163 30.2727 47.2443C30.2633 46.0133 30.5142 44.8816 31.0256 43.8494C31.5464 42.8078 32.2519 41.9413 33.142 41.25C34.0322 40.5492 35.0265 40.1042 36.125 39.9148V39.7443C34.6761 39.3939 33.5161 38.6174 32.6449 37.4148C31.7737 36.2121 31.3428 34.8295 31.3523 33.267C31.3428 31.7803 31.7358 30.4545 32.5312 29.2898C33.3362 28.1155 34.4394 27.1922 35.8409 26.5199C37.2424 25.8475 38.8381 25.5114 40.6278 25.5114C42.3987 25.5114 43.9801 25.8523 45.3722 26.5341C46.7737 27.2064 47.8769 28.1297 48.6818 29.304C49.4867 30.4687 49.8939 31.7898 49.9034 33.267C49.8939 34.8295 49.4489 36.2121 48.5682 37.4148C47.6875 38.6174 46.5417 39.3939 45.1307 39.7443V39.9148C46.2197 40.1042 47.1998 40.5492 48.071 41.25C48.9517 41.9413 49.6525 42.8078 50.1733 43.8494C50.7036 44.8816 50.9735 46.0133 50.983 47.2443C50.9735 48.8163 50.5284 50.2178 49.6477 51.4489C48.767 52.6799 47.5455 53.6458 45.983 54.3466C44.4299 55.0473 42.6449 55.3977 40.6278 55.3977ZM40.6278 51.804C41.8305 51.804 42.8722 51.6051 43.7528 51.2074C44.6335 50.8002 45.3153 50.2367 45.7983 49.517C46.2813 48.7879 46.5275 47.9356 46.5369 46.9602C46.5275 45.947 46.2623 45.0521 45.7415 44.2756C45.2301 43.4991 44.5341 42.8883 43.6534 42.4432C42.7727 41.9981 41.7642 41.7756 40.6278 41.7756C39.482 41.7756 38.464 41.9981 37.5739 42.4432C36.6837 42.8883 35.983 43.4991 35.4716 44.2756C34.9602 45.0521 34.7093 45.947 34.7188 46.9602C34.7093 47.9356 34.9413 48.7879 35.4148 49.517C35.8977 50.2367 36.5843 50.8002 37.4744 51.2074C38.3646 51.6051 39.4157 51.804 40.6278 51.804ZM40.6278 38.267C41.5938 38.267 42.4508 38.0729 43.1989 37.6847C43.947 37.2964 44.5341 36.7566 44.9602 36.0653C45.3958 35.3741 45.6184 34.5644 45.6278 33.6364C45.6184 32.7273 45.4006 31.9318 44.9744 31.25C44.5578 30.5682 43.9754 30.0426 43.2273 29.6733C42.4792 29.2945 41.6127 29.1051 40.6278 29.1051C39.6241 29.1051 38.7434 29.2945 37.9858 29.6733C37.2377 30.0426 36.6553 30.5682 36.2386 31.25C35.822 31.9318 35.6184 32.7273 35.6278 33.6364C35.6184 34.5644 35.8267 35.3741 36.2528 36.0653C36.679 36.7566 37.2661 37.2964 38.0142 37.6847C38.7718 38.0729 39.643 38.267 40.6278 38.267Z" fill="black"/>
</svg>
