<svg width="80" height="80" viewBox="0 0 80 80" fill="none" xmlns="http://www.w3.org/2000/svg">
<rect width="80" height="80" rx="15" fill="#D9D9D9"/>
<path d="M40.9261 55.483C38.6818 55.4735 36.7642 54.8816 35.1733 53.7074C33.5824 52.5331 32.3655 50.8239 31.5227 48.5795C30.6799 46.3352 30.2585 43.6316 30.2585 40.4688C30.2585 37.3153 30.6799 34.6212 31.5227 32.3864C32.375 30.1515 33.5966 28.447 35.1875 27.2727C36.7879 26.0985 38.7008 25.5114 40.9261 25.5114C43.1515 25.5114 45.0597 26.1032 46.6506 27.2869C48.2415 28.4612 49.4583 30.1657 50.3011 32.4006C51.1534 34.6259 51.5795 37.3153 51.5795 40.4688C51.5795 43.6411 51.1581 46.3494 50.3153 48.5938C49.4725 50.8286 48.2557 52.5379 46.6648 53.7216C45.0739 54.8958 43.161 55.483 40.9261 55.483ZM40.9261 51.6903C42.8958 51.6903 44.4347 50.7292 45.5426 48.8068C46.66 46.8845 47.2188 44.1051 47.2188 40.4688C47.2188 38.054 46.9631 36.0133 46.4517 34.3466C45.9498 32.6705 45.2254 31.4015 44.2784 30.5398C43.3409 29.6686 42.2235 29.233 40.9261 29.233C38.9659 29.233 37.4271 30.1989 36.3097 32.1307C35.1922 34.0625 34.6288 36.8419 34.6193 40.4688C34.6193 42.893 34.8703 44.9432 35.3722 46.6193C35.8835 48.286 36.608 49.5502 37.5455 50.4119C38.483 51.2642 39.6098 51.6903 40.9261 51.6903Z" fill="black"/>
</svg>
