<svg width="80" height="80" viewBox="0 0 80 80" fill="none" xmlns="http://www.w3.org/2000/svg">
<rect width="80" height="80" rx="15" fill="#D9D9D9"/>
<path d="M37.9261 55.3977C35.9754 55.3977 34.233 55.0616 32.6989 54.3892C31.1742 53.7169 29.9669 52.7841 29.0767 51.5909C28.196 50.3883 27.7225 48.9962 27.6562 47.4148H32.1165C32.1733 48.2765 32.4621 49.0246 32.983 49.6591C33.5133 50.2841 34.2045 50.767 35.0568 51.108C35.9091 51.4489 36.8561 51.6193 37.8977 51.6193C39.0436 51.6193 40.0568 51.4205 40.9375 51.0227C41.8277 50.625 42.5237 50.071 43.0256 49.3608C43.5275 48.6411 43.7784 47.8125 43.7784 46.875C43.7784 45.8996 43.5275 45.0426 43.0256 44.304C42.5331 43.5559 41.8087 42.9687 40.8523 42.5426C39.9053 42.1165 38.7595 41.9034 37.4148 41.9034H34.9574V38.3239H37.4148C38.4943 38.3239 39.4413 38.1297 40.2557 37.7415C41.0795 37.3532 41.7235 36.8134 42.1875 36.1222C42.6515 35.4214 42.8835 34.6023 42.8835 33.6648C42.8835 32.7652 42.6799 31.9839 42.2727 31.321C41.875 30.6487 41.3068 30.1231 40.5682 29.7443C39.839 29.3655 38.9773 29.1761 37.983 29.1761C37.036 29.1761 36.1506 29.3513 35.3267 29.7017C34.5123 30.0426 33.8494 30.535 33.3381 31.179C32.8267 31.8134 32.5521 32.5758 32.5142 33.4659H28.267C28.3144 31.8939 28.7784 30.5114 29.6591 29.3182C30.5492 28.125 31.7235 27.1922 33.1818 26.5199C34.6402 25.8475 36.2595 25.5114 38.0398 25.5114C39.9053 25.5114 41.5152 25.8759 42.8693 26.6051C44.233 27.3248 45.2841 28.286 46.0227 29.4886C46.7708 30.6913 47.1402 32.0076 47.1307 33.4375C47.1402 35.0663 46.6856 36.4489 45.767 37.5852C44.858 38.7216 43.6458 39.4839 42.1307 39.8722V40.0994C44.0625 40.393 45.5587 41.16 46.6193 42.4006C47.6894 43.6411 48.2197 45.1799 48.2102 47.017C48.2197 48.6174 47.7746 50.0521 46.875 51.321C45.9848 52.59 44.768 53.589 43.2244 54.3182C41.6809 55.0379 39.9148 55.3977 37.9261 55.3977Z" fill="black"/>
</svg>
