<svg width="80" height="80" viewBox="0 0 80 80" fill="none" xmlns="http://www.w3.org/2000/svg">
<rect width="80" height="80" rx="15" fill="black"/>
<path d="M41.6534 46.2699C40.8769 46.2699 40.2093 45.9953 39.6506 45.446C39.0919 44.8873 38.8125 44.215 38.8125 43.429C38.8125 42.6525 39.0919 41.9896 39.6506 41.4403C40.2093 40.8816 40.8769 40.6023 41.6534 40.6023C42.4299 40.6023 43.0975 40.8816 43.6562 41.4403C44.215 41.9896 44.4943 42.6525 44.4943 43.429C44.4943 43.9498 44.3617 44.428 44.0966 44.8636C43.8409 45.2898 43.5 45.6307 43.0739 45.8864C42.6477 46.142 42.1742 46.2699 41.6534 46.2699Z" fill="white"/>
</svg>
