<svg width="80" height="80" viewBox="0 0 80 80" fill="none" xmlns="http://www.w3.org/2000/svg">
<rect width="80" height="80" rx="15" fill="black"/>
<path d="M40.4006 55.3977C38.6203 55.3977 37.0199 55.0568 35.5994 54.375C34.1884 53.6837 33.0616 52.7367 32.2188 51.5341C31.3759 50.3314 30.9261 48.9583 30.8693 47.4148H35.1307C35.2348 48.6648 35.7888 49.6922 36.7926 50.4972C37.7964 51.3021 38.9991 51.7045 40.4006 51.7045C41.518 51.7045 42.5076 51.4489 43.3693 50.9375C44.2405 50.4167 44.9223 49.7017 45.4148 48.7926C45.9167 47.8835 46.1676 46.8466 46.1676 45.6818C46.1676 44.4981 45.9119 43.4422 45.4006 42.5142C44.8892 41.5862 44.1837 40.857 43.2841 40.3267C42.3939 39.7964 41.3712 39.5265 40.2159 39.517C39.3352 39.517 38.4498 39.6686 37.5597 39.9716C36.6695 40.2746 35.9498 40.6723 35.4006 41.1648L31.3807 40.5682L33.0142 25.9091H49.0085V29.6733H36.6648L35.7415 37.8125H35.9119C36.4801 37.2633 37.233 36.804 38.1705 36.4347C39.1174 36.0653 40.1307 35.8807 41.2102 35.8807C42.9811 35.8807 44.5578 36.3021 45.9403 37.1449C47.3324 37.9877 48.4261 39.1383 49.2216 40.5966C50.0265 42.0455 50.4242 43.7121 50.4148 45.5966C50.4242 47.4811 49.9981 49.1619 49.1364 50.6392C48.2841 52.1165 47.1004 53.2812 45.5852 54.1335C44.0795 54.9763 42.3513 55.3977 40.4006 55.3977Z" fill="white"/>
</svg>
