<svg width="80" height="80" viewBox="0 0 80 80" fill="none" xmlns="http://www.w3.org/2000/svg">
<rect width="80" height="80" rx="15" fill="black"/>
<path d="M28.7983 55V51.8182L38.642 41.6193C39.6932 40.5114 40.5597 39.5407 41.2415 38.7074C41.9328 37.8646 42.4489 37.0644 42.7898 36.3068C43.1307 35.5492 43.3011 34.7443 43.3011 33.892C43.3011 32.9261 43.0739 32.0928 42.6193 31.392C42.1648 30.6818 41.5445 30.1373 40.7585 29.7585C39.9725 29.3703 39.0871 29.1761 38.1023 29.1761C37.0606 29.1761 36.1515 29.3892 35.375 29.8153C34.5985 30.2415 34.0019 30.8428 33.5852 31.6193C33.1686 32.3958 32.9602 33.3049 32.9602 34.3466H28.7699C28.7699 32.5758 29.1771 31.0275 29.9915 29.7017C30.8059 28.3759 31.9233 27.3485 33.3438 26.6193C34.7642 25.8807 36.3788 25.5114 38.1875 25.5114C40.0152 25.5114 41.625 25.8759 43.017 26.6051C44.4186 27.3248 45.5123 28.3097 46.2983 29.5597C47.0843 30.8002 47.4773 32.2017 47.4773 33.7642C47.4773 34.8438 47.2737 35.8996 46.8665 36.9318C46.4688 37.964 45.7727 39.1146 44.7784 40.3835C43.7841 41.643 42.4015 43.1723 40.6307 44.9716L34.8494 51.0227V51.2358H47.946V55H28.7983Z" fill="white"/>
</svg>
