<svg width="80" height="80" viewBox="0 0 80 80" fill="none" xmlns="http://www.w3.org/2000/svg">
<rect width="80" height="80" rx="15" fill="black"/>
<path d="M38.4716 25.5114C39.7689 25.5208 41.0473 25.7576 42.3068 26.2216C43.5663 26.6856 44.7027 27.4432 45.7159 28.4943C46.7386 29.5455 47.553 30.9659 48.1591 32.7557C48.7746 34.536 49.0871 36.7519 49.0966 39.4034C49.0966 41.9508 48.8409 44.2187 48.3295 46.2074C47.8182 48.1866 47.0843 49.858 46.1278 51.2216C45.1809 52.5852 44.0303 53.6222 42.6761 54.3324C41.322 55.0426 39.7973 55.3977 38.1023 55.3977C36.3693 55.3977 34.8305 55.0568 33.4858 54.375C32.1411 53.6932 31.0473 52.7509 30.2045 51.5483C29.3617 50.3362 28.8362 48.9441 28.6278 47.3722H32.9602C33.2443 48.6222 33.822 49.6354 34.6932 50.4119C35.5739 51.179 36.7102 51.5625 38.1023 51.5625C40.233 51.5625 41.8949 50.6345 43.0881 48.7784C44.2813 46.9129 44.8826 44.3087 44.892 40.9659H44.6648C44.1723 41.7803 43.5568 42.4811 42.8182 43.0682C42.089 43.6553 41.2699 44.1098 40.3608 44.4318C39.4517 44.7538 38.4811 44.9148 37.4489 44.9148C35.7727 44.9148 34.2481 44.5028 32.875 43.679C31.5019 42.8551 30.4081 41.7235 29.5938 40.2841C28.7794 38.8447 28.3722 37.2017 28.3722 35.3551C28.3722 33.518 28.7888 31.8513 29.6222 30.3551C30.465 28.8589 31.6392 27.6752 33.1449 26.804C34.66 25.9233 36.4356 25.4924 38.4716 25.5114ZM38.4858 29.2045C37.3778 29.2045 36.3788 29.4792 35.4886 30.0284C34.608 30.5682 33.9119 31.3021 33.4006 32.2301C32.8892 33.1487 32.6335 34.1714 32.6335 35.2983C32.6335 36.4252 32.8797 37.4479 33.3722 38.3665C33.8741 39.2756 34.5559 40 35.4176 40.5398C36.2888 41.0701 37.2831 41.3352 38.4006 41.3352C39.2339 41.3352 40.0104 41.1742 40.7301 40.8523C41.4498 40.5303 42.0795 40.0852 42.6193 39.517C43.1591 38.9394 43.5805 38.286 43.8835 37.5568C44.1866 36.8277 44.3381 36.0606 44.3381 35.2557C44.3381 34.1856 44.0824 33.1913 43.571 32.2727C43.0691 31.3542 42.3778 30.6155 41.4972 30.0568C40.6165 29.4886 39.6127 29.2045 38.4858 29.2045Z" fill="white"/>
</svg>
